<svg width="20" height="19" viewBox="0 0 20 19" fill="none" xmlns="http://www.w3.org/2000/svg">
<path d="M2.32717 0.700007H17.6732C17.7886 0.69875 17.9031 0.721173 18.0096 0.765891C18.1161 0.810609 18.2122 0.876674 18.2922 0.960007C18.3756 1.04028 18.4417 1.1368 18.4864 1.2436C18.5312 1.3504 18.5535 1.46523 18.5522 1.58101C18.5536 1.69664 18.5312 1.81133 18.4865 1.91798C18.4418 2.02462 18.3756 2.12095 18.2922 2.20101C18.2121 2.28411 18.1159 2.34996 18.0094 2.3945C17.903 2.43904 17.7886 2.46133 17.6732 2.46001H2.32717C2.2117 2.46126 2.0972 2.43884 1.99074 2.39412C1.88427 2.3494 1.7881 2.28334 1.70817 2.20001C1.62473 2.11973 1.55862 2.02322 1.5139 1.91641C1.46919 1.80961 1.44681 1.69478 1.44817 1.57901C1.44677 1.46337 1.46913 1.34868 1.51385 1.24204C1.55857 1.13539 1.62471 1.03906 1.70817 0.959007C1.78823 0.875903 1.88444 0.810055 1.99089 0.765514C2.09734 0.720973 2.21178 0.69868 2.32717 0.700007ZM2.73717 18.3C2.41687 18.2995 2.10987 18.1719 1.88357 17.9452C1.65727 17.7185 1.53017 17.4113 1.53017 17.091V11.791H1.21617C1.03248 11.796 0.850267 11.757 0.684681 11.6773C0.519095 11.5977 0.374925 11.4796 0.264168 11.333C0.148 11.1931 0.0667482 11.0275 0.0271078 10.85C-0.0125326 10.6725 -0.00942731 10.4881 0.0361679 10.312L1.20817 5.52901C1.26926 5.26406 1.42012 5.0284 1.63517 4.86201C1.85375 4.68466 2.12772 4.5898 2.40917 4.59401H17.5912C17.8726 4.5898 18.1466 4.68466 18.3652 4.86201C18.5802 5.0284 18.7311 5.26406 18.7922 5.52901L19.9642 10.312C20.0055 10.4894 20.0062 10.6739 19.9661 10.8516C19.926 11.0293 19.8462 11.1957 19.7327 11.3382C19.6192 11.4806 19.4749 11.5956 19.3106 11.6743C19.1463 11.7531 18.9663 11.7937 18.7842 11.793H18.4702V17.42C18.4702 17.6531 18.3776 17.8767 18.2127 18.0416C18.0479 18.2064 17.8243 18.299 17.5912 18.299C17.358 18.299 17.1345 18.2064 16.9696 18.0416C16.8048 17.8767 16.7122 17.6531 16.7122 17.42V11.793H11.9712V17.093C11.9706 17.413 11.8433 17.7197 11.6171 17.9459C11.3908 18.1721 11.0841 18.2995 10.7642 18.3H2.73717ZM3.28817 16.54H10.2132V11.793H3.28817V16.54ZM1.88217 10.033H18.1182L17.2102 6.35301H2.79017L1.88217 10.033Z" fill="#333"/>
</svg>
