<svg width="20" height="19" viewBox="0 0 20 19" fill="none" xmlns="http://www.w3.org/2000/svg">
<path d="M2.32717 0.699763H17.6732C17.7886 0.698506 17.9031 0.720929 18.0096 0.765647C18.1161 0.810365 18.2122 0.87643 18.2922 0.959763C18.3756 1.04004 18.4417 1.13655 18.4864 1.24336C18.5312 1.35016 18.5535 1.46499 18.5522 1.58076C18.5536 1.6964 18.5312 1.81109 18.4865 1.91773C18.4418 2.02438 18.3756 2.12071 18.2922 2.20076C18.2121 2.28387 18.1159 2.34972 18.0094 2.39426C17.903 2.4388 17.7886 2.46109 17.6732 2.45976H2.32717C2.2117 2.46102 2.0972 2.4386 1.99074 2.39388C1.88427 2.34916 1.7881 2.2831 1.70817 2.19976C1.62473 2.11949 1.55862 2.02297 1.5139 1.91617C1.46918 1.80937 1.44681 1.69454 1.44817 1.57876C1.44677 1.46313 1.46913 1.34844 1.51385 1.24179C1.55857 1.13515 1.62471 1.03882 1.70817 0.958763C1.78823 0.875658 1.88444 0.809811 1.99089 0.76527C2.09734 0.720729 2.21178 0.698436 2.32717 0.699763ZM2.73717 18.2998C2.41687 18.2992 2.10987 18.1716 1.88357 17.9449C1.65727 17.7183 1.53017 17.4111 1.53017 17.0908V11.7908H1.21617C1.03248 11.7957 0.850267 11.7568 0.684681 11.6771C0.519095 11.5974 0.374925 11.4794 0.264168 11.3328C0.148 11.1928 0.0667482 11.0273 0.0271078 10.8497C-0.0125326 10.6722 -0.00942731 10.4878 0.0361679 10.3118L1.20817 5.52876C1.26926 5.26381 1.42012 5.02815 1.63517 4.86176C1.85375 4.68442 2.12772 4.58955 2.40917 4.59376H17.5912C17.8726 4.58955 18.1466 4.68442 18.3652 4.86176C18.5802 5.02815 18.7311 5.26381 18.7922 5.52876L19.9642 10.3118C20.0055 10.4892 20.0062 10.6737 19.9661 10.8514C19.926 11.0291 19.8462 11.1954 19.7327 11.3379C19.6192 11.4804 19.4749 11.5953 19.3106 11.6741C19.1463 11.7529 18.9663 11.7934 18.7842 11.7928H18.4702V17.4198C18.4702 17.6529 18.3776 17.8765 18.2127 18.0413C18.0479 18.2062 17.8243 18.2988 17.5912 18.2988C17.358 18.2988 17.1345 18.2062 16.9696 18.0413C16.8048 17.8765 16.7122 17.6529 16.7122 17.4198V11.7928H11.9712V17.0928C11.9706 17.4127 11.8433 17.7194 11.6171 17.9457C11.3908 18.1719 11.0841 18.2992 10.7642 18.2998H2.73717ZM3.28817 16.5398H10.2132V11.7928H3.28817V16.5398ZM1.88217 10.0328H18.1182L17.2102 6.35276H2.79017L1.88217 10.0328Z" fill="white"/>
</svg>
