<svg width="17" height="15" viewBox="0 0 17 15" fill="none" xmlns="http://www.w3.org/2000/svg">
<path d="M3.23283 12.7779L1.66783 14.2579C1.53242 14.3977 1.35696 14.492 1.16566 14.5278C0.974356 14.5636 0.776652 14.5392 0.599832 14.4579C0.419726 14.4021 0.263161 14.2883 0.154606 14.1341C0.0460518 13.98 -0.00837488 13.7942 -0.000167563 13.6059V1.91688C-0.00493046 1.66875 0.0431659 1.42245 0.140926 1.19434C0.238685 0.966238 0.38387 0.761548 0.566832 0.593875C0.753241 0.417104 0.972646 0.278786 1.21252 0.186818C1.45239 0.0948503 1.70803 0.0510352 1.96483 0.0578751H15.0348C15.292 0.0507705 15.548 0.0944562 15.7882 0.186431C16.0285 0.278406 16.2482 0.416863 16.4348 0.593875C16.6174 0.761728 16.7622 0.966498 16.8597 1.1946C16.9571 1.42269 17.0048 1.6689 16.9998 1.91688V10.9169C17.0046 11.165 16.9565 11.4113 16.8587 11.6394C16.761 11.8675 16.6158 12.0722 16.4328 12.2399C16.2462 12.4169 16.0265 12.5553 15.7862 12.6473C15.546 12.7393 15.29 12.783 15.0328 12.7759L3.23283 12.7779ZM2.64583 11.4239H15.0358C15.1742 11.4217 15.3062 11.3649 15.4028 11.2659C15.4535 11.223 15.4946 11.17 15.5233 11.1102C15.5521 11.0504 15.568 10.9852 15.5698 10.9189V1.91888C15.568 1.85255 15.5521 1.78736 15.5233 1.72757C15.4946 1.66778 15.4535 1.61473 15.4028 1.57188C15.3062 1.4728 15.1742 1.416 15.0358 1.41388H1.96483C1.82643 1.416 1.6945 1.4728 1.59783 1.57188C1.54717 1.61473 1.50611 1.66778 1.47733 1.72757C1.44856 1.78736 1.43271 1.85255 1.43083 1.91888V12.5879L2.64583 11.4239ZM3.50683 9.45787C3.46745 9.41991 3.43613 9.3744 3.41474 9.32405C3.39335 9.27371 3.38232 9.21957 3.38232 9.16488C3.38232 9.11018 3.39335 9.05604 3.41474 9.0057C3.43613 8.95535 3.46745 8.90984 3.50683 8.87187C3.59079 8.79466 3.70184 8.75369 3.81583 8.75787H9.67083C9.78539 8.75477 9.89651 8.7972 9.97983 8.87587C10.0192 8.91384 10.0505 8.95935 10.0719 9.0097C10.0933 9.06004 10.1043 9.11418 10.1043 9.16887C10.1043 9.22357 10.0933 9.27771 10.0719 9.32805C10.0505 9.3784 10.0192 9.42391 9.97983 9.46187C9.89651 9.54055 9.78539 9.58298 9.67083 9.57987H3.81583C3.75883 9.58088 3.70219 9.57062 3.64917 9.54969C3.59614 9.52875 3.54777 9.49755 3.50683 9.45787ZM3.50683 6.68788C3.46745 6.64991 3.43613 6.6044 3.41474 6.55405C3.39335 6.50371 3.38232 6.44957 3.38232 6.39488C3.38232 6.34018 3.39335 6.28604 3.41474 6.2357C3.43613 6.18535 3.46745 6.13984 3.50683 6.10188C3.59016 6.0232 3.70128 5.98077 3.81583 5.98388H13.1828C13.2974 5.98077 13.4085 6.0232 13.4918 6.10188C13.5312 6.13984 13.5625 6.18535 13.5839 6.2357C13.6053 6.28604 13.6163 6.34018 13.6163 6.39488C13.6163 6.44957 13.6053 6.50371 13.5839 6.55405C13.5625 6.6044 13.5312 6.64991 13.4918 6.68788C13.4085 6.76655 13.2974 6.80898 13.1828 6.80588H3.81583C3.70128 6.80898 3.59016 6.76655 3.50683 6.68788ZM3.50683 3.91788C3.46745 3.87991 3.43613 3.8344 3.41474 3.78405C3.39335 3.73371 3.38232 3.67957 3.38232 3.62488C3.38232 3.57018 3.39335 3.51604 3.41474 3.4657C3.43613 3.41535 3.46745 3.36984 3.50683 3.33188C3.59016 3.2532 3.70128 3.21077 3.81583 3.21388H13.1828C13.2974 3.21077 13.4085 3.2532 13.4918 3.33188C13.5312 3.36984 13.5625 3.41535 13.5839 3.4657C13.6053 3.51604 13.6163 3.57018 13.6163 3.62488C13.6163 3.67957 13.6053 3.73371 13.5839 3.78405C13.5625 3.8344 13.5312 3.87991 13.4918 3.91788C13.4085 3.99655 13.2974 4.03898 13.1828 4.03588H3.81583C3.70128 4.03898 3.59016 3.99655 3.50683 3.91788Z" fill="#7A86A1"/>
</svg>
