<svg width="20" height="20" viewBox="0 0 20 20" fill="none" xmlns="http://www.w3.org/2000/svg">
<path d="M10 19.75C8.65833 19.75 7.39542 19.4945 6.21125 18.9835C5.02708 18.4725 3.993 17.775 3.109 16.891C2.225 16.007 1.5275 14.9729 1.0165 13.7887C0.5055 12.6046 0.25 11.3416 0.25 9.99975C0.25 8.64158 0.5125 7.37083 1.0375 6.1875C1.5625 5.00417 2.275 3.97292 3.175 3.09375C4.075 2.21458 5.12917 1.52083 6.3375 1.0125C7.54583 0.504167 8.83167 0.25 10.195 0.25C11.4935 0.25 12.719 0.475 13.8715 0.925C15.0238 1.375 16.0353 1.99275 16.906 2.77825C17.7767 3.56375 18.4683 4.495 18.981 5.572C19.4937 6.649 19.75 7.80833 19.75 9.05C19.75 10.9167 19.1854 12.3458 18.0562 13.3375C16.9271 14.3292 15.5508 14.825 13.9273 14.825H12.125C11.95 14.825 11.8229 14.8729 11.7438 14.9688C11.6646 15.0646 11.625 15.175 11.625 15.3C11.625 15.5158 11.75 15.826 12 16.2305C12.25 16.6352 12.375 17.0833 12.375 17.575C12.375 18.2833 12.1708 18.8229 11.7625 19.1938C11.3542 19.5646 10.7667 19.75 10 19.75ZM4.575 10.925C4.98667 10.925 5.32708 10.7904 5.59625 10.5213C5.86542 10.2521 6 9.91167 6 9.5C6 9.08833 5.86542 8.74792 5.59625 8.47875C5.32708 8.20958 4.98667 8.075 4.575 8.075C4.16333 8.075 3.82292 8.20958 3.55375 8.47875C3.28458 8.74792 3.15 9.08833 3.15 9.5C3.15 9.91167 3.28458 10.2521 3.55375 10.5213C3.82292 10.7904 4.16333 10.925 4.575 10.925ZM7.55 6.975C7.96167 6.975 8.30208 6.84042 8.57125 6.57125C8.84042 6.30208 8.975 5.96167 8.975 5.55C8.975 5.13833 8.84042 4.79792 8.57125 4.52875C8.30208 4.25958 7.96167 4.125 7.55 4.125C7.13833 4.125 6.79792 4.25958 6.52875 4.52875C6.25958 4.79792 6.125 5.13833 6.125 5.55C6.125 5.96167 6.25958 6.30208 6.52875 6.57125C6.79792 6.84042 7.13833 6.975 7.55 6.975ZM12.475 6.975C12.8867 6.975 13.2271 6.84042 13.4962 6.57125C13.7654 6.30208 13.9 5.96167 13.9 5.55C13.9 5.13833 13.7654 4.79792 13.4962 4.52875C13.2271 4.25958 12.8867 4.125 12.475 4.125C12.0633 4.125 11.7229 4.25958 11.4538 4.52875C11.1846 4.79792 11.05 5.13833 11.05 5.55C11.05 5.96167 11.1846 6.30208 11.4538 6.57125C11.7229 6.84042 12.0633 6.975 12.475 6.975ZM15.425 10.925C15.8367 10.925 16.1771 10.7904 16.4462 10.5213C16.7154 10.2521 16.85 9.91167 16.85 9.5C16.85 9.08833 16.7154 8.74792 16.4462 8.47875C16.1771 8.20958 15.8367 8.075 15.425 8.075C15.0133 8.075 14.6729 8.20958 14.4038 8.47875C14.1346 8.74792 14 9.08833 14 9.5C14 9.91167 14.1346 10.2521 14.4038 10.5213C14.6729 10.7904 15.0133 10.925 15.425 10.925ZM10.004 17.875C10.1513 17.875 10.2708 17.8333 10.3625 17.75C10.4542 17.6667 10.5 17.5583 10.5 17.425C10.5 17.1917 10.3792 16.9125 10.1375 16.5875C9.89583 16.2625 9.775 15.7917 9.775 15.175C9.775 14.4833 10.0104 13.9396 10.4812 13.5437C10.9521 13.1479 11.5333 12.95 12.225 12.95H13.925C15.025 12.95 15.9583 12.6354 16.725 12.0063C17.4917 11.3771 17.875 10.3917 17.875 9.05C17.875 7.075 17.1146 5.42708 15.5938 4.10625C14.0729 2.78542 12.2743 2.125 10.1978 2.125C7.97425 2.125 6.07292 2.88792 4.49375 4.41375C2.91458 5.93942 2.125 7.8015 2.125 10C2.125 12.175 2.89375 14.0312 4.43125 15.5688C5.96875 17.1063 7.82633 17.875 10.004 17.875Z" fill="white"/>
</svg>
