<svg width="20" height="20" viewBox="0 0 20 20" fill="none" xmlns="http://www.w3.org/2000/svg">
<path d="M9.68118 19.5001C8.3819 19.5094 7.09469 19.2503 5.90018 18.7391C3.58254 17.7619 1.73918 15.9167 0.764176 13.5981C0.252328 12.4047 -0.0077622 11.1186 0.0001764 9.82011C-0.00589713 8.52472 0.254142 7.24188 0.764176 6.05111C1.73541 3.72837 3.57971 1.87976 5.90018 0.903111C7.09447 0.390857 8.38169 0.130759 9.68118 0.139111C10.9766 0.133037 12.2594 0.393076 13.4502 0.903111C15.7774 1.87455 17.6278 3.72427 18.6002 6.05111C19.1102 7.24188 19.3702 8.52472 19.3642 9.82011C19.3721 11.1186 19.112 12.4047 18.6002 13.5981C17.6241 15.9208 15.7746 17.7671 13.4502 18.7391C12.2592 19.2481 10.9764 19.5071 9.68118 19.5001ZM9.68118 17.8531C10.2007 17.1692 10.6559 16.4387 11.0412 15.6711C11.4112 14.9176 11.7102 14.1312 11.9342 13.3221H7.42818C7.66695 14.1535 7.97192 14.9644 8.34018 15.7471C8.70346 16.499 9.15353 17.2058 9.68118 17.8531ZM8.18118 17.6531C7.6829 17.0787 7.27245 16.4338 6.96318 15.7391C6.60252 14.9653 6.32594 14.155 6.13818 13.3221H2.44918C2.96891 14.4841 3.78141 15.4913 4.80718 16.2451C5.79257 16.993 6.95185 17.4782 8.17618 17.6551L8.18118 17.6531ZM11.1902 17.6531C12.4145 17.4762 13.5738 16.991 14.5592 16.2431C15.585 15.4893 16.3975 14.4822 16.9172 13.3201H13.2232C12.9766 14.1536 12.6691 14.9678 12.3032 15.7561C12.005 16.4304 11.6298 17.068 11.1852 17.6561L11.1902 17.6531ZM1.94718 12.0881H5.88318C5.82518 11.7154 5.78051 11.3371 5.74918 10.9531C5.71784 10.5691 5.70151 10.1914 5.70018 9.82011C5.70018 9.44878 5.71584 9.07111 5.74718 8.68711C5.77851 8.30311 5.82318 7.92478 5.88118 7.55211H1.94718C1.83069 7.89926 1.75026 8.25748 1.70718 8.62111C1.6034 9.41775 1.6034 10.2245 1.70718 11.0211C1.75026 11.3847 1.83069 11.743 1.94718 12.0901V12.0881ZM7.14718 12.0881H12.2232C12.2975 11.7195 12.3506 11.3469 12.3822 10.9721C12.4135 10.6008 12.4292 10.2168 12.4292 9.82011C12.4292 9.42344 12.4135 9.03944 12.3822 8.66811C12.3506 8.29337 12.2975 7.92075 12.2232 7.55211H7.14318C7.06881 7.92075 7.01572 8.29337 6.98418 8.66811C6.95284 9.03944 6.93718 9.42344 6.93718 9.82011C6.93718 10.2168 6.95284 10.6008 6.98418 10.9721C7.01572 11.3469 7.06881 11.7195 7.14318 12.0881H7.14718ZM13.4822 12.0881H17.4182C17.5347 11.741 17.6151 11.3827 17.6582 11.0191C17.762 10.2225 17.762 9.41574 17.6582 8.61911C17.6151 8.25548 17.5347 7.89726 17.4182 7.55011H13.4782C13.5362 7.92278 13.5808 8.30111 13.6122 8.68511C13.6435 9.06911 13.6592 9.44678 13.6592 9.81811C13.6592 10.1894 13.6435 10.5671 13.6122 10.9511C13.5808 11.3351 13.5362 11.7134 13.4782 12.0861L13.4822 12.0881ZM13.2272 6.31711H16.9162C16.4057 5.15745 15.6029 4.15024 14.5862 3.39411C13.5841 2.6515 12.4179 2.16133 11.1862 1.96511C11.6627 2.57518 12.0636 3.24068 12.3802 3.94711C12.7312 4.71054 13.0136 5.50366 13.2242 6.31711H13.2272ZM7.42718 6.31711H11.9332C11.6876 5.47896 11.3732 4.66251 10.9932 3.87611C10.6148 3.10475 10.1761 2.36445 9.68118 1.66211C9.18594 2.36442 8.74691 3.10471 8.36818 3.87611C7.98818 4.66251 7.67278 5.47896 7.42718 6.31711ZM2.44818 6.31711H6.13818C6.34872 5.50366 6.63117 4.71054 6.98218 3.94711C7.29867 3.24034 7.69959 2.57449 8.17618 1.96411C6.93986 2.15775 5.76997 2.65187 4.76918 3.40311C3.76168 4.16243 2.96241 5.16508 2.44818 6.31711Z" fill="#333"/>
</svg>
