<svg width="20" height="21" viewBox="0 0 20 21" fill="none" xmlns="http://www.w3.org/2000/svg">
<path d="M14 20.5C13.1896 20.4842 12.4179 20.1503 11.8516 19.5702C11.2854 18.9901 10.9702 18.2106 10.974 17.4V14.38C10.9668 13.5695 11.2813 12.7893 11.8486 12.2104C12.4159 11.6315 13.1896 11.3012 14 11.292H16.96C17.7709 11.3038 18.5445 11.6345 19.1134 12.2124C19.6824 12.7903 20.0009 13.569 20 14.38V17.4C20.0002 18.2109 19.6827 18.9895 19.1155 19.569C18.5483 20.1485 17.7767 20.4827 16.966 20.5H14ZM12.6 14.379V17.4C12.5964 17.779 12.7431 18.1439 13.008 18.415C13.1352 18.5475 13.2878 18.6531 13.4567 18.7254C13.6256 18.7978 13.8073 18.8354 13.991 18.836H16.972C17.1557 18.8354 17.3374 18.7978 17.5063 18.7254C17.6752 18.6531 17.8278 18.5475 17.955 18.415C18.2199 18.144 18.3663 17.7789 18.362 17.4V14.38C18.3635 14.0019 18.2162 13.6384 17.952 13.368C17.8236 13.2351 17.6698 13.1293 17.4998 13.057C17.3297 12.9847 17.1468 12.9473 16.962 12.947H14C13.6244 12.9518 13.2661 13.1053 13.0036 13.374C12.7412 13.6426 12.596 14.0044 12.6 14.38V14.379ZM3.033 20.484C2.22675 20.4583 1.46147 20.1226 0.896495 19.5469C0.331525 18.9711 0.010408 18.1996 2.96813e-06 17.393V14.38C-0.00112279 13.5628 0.318024 12.7777 0.889003 12.193C1.16831 11.9073 1.50202 11.6805 1.87043 11.5259C2.23883 11.3713 2.63448 11.2922 3.034 11.293H4.25C4.40312 11.2765 4.55777 11.3041 4.69576 11.3725C4.83376 11.4408 4.94936 11.5472 5.029 11.679C5.1104 11.8121 5.15348 11.965 5.15348 12.121C5.15348 12.277 5.1104 12.4299 5.029 12.563C4.94931 12.6948 4.83373 12.8012 4.69578 12.8698C4.55782 12.9383 4.4032 12.9661 4.25 12.95H3.035C2.65881 12.954 2.29944 13.1065 2.0353 13.3744C1.77115 13.6423 1.62366 14.0038 1.625 14.38V17.364C1.63101 17.738 1.78088 18.0952 2.04347 18.3615C2.30606 18.6278 2.66117 18.7827 3.035 18.794H6.014C6.20047 18.7949 6.38519 18.7581 6.55705 18.6857C6.72891 18.6134 6.88434 18.507 7.014 18.373C7.28005 18.1022 7.42878 17.7376 7.428 17.358V12.882C7.39798 12.7192 7.41659 12.5512 7.48151 12.399C7.54642 12.2468 7.65477 12.117 7.793 12.026C7.92986 11.9362 8.09097 11.8906 8.25459 11.8952C8.41821 11.8999 8.57647 11.9546 8.708 12.052C8.8409 12.1508 8.94174 12.2866 8.99794 12.4424C9.05414 12.5982 9.0632 12.7671 9.024 12.928V17.39C9.02849 17.7928 8.95356 18.1925 8.80349 18.5664C8.65342 18.9402 8.43115 19.2808 8.14938 19.5687C7.86762 19.8566 7.53189 20.0861 7.16137 20.2442C6.79085 20.4023 6.39281 20.4858 5.99 20.49L3.033 20.484ZM15.78 9.73801C15.5779 9.71265 15.392 9.61438 15.2572 9.46164C15.1224 9.3089 15.048 9.11219 15.048 8.90849C15.048 8.70479 15.1224 8.5081 15.2572 8.35536C15.392 8.20262 15.5779 8.10435 15.78 8.07899H16.968C17.1552 8.07786 17.3402 8.03902 17.512 7.9648C17.6838 7.89057 17.8389 7.7825 17.968 7.647C18.2307 7.36989 18.3743 7.00081 18.368 6.619V3.60001C18.3668 3.22627 18.2199 2.86775 17.9584 2.60069C17.697 2.33364 17.3416 2.17911 16.968 2.17H14C13.6249 2.17448 13.2669 2.32755 13.0044 2.59561C12.742 2.86368 12.5965 3.22488 12.6 3.60001V8.119C12.5953 8.33714 12.5052 8.54471 12.349 8.69711C12.1929 8.84951 11.9832 8.93458 11.765 8.93401C11.6577 8.93137 11.552 8.90716 11.4543 8.86284C11.3565 8.81851 11.2687 8.75497 11.196 8.67599C11.0492 8.51348 10.972 8.29983 10.981 8.08099V3.60001C10.977 2.78221 11.2941 1.99549 11.864 1.409C12.1416 1.12292 12.4735 0.895152 12.8403 0.739059C13.2071 0.582967 13.6014 0.501691 14 0.5H16.96C17.7664 0.527774 18.531 0.865587 19.0945 1.44307C19.658 2.02055 19.977 2.79318 19.985 3.60001V6.61301C19.9964 7.42879 19.6881 8.21662 19.126 8.808C18.8512 9.0972 18.5214 9.32869 18.156 9.48889C17.7906 9.64909 17.3969 9.7348 16.998 9.741L15.78 9.73801ZM6 9.709H3.035C2.22498 9.69535 1.45278 9.36383 0.885001 8.78595C0.31722 8.20807 -0.000636845 7.43013 2.96813e-06 6.62V3.60001C-0.000180825 2.78914 0.317349 2.01049 0.884513 1.43098C1.45168 0.851482 2.22332 0.517264 3.034 0.5H6C6.81131 0.514196 7.58434 0.847571 8.15152 1.42786C8.7187 2.00814 9.03434 2.78858 9.03 3.60001V6.62199C9.03371 7.43971 8.71418 8.22579 8.141 8.80901C7.86268 9.09488 7.52973 9.32186 7.16192 9.47647C6.79412 9.63108 6.39898 9.71016 6 9.709ZM2.026 2.577C1.75685 2.84871 1.60559 3.21555 1.605 3.59801V6.62C1.60118 6.81185 1.63545 7.00256 1.70582 7.18108C1.7762 7.35959 1.88129 7.52237 2.015 7.66C2.1435 7.79224 2.29704 7.89757 2.46667 7.96985C2.63629 8.04213 2.81862 8.07991 3.003 8.08099H6.003C6.1902 8.08014 6.3753 8.04143 6.54715 7.96719C6.71901 7.89295 6.87406 7.78472 7.003 7.649C7.26656 7.37241 7.41031 7.00298 7.403 6.621V3.60001C7.40257 3.22604 7.25587 2.86707 6.99426 2.59985C6.73264 2.33263 6.37687 2.17835 6.003 2.17H3.008C2.82553 2.16949 2.64478 2.20521 2.47621 2.27507C2.30764 2.34493 2.15462 2.44756 2.026 2.577Z" fill="white"/>
</svg>
