<svg width="14" height="14" viewBox="0 0 14 14" fill="none" xmlns="http://www.w3.org/2000/svg">
<path d="M6.90625 13.8125C5.9559 13.8125 5.06134 13.6315 4.22255 13.2696C3.38377 12.9076 2.65129 12.4135 2.02513 11.7874C1.39896 11.1612 0.904896 10.4287 0.542938 9.58995C0.180979 8.75116 0 7.85654 0 6.90607C0 5.94404 0.185937 5.04392 0.557813 4.20573C0.929688 3.36753 1.43438 2.63707 2.07188 2.01432C2.70937 1.39158 3.45608 0.900174 4.31198 0.540104C5.16788 0.180035 6.07868 0 7.04437 0C7.96415 0 8.83221 0.159375 9.64856 0.478125C10.4648 0.796875 11.1813 1.23445 11.798 1.79084C12.4147 2.34724 12.9047 3.00688 13.2678 3.76975C13.6309 4.53263 13.8125 5.35382 13.8125 6.23333C13.8125 7.55556 13.4126 8.56788 12.6128 9.27031C11.8129 9.97274 10.838 10.324 9.68805 10.324H8.41146C8.2875 10.324 8.19748 10.3579 8.14141 10.4258C8.08533 10.4937 8.05729 10.5719 8.05729 10.6604C8.05729 10.8133 8.14583 11.033 8.32292 11.3195C8.5 11.6062 8.58854 11.9236 8.58854 12.2719C8.58854 12.7736 8.44392 13.1558 8.15469 13.4185C7.86545 13.6812 7.44931 13.8125 6.90625 13.8125ZM3.06354 7.56146C3.35514 7.56146 3.59627 7.46613 3.78693 7.27547C3.97759 7.08481 4.07292 6.84368 4.07292 6.55208C4.07292 6.26049 3.97759 6.01936 3.78693 5.8287C3.59627 5.63804 3.35514 5.54271 3.06354 5.54271C2.77194 5.54271 2.53082 5.63804 2.34016 5.8287C2.1495 6.01936 2.05417 6.26049 2.05417 6.55208C2.05417 6.84368 2.1495 7.08481 2.34016 7.27547C2.53082 7.46613 2.77194 7.56146 3.06354 7.56146ZM5.17083 4.76354C5.46243 4.76354 5.70356 4.66821 5.89422 4.47755C6.08488 4.28689 6.18021 4.04576 6.18021 3.75417C6.18021 3.46257 6.08488 3.22144 5.89422 3.03078C5.70356 2.84012 5.46243 2.74479 5.17083 2.74479C4.87924 2.74479 4.63811 2.84012 4.44745 3.03078C4.25679 3.22144 4.16146 3.46257 4.16146 3.75417C4.16146 4.04576 4.25679 4.28689 4.44745 4.47755C4.63811 4.66821 4.87924 4.76354 5.17083 4.76354ZM8.65938 4.76354C8.95097 4.76354 9.1921 4.66821 9.38276 4.47755C9.57342 4.28689 9.66875 4.04576 9.66875 3.75417C9.66875 3.46257 9.57342 3.22144 9.38276 3.03078C9.1921 2.84012 8.95097 2.74479 8.65938 2.74479C8.36778 2.74479 8.12665 2.84012 7.93599 3.03078C7.74533 3.22144 7.65 3.46257 7.65 3.75417C7.65 4.04576 7.74533 4.28689 7.93599 4.47755C8.12665 4.66821 8.36778 4.76354 8.65938 4.76354ZM10.749 7.56146C11.0406 7.56146 11.2817 7.46613 11.4723 7.27547C11.663 7.08481 11.7583 6.84368 11.7583 6.55208C11.7583 6.26049 11.663 6.01936 11.4723 5.8287C11.2817 5.63804 11.0406 5.54271 10.749 5.54271C10.4574 5.54271 10.2162 5.63804 10.0256 5.8287C9.83491 6.01936 9.73958 6.26049 9.73958 6.55208C9.73958 6.84368 9.83491 7.08481 10.0256 7.27547C10.2162 7.46613 10.4574 7.56146 10.749 7.56146ZM6.90908 12.4844C7.01344 12.4844 7.09809 12.4549 7.16302 12.3958C7.22795 12.3368 7.26042 12.2601 7.26042 12.1656C7.26042 12.0003 7.17483 11.8026 7.00365 11.5724C6.83247 11.3422 6.74687 11.0087 6.74687 10.5719C6.74687 10.0819 6.91363 9.69679 7.24714 9.41641C7.58064 9.13602 7.99236 8.99583 8.48229 8.99583H9.68646C10.4656 8.99583 11.1267 8.773 11.6698 8.32734C12.2128 7.88168 12.4844 7.18368 12.4844 6.23333C12.4844 4.83437 11.9457 3.6671 10.8685 2.73151C9.79123 1.79592 8.51718 1.32812 7.04632 1.32812C5.47134 1.32812 4.12457 1.86852 3.00599 2.94932C1.88741 4.03 1.32812 5.34898 1.32812 6.90625C1.32812 8.44687 1.87266 9.76172 2.96172 10.8508C4.05078 11.9398 5.36657 12.4844 6.90908 12.4844Z" fill="#212529"/>
</svg>
