<svg width="20" height="17" viewBox="0 0 20 17" fill="none" xmlns="http://www.w3.org/2000/svg">
<path d="M20.0002 2.22299V14.778C20.008 15.0626 19.959 15.346 19.856 15.6114C19.753 15.8769 19.598 16.1191 19.4002 16.324C19.2093 16.5263 18.978 16.6862 18.7213 16.7933C18.4646 16.9005 18.1883 16.9525 17.9102 16.946H14.5832C14.4825 16.9468 14.3827 16.9264 14.2903 16.886C14.198 16.8457 14.1151 16.7864 14.0472 16.712C13.9027 16.5628 13.8219 16.3632 13.8219 16.1555C13.8219 15.9478 13.9027 15.7482 14.0472 15.599C14.1153 15.5248 14.1981 15.4657 14.2905 15.4256C14.3828 15.3854 14.4825 15.3651 14.5832 15.366H17.9112C17.9871 15.3684 18.0626 15.3549 18.1328 15.3263C18.2031 15.2977 18.2666 15.2547 18.3192 15.2C18.3726 15.1436 18.4142 15.0772 18.4417 15.0045C18.4691 14.9319 18.4819 14.8546 18.4792 14.777V2.22299C18.4819 2.1454 18.4691 2.06805 18.4417 1.99543C18.4142 1.92281 18.3726 1.85638 18.3192 1.79999C18.2666 1.7453 18.2031 1.70227 18.1328 1.67367C18.0626 1.64508 17.9871 1.63156 17.9112 1.63399H10.3652C10.2894 1.63156 10.2139 1.64508 10.1436 1.67367C10.0733 1.70227 10.0098 1.7453 9.95722 1.79999C9.90381 1.85635 9.86216 1.92278 9.83469 1.9954C9.80722 2.06802 9.79448 2.14539 9.79722 2.22299V2.86699C9.61255 2.73365 9.45322 2.61999 9.31922 2.52599C9.23789 2.45844 9.14151 2.41145 9.03822 2.38899C8.93856 2.39036 8.83967 2.37148 8.74754 2.33349C8.6554 2.2955 8.57194 2.23919 8.50222 2.16799C8.43216 2.10475 8.37599 2.02766 8.33726 1.94159C8.29853 1.85553 8.27808 1.76236 8.27722 1.66799V1.06299C8.26176 0.912833 8.28638 0.761264 8.34856 0.62372C8.41075 0.486176 8.50828 0.367571 8.63122 0.279988C8.98654 0.103735 9.38264 0.0260346 9.77822 0.0549875H17.9112C18.1893 0.0484834 18.4656 0.100494 18.7223 0.207647C18.979 0.3148 19.2103 0.474702 19.4012 0.676988C19.599 0.881832 19.754 1.12408 19.857 1.38954C19.96 1.655 20.008 1.93834 20.0002 2.22299ZM0.0382157 8.86699C0.0374366 8.52499 0.112936 8.18712 0.259216 7.87799C0.40156 7.57044 0.61972 7.30411 0.893216 7.10399L5.02822 4.05499C5.2063 3.92556 5.40328 3.82437 5.61222 3.75499C6.03464 3.61748 6.48979 3.61748 6.91222 3.75499C7.12178 3.82434 7.31942 3.92552 7.49822 4.05499L11.6332 7.10599C11.9063 7.30533 12.1236 7.57151 12.2642 7.87899C12.4115 8.18824 12.488 8.52644 12.4882 8.86899V16.048C12.4902 16.1656 12.4687 16.2825 12.4249 16.3917C12.3811 16.501 12.316 16.6003 12.2332 16.684C12.1554 16.7684 12.0607 16.8355 11.9552 16.881C11.8498 16.9264 11.736 16.9493 11.6212 16.948H8.42122C8.30641 16.9493 8.19261 16.9264 8.08718 16.881C7.98176 16.8355 7.88706 16.7684 7.80922 16.684C7.72648 16.6003 7.6613 16.501 7.61751 16.3917C7.57372 16.2825 7.5522 16.1656 7.55422 16.048V11.874H4.97622V16.046C4.97823 16.1636 4.95671 16.2805 4.91292 16.3897C4.86913 16.4989 4.80395 16.5983 4.72122 16.682C4.64337 16.7664 4.54867 16.8335 4.44325 16.879C4.33782 16.9245 4.22402 16.9473 4.10922 16.946H0.905216C0.790408 16.9473 0.676608 16.9245 0.571183 16.879C0.465758 16.8335 0.371059 16.7664 0.293216 16.682C0.210478 16.5983 0.145299 16.4989 0.101508 16.3897C0.0577171 16.2805 0.0361982 16.1636 0.0382157 16.046V8.86699ZM1.55922 8.88599V14.778C1.55653 14.8556 1.5693 14.9329 1.59677 15.0055C1.62423 15.0782 1.66586 15.1446 1.71922 15.201C1.77181 15.2557 1.83531 15.2987 1.90559 15.3273C1.97587 15.3559 2.05138 15.3694 2.12722 15.367H3.25622C3.33205 15.3694 3.40756 15.3559 3.47784 15.3273C3.54812 15.2987 3.61162 15.2557 3.66422 15.201C3.71758 15.1446 3.7592 15.0782 3.78667 15.0055C3.81413 14.9329 3.8269 14.8556 3.82422 14.778V11.025C3.82233 10.9791 3.82957 10.9332 3.84554 10.8902C3.8615 10.8471 3.88587 10.8076 3.91722 10.774C3.94826 10.7412 3.98586 10.7154 4.02756 10.6982C4.06925 10.681 4.11412 10.6727 4.15922 10.674H8.36522C8.41032 10.6727 8.45518 10.681 8.49688 10.6982C8.53857 10.7154 8.57617 10.7412 8.60722 10.774C8.63856 10.8076 8.66293 10.8471 8.67889 10.8902C8.69486 10.9332 8.7021 10.9791 8.70022 11.025V14.777C8.69753 14.8546 8.7103 14.9319 8.73777 15.0045C8.76523 15.0772 8.80685 15.1436 8.86022 15.2C8.91281 15.2547 8.97631 15.2977 9.04659 15.3263C9.11687 15.3549 9.19238 15.3684 9.26822 15.366H10.3972C10.4731 15.3684 10.5486 15.3549 10.6188 15.3263C10.6891 15.2977 10.7526 15.2547 10.8052 15.2C10.8586 15.1436 10.9002 15.0772 10.9277 15.0045C10.9551 14.9319 10.9679 14.8546 10.9652 14.777V8.88599C10.9658 8.79047 10.9446 8.69608 10.9032 8.60999C10.8604 8.52209 10.7965 8.44617 10.7172 8.38899L6.58122 5.40299C6.49019 5.33121 6.37764 5.29217 6.26172 5.29217C6.14579 5.29217 6.03324 5.33121 5.94222 5.40299L1.80822 8.38899C1.72892 8.44617 1.66502 8.52209 1.62222 8.60999C1.58083 8.69608 1.55862 8.79047 1.55922 8.88599ZM15.1152 5.31599C15.0644 5.26582 15.0242 5.20601 14.9969 5.14006C14.9696 5.07411 14.9558 5.00336 14.9562 4.93199V3.90899C14.9551 3.83944 14.9687 3.77044 14.9961 3.70651C15.0235 3.64257 15.0641 3.58515 15.1152 3.53799C15.1637 3.48935 15.2214 3.45085 15.2849 3.42475C15.3484 3.39866 15.4165 3.38548 15.4852 3.38599H16.4712C16.5382 3.38475 16.6047 3.39765 16.6664 3.42384C16.7281 3.45003 16.7836 3.48893 16.8292 3.53799C16.877 3.58699 16.9146 3.64505 16.9397 3.70875C16.9647 3.77246 16.9768 3.84054 16.9752 3.90899V4.93199C16.9771 5.07388 16.9249 5.21116 16.8292 5.31599C16.7855 5.3683 16.7307 5.41024 16.6688 5.43878C16.6069 5.46731 16.5394 5.48173 16.4712 5.48099H15.4852C15.4156 5.48068 15.3468 5.46585 15.2833 5.43744C15.2198 5.40903 15.1628 5.36766 15.1162 5.31599H15.1152ZM15.1152 9.38299C15.0644 9.33282 15.0242 9.27301 14.9969 9.20706C14.9696 9.14111 14.9558 9.07036 14.9562 8.99899V7.97599C14.9551 7.90644 14.9687 7.83744 14.9961 7.77351C15.0235 7.70957 15.0641 7.65215 15.1152 7.60499C15.1637 7.55635 15.2214 7.51785 15.2849 7.49175C15.3484 7.46566 15.4165 7.45248 15.4852 7.45299H16.4712C16.5382 7.45175 16.6047 7.46465 16.6664 7.49084C16.7281 7.51703 16.7836 7.55593 16.8292 7.60499C16.877 7.65399 16.9146 7.71205 16.9397 7.77575C16.9647 7.83946 16.9768 7.90754 16.9752 7.97599V8.99899C16.9771 9.14088 16.9249 9.27816 16.8292 9.38299C16.7855 9.4353 16.7307 9.47724 16.6688 9.50578C16.6069 9.53432 16.5394 9.54873 16.4712 9.54799H15.4852C15.4156 9.54768 15.3468 9.53285 15.2833 9.50444C15.2198 9.47603 15.1628 9.43466 15.1162 9.38299H15.1152ZM15.1152 13.45C15.0644 13.3998 15.0242 13.34 14.9969 13.2741C14.9696 13.2081 14.9558 13.1374 14.9562 13.066V12.043C14.9551 11.9734 14.9687 11.9044 14.9961 11.8405C15.0235 11.7766 15.0641 11.7191 15.1152 11.672C15.1637 11.6233 15.2214 11.5849 15.2849 11.5588C15.3484 11.5327 15.4165 11.5195 15.4852 11.52H16.4712C16.5382 11.5188 16.6047 11.5317 16.6664 11.5578C16.7281 11.584 16.7836 11.6229 16.8292 11.672C16.877 11.721 16.9146 11.779 16.9397 11.8428C16.9647 11.9065 16.9768 11.9745 16.9752 12.043V13.066C16.9771 13.2079 16.9249 13.3452 16.8292 13.45C16.7855 13.5023 16.7307 13.5442 16.6688 13.5728C16.6069 13.6013 16.5394 13.6157 16.4712 13.615H15.4852C15.416 13.6153 15.3474 13.6013 15.2839 13.5737C15.2204 13.5462 15.1633 13.5058 15.1162 13.455L15.1152 13.45Z" fill="#333"/>
</svg>
