<svg width="19" height="13" viewBox="0 0 19 13" fill="none" xmlns="http://www.w3.org/2000/svg">
<path d="M0 11.0726C0 10.6102 0.120874 10.2173 0.362622 9.89368C0.60437 9.5701 0.928714 9.31357 1.33565 9.12412C2.15143 8.75556 2.97826 8.46361 3.81615 8.24829C4.6542 8.03296 5.64535 7.9253 6.78961 7.9253C7.92878 7.9253 8.91499 8.03296 9.74822 8.24829C10.5815 8.46361 11.4059 8.75556 12.2215 9.12412C12.6286 9.31357 12.953 9.5701 13.1948 9.89368C13.4365 10.2173 13.5574 10.6102 13.5574 11.0726V11.6559C13.5574 12.0181 13.4193 12.3327 13.1432 12.5996C12.8673 12.8665 12.5138 13 12.0829 13H1.47428C1.04333 13 0.689877 12.8742 0.413926 12.6225C0.137975 12.3709 0 12.0487 0 11.6559V11.0726ZM17.5257 13H14.8688C15.0155 12.8071 15.1247 12.5973 15.1963 12.3707C15.268 12.1441 15.3039 11.9059 15.3039 11.6559V11.195C15.3039 10.7602 15.2015 10.2352 14.9965 9.62005C14.7917 9.00485 14.4139 8.50421 13.863 8.11813C14.5538 8.18447 15.1998 8.30487 15.801 8.47933C16.4021 8.65393 16.977 8.86926 17.5257 9.12531C18.006 9.33865 18.3718 9.61375 18.6232 9.9506C18.8744 10.2876 19 10.6228 19 10.9562V11.6559C19 12.0487 18.862 12.3709 18.5861 12.6225C18.3101 12.8742 17.9567 13 17.5257 13ZM6.76778 5.89064C5.87924 5.89064 5.11855 5.60227 4.48573 5.02555C3.85305 4.44869 3.53671 3.75528 3.53671 2.94532C3.53671 2.13536 3.85305 1.44201 4.48573 0.865287C5.11855 0.288429 5.87924 0 6.76778 0C7.65633 0 8.41694 0.288429 9.04961 0.865287C9.68244 1.44201 9.99885 2.13536 9.99885 2.94532C9.99885 3.75528 9.68244 4.44869 9.04961 5.02555C8.41694 5.60227 7.65633 5.89064 6.76778 5.89064ZM14.9714 2.94532C14.9714 3.75528 14.655 4.44869 14.0222 5.02555C13.3895 5.60227 12.6289 5.89064 11.7404 5.89064C11.6452 5.89064 11.5035 5.88022 11.3153 5.85939C11.1273 5.83843 10.9856 5.81011 10.8905 5.77442C11.2155 5.36446 11.4573 4.91941 11.6161 4.43927C11.7751 3.95913 11.8545 3.46055 11.8545 2.94353C11.8545 2.4265 11.7714 1.9317 11.605 1.45913C11.4388 0.986549 11.2006 0.53898 10.8905 0.116419C11.0248 0.0746275 11.1664 0.0447763 11.3153 0.0268656C11.4642 0.00895488 11.6059 0 11.7404 0C12.6289 0 13.3895 0.288429 14.0222 0.865287C14.655 1.44201 14.9714 2.13536 14.9714 2.94532ZM1.44088 11.6865H12.1165V11.0726C12.1165 10.8858 12.0798 10.7358 12.0065 10.6225C11.9331 10.5093 11.7856 10.4021 11.564 10.3011C10.8978 9.9837 10.1672 9.72731 9.37228 9.53189C8.57747 9.33646 7.71294 9.23875 6.7787 9.23875C5.84431 9.23875 4.9797 9.33646 4.18489 9.53189C3.38993 9.72731 2.65937 9.9837 1.99322 10.3011C1.77156 10.4021 1.62405 10.5093 1.5507 10.6225C1.47749 10.7358 1.44088 10.8858 1.44088 11.0726V11.6865ZM6.7704 4.57718C7.2635 4.57718 7.68471 4.41718 8.03401 4.09718C8.38332 3.77717 8.55797 3.39242 8.55797 2.94293C8.55797 2.49344 8.38237 2.10949 8.03117 1.79107C7.68012 1.47266 7.25804 1.31345 6.76494 1.31345C6.27199 1.31345 5.85086 1.47352 5.50155 1.79366C5.15225 2.11366 4.97759 2.49841 4.97759 2.94791C4.97759 3.39727 5.15312 3.78115 5.50417 4.09957C5.85522 4.41798 6.2773 4.57718 6.7704 4.57718Z" fill="#212529"/>
</svg>
