<svg width="40" height="47" viewBox="0 0 40 47" fill="none" xmlns="http://www.w3.org/2000/svg">
<path d="M19.9997 43.7375L12.708 46.1584C12.4747 46.2361 12.2413 46.2945 12.008 46.3334C11.7747 46.3723 11.5487 46.3917 11.3302 46.3917C10.1655 46.3917 9.14637 45.9806 8.27292 45.1585C7.39909 44.3364 6.96217 43.2858 6.96217 42.0068V30.0584L0.691341 19.9084C0.477452 19.5584 0.312174 19.1887 0.195508 18.7994C0.0788411 18.4102 0.0205078 18.0118 0.0205078 17.6042C0.0205078 17.1966 0.0788411 16.7982 0.195508 16.4089C0.312174 16.0197 0.477452 15.65 0.691341 15.3L8.36217 2.87503C8.76701 2.22092 9.30095 1.71226 9.96401 1.34903C10.6267 0.985812 11.3372 0.804199 12.0955 0.804199H27.9038C28.6703 0.804199 29.3822 0.98406 30.0394 1.34378C30.6963 1.7035 31.2288 2.21392 31.6372 2.87503L39.308 15.3C39.5219 15.65 39.6872 16.0197 39.8038 16.4089C39.9205 16.7982 39.9788 17.1966 39.9788 17.6042C39.9788 18.0118 39.9205 18.4102 39.8038 18.7994C39.6872 19.1887 39.5219 19.5584 39.308 19.9084L33.0372 30.0584V42.0068C33.0372 43.2858 32.6003 44.3364 31.7264 45.1585C30.853 45.9806 29.8339 46.3917 28.6692 46.3917C28.4506 46.3917 28.2247 46.3723 27.9913 46.3334C27.758 46.2945 27.5247 46.2361 27.2913 46.1584L19.9997 43.7375ZM19.9997 39.1292L28.6622 41.9875V34.4042H11.3372V41.9875L19.9997 39.1292ZM12.0663 30.0292H27.933L35.6038 17.6042L27.933 5.1792H12.0663L4.39551 17.6042L12.0663 30.0292ZM17.5497 20.7542L25.8913 12.3834C26.3191 11.9361 26.8247 11.7174 27.408 11.7271C27.9913 11.7368 28.5066 11.9463 28.9538 12.3554C29.4011 12.8018 29.6295 13.3216 29.6393 13.9146C29.649 14.5077 29.4302 15.0278 28.983 15.475L19.0955 25.3917C18.6553 25.8389 18.1418 26.0625 17.5549 26.0625C16.9681 26.0625 16.4511 25.8389 16.0038 25.3917L11.0455 20.4625C10.5983 20.0153 10.3747 19.4952 10.3747 18.9021C10.3747 18.3091 10.5983 17.7889 11.0455 17.3417C11.4927 16.8945 12.0129 16.6709 12.6059 16.6709C13.199 16.6709 13.7191 16.8945 14.1663 17.3417L17.5497 20.7542ZM19.9997 34.4042H11.3372H28.6622H19.9997Z" fill="#242731"/>
</svg>
