<svg width="16" height="19" viewBox="0 0 16 19" fill="none" xmlns="http://www.w3.org/2000/svg">
<path d="M4.32899 14.514C4.24124 14.4385 4.17112 14.3446 4.1236 14.239C4.07609 14.1335 4.05233 14.0187 4.05399 13.903C4.05215 13.7878 4.07586 13.6736 4.12341 13.5686C4.17096 13.4637 4.24117 13.3706 4.32899 13.296C4.51709 13.1309 4.76084 13.0433 5.01099 13.051H11.011C11.2618 13.0435 11.506 13.1326 11.693 13.3C11.7808 13.3755 11.8509 13.4693 11.8984 13.5749C11.9459 13.6805 11.9697 13.7952 11.968 13.911C11.9698 14.0262 11.9461 14.1404 11.8986 14.2453C11.851 14.3503 11.7808 14.4434 11.693 14.518C11.5049 14.6831 11.2612 14.7706 11.011 14.763H5.01099C4.76015 14.7705 4.51601 14.6813 4.32899 14.514ZM4.32899 10.878C4.24124 10.8025 4.17112 10.7086 4.1236 10.603C4.07609 10.4975 4.05233 10.3827 4.05399 10.267C4.05215 10.1518 4.07586 10.0376 4.12341 9.93263C4.17096 9.82768 4.24117 9.73456 4.32899 9.65998C4.51633 9.49559 4.75886 9.40808 5.00799 9.41498H10.987C11.2378 9.4075 11.482 9.49663 11.669 9.66398C11.7568 9.73949 11.8269 9.83335 11.8744 9.93892C11.9219 10.0445 11.9457 10.1592 11.944 10.275C11.9458 10.3902 11.9221 10.5044 11.8746 10.6093C11.827 10.7143 11.7568 10.8074 11.669 10.882C11.4809 11.0471 11.2372 11.1346 10.987 11.127H5.00799C4.75818 11.1337 4.51525 11.0446 4.32899 10.878ZM2.45899 18.314C1.84591 18.329 1.25016 18.1098 0.792995 17.701C0.57607 17.5182 0.402188 17.2898 0.283774 17.0321C0.165361 16.7743 0.105338 16.4936 0.107995 16.21V2.78798C0.105928 2.50502 0.166235 2.22508 0.284629 1.96807C0.403022 1.71106 0.576592 1.4833 0.792995 1.30098C1.25016 0.892196 1.84591 0.67299 2.45899 0.687977H8.887C9.19849 0.687121 9.50754 0.743034 9.799 0.852977C10.0794 0.95619 10.3379 1.11122 10.561 1.30998L15.198 5.43498C15.413 5.6247 15.5869 5.85647 15.709 6.11598C15.8305 6.37083 15.8933 6.64965 15.893 6.93198V16.21C15.8955 16.4934 15.8354 16.774 15.717 17.0315C15.5986 17.2891 15.4248 17.5173 15.208 17.7C14.7508 18.1088 14.1551 18.328 13.542 18.313L2.45899 18.314ZM8.859 5.92598V2.52798H2.45899C2.38445 2.52951 2.31316 2.55874 2.25899 2.60998C2.23136 2.63159 2.20881 2.659 2.19291 2.69027C2.17702 2.72154 2.16817 2.75592 2.16699 2.79098V16.211C2.16817 16.246 2.17702 16.2804 2.19291 16.3117C2.20881 16.343 2.23136 16.3704 2.25899 16.392C2.31316 16.4432 2.38445 16.4724 2.45899 16.474H13.542C13.6165 16.4724 13.6878 16.4432 13.742 16.392C13.7696 16.3704 13.7922 16.343 13.8081 16.3117C13.824 16.2804 13.8328 16.246 13.834 16.211V6.97698H10.034C9.72969 6.9831 9.43443 6.87336 9.208 6.66998C9.09945 6.57875 9.01242 6.46466 8.95312 6.33586C8.89383 6.20707 8.86373 6.06676 8.865 5.92498L8.859 5.92598Z" fill="#333"/>
</svg>
