<svg width="35" height="18" viewBox="0 0 35 18" fill="none" xmlns="http://www.w3.org/2000/svg">
<path d="M2.19671 17.394C1.82766 17.394 1.51218 17.263 1.25028 17.0011C0.988374 16.7392 0.857422 16.4237 0.857422 16.0547V15.2393C0.857422 14.2234 1.37528 13.4059 2.41099 12.7868C3.44671 12.1678 4.80385 11.8583 6.48242 11.8583C6.83956 11.8583 7.16992 11.8672 7.47349 11.885C7.77707 11.9029 8.0598 11.9352 8.32171 11.9818C8.00028 12.4709 7.76218 12.9791 7.60742 13.5065C7.45266 14.0341 7.37528 14.5846 7.37528 15.1579V17.394H2.19671ZM10.7681 17.394C10.3991 17.394 10.0836 17.263 9.82171 17.0011C9.5598 16.7392 9.42885 16.4237 9.42885 16.0547V15.1618C9.42885 14.4237 9.63123 13.7422 10.036 13.1172C10.4408 12.4922 11.0241 11.9475 11.786 11.4833C12.5479 11.019 13.4521 10.6678 14.4985 10.4297C15.5449 10.1916 16.6796 10.0725 17.9024 10.0725C19.1486 10.0725 20.2949 10.1916 21.3414 10.4297C22.3878 10.6678 23.2919 11.019 24.0539 11.4833C24.8158 11.9475 25.3961 12.4896 25.7949 13.1093C26.1937 13.7291 26.3931 14.4133 26.3931 15.1618V16.0547C26.3931 16.4237 26.2622 16.7392 26.0003 17.0011C25.7384 17.263 25.4229 17.394 25.0539 17.394H10.7681ZM28.4467 17.394V15.1618C28.4467 14.5785 28.3723 14.0219 28.2235 13.4922C28.0747 12.9624 27.8515 12.4594 27.5539 11.9833C27.8158 11.9356 28.0925 11.9029 28.3842 11.885C28.6759 11.8672 28.9943 11.8583 29.3396 11.8583C31.0181 11.8583 32.3753 12.1656 33.411 12.7804C34.4467 13.3949 34.9646 14.2125 34.9646 15.2333V16.0547C34.9646 16.4237 34.8336 16.7392 34.5717 17.0011C34.3098 17.263 33.9943 17.394 33.6253 17.394H28.4467ZM12.2503 14.7154H23.6074C23.3931 14.1678 22.7384 13.7035 21.6431 13.3225C20.5479 12.9416 19.3068 12.7511 17.9199 12.7511C16.533 12.7511 15.2919 12.9416 14.1967 13.3225C13.1015 13.7035 12.4527 14.1678 12.2503 14.7154ZM6.48171 10.2511C5.72028 10.2511 5.06873 9.97993 4.52706 9.43754C3.9854 8.89516 3.71456 8.24326 3.71456 7.48183C3.71456 6.69707 3.98576 6.03981 4.52814 5.51004C5.07052 4.98028 5.72242 4.7154 6.48385 4.7154C7.26861 4.7154 7.92587 4.98076 8.45564 5.51147C8.9854 6.04219 9.25028 6.69969 9.25028 7.48397C9.25028 8.2454 8.98492 8.89695 8.45421 9.43862C7.92349 9.98028 7.26599 10.2511 6.48171 10.2511ZM29.3389 10.2511C28.5774 10.2511 27.9259 9.97993 27.3842 9.43754C26.8425 8.89516 26.5717 8.24326 26.5717 7.48183C26.5717 6.69707 26.8429 6.03981 27.3853 5.51004C27.9277 4.98028 28.5796 4.7154 29.341 4.7154C30.1258 4.7154 30.783 4.98076 31.3128 5.51147C31.8425 6.04219 32.1074 6.69969 32.1074 7.48397C32.1074 8.2454 31.8421 8.89695 31.3114 9.43862C30.7806 9.98028 30.1231 10.2511 29.3389 10.2511ZM17.9024 8.82254C16.7415 8.82254 15.7533 8.41457 14.9378 7.59862C14.1223 6.78266 13.7146 5.79183 13.7146 4.62612C13.7146 3.44754 14.1225 2.4535 14.9385 1.64397C15.7544 0.834449 16.7453 0.429688 17.911 0.429688C19.0896 0.429688 20.0836 0.834449 20.8931 1.64397C21.7027 2.4535 22.1074 3.4504 22.1074 4.63469C22.1074 5.79564 21.7027 6.78385 20.8931 7.59933C20.0836 8.41481 19.0867 8.82254 17.9024 8.82254ZM17.9199 6.14397C18.3425 6.14397 18.6997 5.99516 18.9914 5.69754C19.283 5.39993 19.4289 5.03981 19.4289 4.61719C19.4289 4.19457 19.2834 3.83743 18.9924 3.54576C18.7015 3.25409 18.341 3.10826 17.911 3.10826C17.4943 3.10826 17.1372 3.25373 16.8396 3.54469C16.5419 3.83564 16.3931 4.19612 16.3931 4.62612C16.3931 5.04278 16.5419 5.39993 16.8396 5.69754C17.1372 5.99516 17.4973 6.14397 17.9199 6.14397Z" fill="#212529"/>
</svg>
