<svg width="19" height="17" viewBox="0 0 19 17" fill="none" xmlns="http://www.w3.org/2000/svg">
<path d="M2.20016 16.028C1.90848 16.0347 1.61858 15.9807 1.34884 15.8695C1.0791 15.7583 0.835394 15.5923 0.633161 15.382C0.426412 15.1746 0.263752 14.9276 0.154969 14.6557C0.0461852 14.3838 -0.0064735 14.0928 0.000161149 13.8V2.91102C-0.00701721 2.61759 0.0453766 2.32576 0.154176 2.05317C0.262975 1.78057 0.42592 1.53286 0.633161 1.32502C0.835654 1.11526 1.07948 0.949802 1.3492 0.839122C1.61893 0.728443 1.90869 0.674946 2.20016 0.682016H5.62216C5.91787 0.68191 6.21037 0.743203 6.48116 0.862016C6.75047 0.976031 6.99476 1.14184 7.20016 1.35002L9.10916 3.28902H16.8092C17.1 3.2825 17.389 3.33627 17.658 3.44693C17.927 3.5576 18.1701 3.72276 18.3722 3.93202C18.5785 4.14028 18.7405 4.38817 18.8485 4.66075C18.9564 4.93333 19.008 5.22495 19.0002 5.51802V13.8C19.0073 14.0934 18.9549 14.3853 18.8461 14.6579C18.7373 14.9305 18.5744 15.1782 18.3672 15.386C18.1651 15.5953 17.922 15.7604 17.653 15.8711C17.384 15.9818 17.095 16.0355 16.8042 16.029L2.20016 16.028ZM2.20016 14.405H16.8002C16.8795 14.4077 16.9586 14.394 17.0324 14.3648C17.1062 14.3355 17.1732 14.2913 17.2292 14.235C17.2848 14.1774 17.3283 14.1092 17.3571 14.0345C17.386 13.9598 17.3996 13.8801 17.3972 13.8V5.51802C17.3996 5.43797 17.386 5.35824 17.3571 5.28353C17.3283 5.20882 17.2848 5.14064 17.2292 5.08302C17.1732 5.02669 17.1062 4.98251 17.0324 4.95326C16.9586 4.92401 16.8795 4.91031 16.8002 4.91302H8.45216L6.05216 2.47602C5.99622 2.41759 5.92787 2.37248 5.85216 2.34402C5.78365 2.31874 5.71118 2.30588 5.63816 2.30602H2.20016C2.12081 2.30331 2.04174 2.31701 1.96793 2.34626C1.89411 2.37551 1.82712 2.41969 1.77116 2.47602C1.71554 2.53364 1.67203 2.60182 1.64317 2.67653C1.61432 2.75124 1.60072 2.83097 1.60316 2.91102V13.8C1.60072 13.8801 1.61432 13.9598 1.64317 14.0345C1.67203 14.1092 1.71554 14.1774 1.77116 14.235C1.82712 14.2913 1.89411 14.3355 1.96793 14.3648C2.04174 14.394 2.12081 14.4077 2.20016 14.405ZM10.4492 10.47C10.3438 10.4712 10.2392 10.4506 10.1422 10.4095C10.0451 10.3684 9.95759 10.3076 9.88516 10.231C9.7339 10.0789 9.649 9.87305 9.649 9.65852C9.649 9.44398 9.7339 9.23816 9.88516 9.08602C9.95759 9.00942 10.0451 8.94865 10.1422 8.90752C10.2392 8.86639 10.3438 8.84579 10.4492 8.84702H11.6372V7.64202C11.6358 7.53567 11.656 7.43016 11.6966 7.33185C11.7371 7.23354 11.7972 7.14447 11.8732 7.07002C11.9463 6.99429 12.0339 6.93406 12.1308 6.89292C12.2277 6.85179 12.3319 6.83059 12.4372 6.83059C12.5424 6.83059 12.6466 6.85179 12.7435 6.89292C12.8404 6.93406 12.928 6.99429 13.0012 7.07002C13.0771 7.14447 13.1372 7.23354 13.1777 7.33185C13.2183 7.43016 13.2385 7.53567 13.2372 7.64202V8.84702H14.4202C14.5256 8.84579 14.6301 8.86639 14.7272 8.90752C14.8242 8.94865 14.9117 9.00942 14.9842 9.08602C15.1354 9.23816 15.2203 9.44398 15.2203 9.65852C15.2203 9.87305 15.1354 10.0789 14.9842 10.231C14.9117 10.3076 14.8242 10.3684 14.7272 10.4095C14.6301 10.4506 14.5256 10.4712 14.4202 10.47H13.2322V11.675C13.2335 11.7814 13.2133 11.8869 13.1727 11.9852C13.1322 12.0835 13.0721 12.1726 12.9962 12.247C12.923 12.3227 12.8354 12.383 12.7385 12.4241C12.6416 12.4652 12.5374 12.4864 12.4322 12.4864C12.3269 12.4864 12.2227 12.4652 12.1258 12.4241C12.0289 12.383 11.9413 12.3227 11.8682 12.247C11.7922 12.1726 11.7321 12.0835 11.6916 11.9852C11.651 11.8869 11.6308 11.7814 11.6322 11.675V10.47H10.4492Z" fill="#7A86A1"/>
</svg>
