<svg width="18" height="17" viewBox="0 0 18 17" fill="none" xmlns="http://www.w3.org/2000/svg">
<path d="M7.6329 15.249C7.50181 15.2501 7.37191 15.2241 7.25141 15.1724C7.13092 15.1208 7.02246 15.0447 6.9329 14.949C6.7462 14.7588 6.64159 14.5029 6.64159 14.2365C6.64159 13.97 6.7462 13.7141 6.9329 13.524C7.0225 13.4283 7.13096 13.3522 7.25145 13.3006C7.37194 13.2489 7.50182 13.2228 7.6329 13.224H16.5729C16.704 13.2228 16.8339 13.2488 16.9544 13.3005C17.0749 13.3521 17.1833 13.4282 17.2729 13.524C17.4596 13.7141 17.5642 13.97 17.5642 14.2365C17.5642 14.5029 17.4596 14.7588 17.2729 14.949C17.1833 15.0447 17.0749 15.1208 16.9544 15.1724C16.8339 15.2241 16.704 15.2501 16.5729 15.249H7.6329ZM7.6329 9.47995C7.50181 9.48112 7.37191 9.45506 7.25141 9.40342C7.13092 9.35178 7.02246 9.27569 6.9329 9.17995C6.7462 8.98979 6.64159 8.73395 6.64159 8.46746C6.64159 8.20096 6.7462 7.94512 6.9329 7.75496C7.0225 7.65927 7.13096 7.58321 7.25145 7.53157C7.37194 7.47994 7.50182 7.45385 7.6329 7.45496H16.5729C16.704 7.45379 16.8339 7.47985 16.9544 7.53149C17.0749 7.58313 17.1833 7.65922 17.2729 7.75496C17.4596 7.94512 17.5642 8.20096 17.5642 8.46746C17.5642 8.73395 17.4596 8.98979 17.2729 9.17995C17.1833 9.27569 17.0749 9.35178 16.9544 9.40342C16.8339 9.45506 16.704 9.48112 16.5729 9.47995H7.6329ZM7.6329 3.75796C7.50181 3.75912 7.37191 3.73306 7.25141 3.68142C7.13092 3.62978 7.02246 3.55369 6.9329 3.45796C6.83888 3.36504 6.76464 3.25406 6.71463 3.1317C6.66462 3.00934 6.63988 2.87813 6.6419 2.74596C6.6409 2.61512 6.66614 2.48541 6.71612 2.36449C6.7661 2.24357 6.83981 2.1339 6.9329 2.04196C7.02311 1.94754 7.13185 1.87278 7.2523 1.82236C7.37276 1.77194 7.50233 1.74695 7.6329 1.74896H16.5729C16.704 1.74779 16.8339 1.77385 16.9544 1.82549C17.0749 1.87713 17.1833 1.95322 17.2729 2.04896C17.3669 2.14187 17.4412 2.25285 17.4912 2.37521C17.5412 2.49757 17.5659 2.62879 17.5639 2.76096C17.566 2.89314 17.5413 3.02439 17.4913 3.14676C17.4413 3.26914 17.367 3.38011 17.2729 3.47296C17.1833 3.56869 17.0749 3.64478 16.9544 3.69642C16.8339 3.74806 16.704 3.77412 16.5729 3.77296L7.6329 3.75796ZM2.4029 16.249C2.14265 16.2525 1.88451 16.2019 1.64487 16.1003C1.40523 15.9987 1.18934 15.8484 1.0109 15.659C0.639928 15.2806 0.432129 14.7718 0.432129 14.242C0.432129 13.7121 0.639928 13.2033 1.0109 12.825C1.19043 12.6363 1.40702 12.4867 1.64708 12.3857C1.88714 12.2847 2.14548 12.2344 2.4059 12.238C2.66614 12.2345 2.92427 12.2851 3.16389 12.3867C3.40352 12.4883 3.61942 12.6385 3.7979 12.828C4.16887 13.2063 4.37667 13.7151 4.37667 14.245C4.37667 14.7748 4.16887 15.2836 3.7979 15.662C3.61833 15.8506 3.40174 16.0001 3.16169 16.1011C2.92164 16.2021 2.66331 16.2524 2.4029 16.249ZM2.4029 10.48C2.14265 10.4835 1.88451 10.4329 1.64487 10.3313C1.40523 10.2297 1.18934 10.0794 1.0109 9.88995C0.639928 9.51159 0.432129 9.00284 0.432129 8.47296C0.432129 7.94307 0.639928 7.43432 1.0109 7.05596C1.19043 6.86728 1.40702 6.71774 1.64708 6.61672C1.88714 6.51571 2.14548 6.4654 2.4059 6.46896C2.66614 6.46547 2.92427 6.51612 3.16389 6.61769C3.40352 6.71926 3.61942 6.86952 3.7979 7.05896C4.16887 7.43732 4.37667 7.94607 4.37667 8.47596C4.37667 9.00584 4.16887 9.51459 3.7979 9.89295C3.61776 10.0822 3.40035 10.2321 3.15939 10.3331C2.91843 10.4341 2.65915 10.4841 2.3979 10.48H2.4029ZM2.4029 4.75796C2.14265 4.7615 1.88451 4.71087 1.64487 4.6093C1.40523 4.50773 1.18934 4.35744 1.0109 4.16796C0.823969 3.98254 0.676416 3.76128 0.577094 3.51744C0.477772 3.2736 0.428726 3.01221 0.4329 2.74896C0.428992 2.48645 0.478377 2.22588 0.57807 1.98301C0.677762 1.74014 0.825689 1.52001 1.0129 1.33596C1.19243 1.14728 1.40902 0.997737 1.64908 0.896724C1.88914 0.79571 2.14748 0.745402 2.4079 0.748955C2.66814 0.745475 2.92627 0.796124 3.16589 0.897691C3.40552 0.999258 3.62142 1.14952 3.7999 1.33896C3.98683 1.52437 4.13438 1.74563 4.23371 1.98947C4.33303 2.23331 4.38207 2.4947 4.3779 2.75796C4.38222 3.02096 4.33303 3.28211 4.23332 3.52552C4.13362 3.76894 3.98548 3.98955 3.7979 4.17396C3.61833 4.36259 3.40174 4.51209 3.16169 4.6131C2.92164 4.71411 2.66331 4.76445 2.4029 4.76096V4.75796Z" fill="#333"/>
</svg>
