<svg width="18" height="17" viewBox="0 0 18 17" fill="none" xmlns="http://www.w3.org/2000/svg">
<path d="M7.6329 15.249C7.50181 15.2502 7.37191 15.2241 7.25141 15.1725C7.13092 15.1208 7.02246 15.0447 6.9329 14.949C6.7462 14.7588 6.64159 14.503 6.64159 14.2365C6.64159 13.97 6.7462 13.7141 6.9329 13.524C7.0225 13.4283 7.13096 13.3522 7.25145 13.3006C7.37194 13.249 7.50182 13.2229 7.6329 13.224H16.5729C16.704 13.2228 16.8339 13.2489 16.9544 13.3005C17.0749 13.3522 17.1833 13.4283 17.2729 13.524C17.4596 13.7141 17.5642 13.97 17.5642 14.2365C17.5642 14.503 17.4596 14.7588 17.2729 14.949C17.1833 15.0447 17.0749 15.1208 16.9544 15.1725C16.8339 15.2241 16.704 15.2502 16.5729 15.249H7.6329ZM7.6329 9.47999C7.50181 9.48115 7.37191 9.45509 7.25141 9.40345C7.13092 9.35181 7.02246 9.27572 6.9329 9.17999C6.7462 8.98983 6.64159 8.73398 6.64159 8.46749C6.64159 8.20099 6.7462 7.94515 6.9329 7.75499C7.0225 7.6593 7.13096 7.58324 7.25145 7.5316C7.37194 7.47997 7.50182 7.45388 7.6329 7.45499H16.5729C16.704 7.45382 16.8339 7.47988 16.9544 7.53152C17.0749 7.58316 17.1833 7.65925 17.2729 7.75499C17.4596 7.94515 17.5642 8.20099 17.5642 8.46749C17.5642 8.73398 17.4596 8.98983 17.2729 9.17999C17.1833 9.27572 17.0749 9.35181 16.9544 9.40345C16.8339 9.45509 16.704 9.48115 16.5729 9.47999H7.6329ZM7.6329 3.75799C7.50181 3.75915 7.37191 3.73309 7.25141 3.68145C7.13092 3.62981 7.02246 3.55372 6.9329 3.45799C6.83888 3.36507 6.76464 3.25409 6.71463 3.13173C6.66462 3.00937 6.63988 2.87816 6.6419 2.74599C6.6409 2.61515 6.66614 2.48544 6.71612 2.36452C6.7661 2.2436 6.83981 2.13393 6.9329 2.04199C7.02311 1.94757 7.13185 1.87281 7.2523 1.82239C7.37276 1.77197 7.50233 1.74698 7.6329 1.74899H16.5729C16.704 1.74782 16.8339 1.77388 16.9544 1.82552C17.0749 1.87716 17.1833 1.95325 17.2729 2.04899C17.3669 2.1419 17.4412 2.25288 17.4912 2.37524C17.5412 2.4976 17.5659 2.62882 17.5639 2.76099C17.566 2.89317 17.5413 3.02442 17.4913 3.14679C17.4413 3.26917 17.367 3.38014 17.2729 3.47299C17.1833 3.56872 17.0749 3.64481 16.9544 3.69645C16.8339 3.74809 16.704 3.77415 16.5729 3.77299L7.6329 3.75799ZM2.4029 16.249C2.14265 16.2525 1.88451 16.2019 1.64487 16.1003C1.40523 15.9988 1.18934 15.8485 1.0109 15.659C0.639928 15.2806 0.432129 14.7719 0.432129 14.242C0.432129 13.7121 0.639928 13.2033 1.0109 12.825C1.19043 12.6363 1.40702 12.4868 1.64708 12.3858C1.88714 12.2847 2.14548 12.2344 2.4059 12.238C2.66614 12.2345 2.92427 12.2852 3.16389 12.3867C3.40352 12.4883 3.61942 12.6386 3.7979 12.828C4.16887 13.2063 4.37667 13.7151 4.37667 14.245C4.37667 14.7749 4.16887 15.2836 3.7979 15.662C3.61833 15.8506 3.40174 16.0001 3.16169 16.1011C2.92164 16.2021 2.66331 16.2525 2.4029 16.249ZM2.4029 10.48C2.14265 10.4835 1.88451 10.4329 1.64487 10.3313C1.40523 10.2298 1.18934 10.0795 1.0109 9.88999C0.639928 9.51162 0.432129 9.00287 0.432129 8.47299C0.432129 7.9431 0.639928 7.43435 1.0109 7.05599C1.19043 6.86731 1.40702 6.71777 1.64708 6.61675C1.88714 6.51574 2.14548 6.46543 2.4059 6.46899C2.66614 6.4655 2.92427 6.51615 3.16389 6.61772C3.40352 6.71929 3.61942 6.86955 3.7979 7.05899C4.16887 7.43735 4.37667 7.9461 4.37667 8.47599C4.37667 9.00587 4.16887 9.51462 3.7979 9.89299C3.61776 10.0822 3.40035 10.2321 3.15939 10.3331C2.91843 10.4342 2.65915 10.4842 2.3979 10.48H2.4029ZM2.4029 4.75799C2.14265 4.76153 1.88451 4.71091 1.64487 4.60933C1.40523 4.50776 1.18934 4.35747 1.0109 4.16799C0.823969 3.98257 0.676416 3.76131 0.577094 3.51747C0.477772 3.27363 0.428726 3.01224 0.4329 2.74899C0.428992 2.48648 0.478377 2.22591 0.57807 1.98304C0.677762 1.74017 0.825689 1.52004 1.0129 1.33599C1.19243 1.14731 1.40902 0.997768 1.64908 0.896754C1.88914 0.795741 2.14748 0.745433 2.4079 0.748986C2.66814 0.745505 2.92627 0.796155 3.16589 0.897722C3.40552 0.999288 3.62142 1.14955 3.7999 1.33899C3.98683 1.5244 4.13438 1.74566 4.23371 1.9895C4.33303 2.23334 4.38207 2.49473 4.3779 2.75799C4.38222 3.02099 4.33303 3.28214 4.23332 3.52555C4.13362 3.76897 3.98548 3.98958 3.7979 4.17399C3.61833 4.36262 3.40174 4.51212 3.16169 4.61313C2.92164 4.71414 2.66331 4.76448 2.4029 4.76099V4.75799Z" fill="white"/>
</svg>
