<svg width="24" height="22" viewBox="0 0 24 22" fill="none" xmlns="http://www.w3.org/2000/svg">
<path d="M2.8125 21.2377C2.21089 21.2377 1.6959 21.0235 1.26754 20.5952C0.839181 20.1668 0.625 19.6518 0.625 19.0502V2.9502C0.625 2.34858 0.839181 1.8336 1.26754 1.40524C1.6959 0.976877 2.21089 0.762695 2.8125 0.762695H21.1875C21.7891 0.762695 22.3041 0.976877 22.7325 1.40524C23.1608 1.8336 23.375 2.34858 23.375 2.9502V19.0502C23.375 19.6518 23.1608 20.1668 22.7325 20.5952C22.3041 21.0235 21.7891 21.2377 21.1875 21.2377H2.8125ZM2.8125 19.0502H21.1875V2.9502H2.8125V19.0502ZM8.9375 16.8335C9.26806 16.8335 9.54514 16.7217 9.76875 16.4981C9.99236 16.2745 10.1042 15.9974 10.1042 15.6669C10.1042 15.3363 9.99236 15.0592 9.76875 14.8356C9.54514 14.612 9.26806 14.5002 8.9375 14.5002H5.72917C5.39861 14.5002 5.12153 14.612 4.89792 14.8356C4.67431 15.0592 4.5625 15.3363 4.5625 15.6669C4.5625 15.9974 4.67431 16.2745 4.89792 16.4981C5.12153 16.7217 5.39861 16.8335 5.72917 16.8335H8.9375ZM14.975 11.0585L14.1292 10.2127C13.8958 9.97936 13.6236 9.86756 13.3125 9.87728C13.0014 9.887 12.7292 10.0085 12.4958 10.2419C12.2819 10.4752 12.1701 10.7474 12.1604 11.0585C12.1507 11.3696 12.2625 11.6419 12.4958 11.8752L14.2021 13.5814C14.4257 13.8051 14.6838 13.9169 14.9765 13.9169C15.2693 13.9169 15.5255 13.807 15.745 13.5873L19.6417 9.6877C19.875 9.45436 19.9917 9.18214 19.9917 8.87103C19.9917 8.55992 19.875 8.2877 19.6417 8.05436C19.4083 7.82103 19.1313 7.70436 18.8104 7.70436C18.4896 7.70436 18.2125 7.82103 17.9792 8.05436L14.975 11.0585ZM8.9375 12.1669C9.26806 12.1669 9.54514 12.0551 9.76875 11.8314C9.99236 11.6078 10.1042 11.3308 10.1042 11.0002C10.1042 10.6696 9.99236 10.3926 9.76875 10.1689C9.54514 9.94534 9.26806 9.83353 8.9375 9.83353H5.72917C5.39861 9.83353 5.12153 9.94534 4.89792 10.1689C4.67431 10.3926 4.5625 10.6696 4.5625 11.0002C4.5625 11.3308 4.67431 11.6078 4.89792 11.8314C5.12153 12.0551 5.39861 12.1669 5.72917 12.1669H8.9375ZM8.9375 7.5002C9.26806 7.5002 9.54514 7.38839 9.76875 7.16478C9.99236 6.94117 10.1042 6.66408 10.1042 6.33353C10.1042 6.00297 9.99236 5.72589 9.76875 5.50228C9.54514 5.27867 9.26806 5.16686 8.9375 5.16686H5.72917C5.39861 5.16686 5.12153 5.27867 4.89792 5.50228C4.67431 5.72589 4.5625 6.00297 4.5625 6.33353C4.5625 6.66408 4.67431 6.94117 4.89792 7.16478C5.12153 7.38839 5.39861 7.5002 5.72917 7.5002H8.9375Z" fill="white"/>
</svg>
