<svg width="18" height="19" viewBox="0 0 18 19" fill="none" xmlns="http://www.w3.org/2000/svg">
<path d="M9.00024 8.40695C8.49983 8.41492 8.00344 8.31642 7.54399 8.11798C7.08453 7.91955 6.67251 7.62571 6.33524 7.25595C5.97736 6.88183 5.69679 6.4408 5.50958 5.95811C5.32237 5.47541 5.2322 4.96054 5.24424 4.44295C5.23233 3.92553 5.32257 3.41084 5.50977 2.92833C5.69698 2.44581 5.97748 2.00495 6.33524 1.63095C6.67246 1.26106 7.08445 0.967066 7.5439 0.76846C8.00335 0.569854 8.49976 0.47117 9.00024 0.478949C9.50073 0.471106 9.99716 0.569761 10.4566 0.768371C10.9161 0.966981 11.3281 1.26101 11.6652 1.63095C12.0231 2.00507 12.3037 2.4461 12.4909 2.92879C12.6781 3.41148 12.7683 3.92636 12.7562 4.44395C12.7683 4.96154 12.6781 5.47641 12.4909 5.95911C12.3037 6.4418 12.0231 6.88283 11.6652 7.25695C11.3278 7.62648 10.9158 7.9201 10.4563 8.11835C9.99689 8.31661 9.50057 8.41498 9.00024 8.40695ZM0.800241 16.6339V15.8159C0.794734 15.256 0.942841 14.7052 1.22846 14.2236C1.51408 13.7419 1.92628 13.3477 2.42024 13.0839C3.4536 12.5365 4.54779 12.1126 5.68024 11.8209C7.85803 11.26 10.1424 11.26 12.3202 11.8209C13.4534 12.1123 14.5483 12.5363 15.5822 13.0839C16.0762 13.3477 16.4884 13.7419 16.774 14.2236C17.0596 14.7052 17.2077 15.256 17.2022 15.8159V16.6339C17.2216 17.1343 17.0418 17.6219 16.7022 17.9899C16.5378 18.1642 16.3382 18.3016 16.1167 18.393C15.8952 18.4844 15.6567 18.5276 15.4172 18.5199H2.58724C2.3474 18.5279 2.10861 18.4848 1.88672 18.3934C1.66483 18.302 1.46491 18.1645 1.30024 17.9899C0.960704 17.6219 0.780904 17.1343 0.800241 16.6339ZM2.54624 16.6769H15.4552V15.8159C15.4611 15.5896 15.4006 15.3664 15.2812 15.1739C15.1561 14.9859 14.9837 14.8342 14.7812 14.7339C13.873 14.2812 12.922 13.9198 11.9422 13.6549C10.9843 13.3875 9.99484 13.2492 9.00024 13.2439C8.00509 13.2496 7.01486 13.384 6.05424 13.6439C5.07005 13.9011 4.11777 14.2677 3.21524 14.7369C3.008 14.823 2.83307 14.972 2.71524 15.1629C2.59692 15.361 2.53663 15.5883 2.54124 15.8189L2.54624 16.6769ZM9.00024 6.56495C9.26818 6.56963 9.53406 6.51731 9.78025 6.41146C10.0264 6.3056 10.2473 6.14863 10.4282 5.95095C10.6196 5.75021 10.7696 5.51369 10.8694 5.25492C10.9693 4.99615 11.0172 4.72023 11.0102 4.44295C11.0172 4.16567 10.9693 3.88974 10.8694 3.63098C10.7696 3.37221 10.6196 3.13569 10.4282 2.93495C10.2443 2.74089 10.0228 2.58633 9.77724 2.48071C9.53164 2.37509 9.26709 2.32062 8.99974 2.32062C8.73239 2.32062 8.46784 2.37509 8.22224 2.48071C7.97664 2.58633 7.75513 2.74089 7.57124 2.93495C7.38001 3.13577 7.23027 3.37233 7.13057 3.63109C7.03088 3.88985 6.98319 4.16574 6.99024 4.44295C6.98332 4.72023 7.03117 4.99615 7.13103 5.25492C7.2309 5.51369 7.38083 5.75021 7.57224 5.95095C7.75317 6.14863 7.97405 6.3056 8.22024 6.41146C8.46642 6.51731 8.7323 6.56963 9.00024 6.56495Z" fill="#333"/>
</svg>
