<svg width="20" height="15" viewBox="0 0 20 15" fill="none" xmlns="http://www.w3.org/2000/svg">
<path d="M2.87434e-05 12.595C-0.0140292 12.128 0.119654 11.6685 0.382029 11.282C0.645267 10.9142 0.997619 10.6193 1.40603 10.425C2.24515 10.0216 3.11905 9.69493 4.01703 9.44899C5.04005 9.19216 6.09242 9.07113 7.14703 9.08899C8.19636 9.07115 9.24344 9.19219 10.261 9.44899C11.1551 9.69596 12.0253 10.0226 12.861 10.425C13.2694 10.6193 13.6218 10.9142 13.885 11.282C14.1474 11.6685 14.2811 12.128 14.267 12.595V13.245C14.2687 13.4405 14.2309 13.6343 14.156 13.8149C14.0811 13.9954 13.9706 14.1591 13.831 14.296C13.6861 14.4436 13.512 14.5595 13.3199 14.6362C13.1278 14.713 12.9218 14.749 12.715 14.742H1.55203C1.34737 14.7495 1.14326 14.7161 0.951644 14.6438C0.760026 14.5716 0.584739 14.4618 0.436029 14.321C0.292081 14.1819 0.178902 14.0142 0.103801 13.8287C0.0287002 13.6432 -0.00665177 13.444 2.87434e-05 13.244V12.595ZM18.448 14.742H15.648C15.8014 14.5296 15.918 14.293 15.993 14.042C16.0697 13.7823 16.1078 13.5127 16.106 13.242V12.729C16.0859 12.1311 15.9767 11.5396 15.782 10.974C15.5759 10.3019 15.1573 9.71485 14.589 9.30099C15.2805 9.36705 15.9638 9.50103 16.629 9.70099C17.2523 9.89195 17.8593 10.1327 18.444 10.421C18.9028 10.621 19.3011 10.9379 19.599 11.34C19.8464 11.6622 19.9863 12.054 19.999 12.46V13.24C20.0057 13.44 19.9704 13.6392 19.8953 13.8247C19.8202 14.0102 19.707 14.1779 19.563 14.317C19.4143 14.4578 19.239 14.5676 19.0474 14.6398C18.8558 14.7121 18.6517 14.7455 18.447 14.738L18.448 14.742ZM7.12403 6.82199C6.67997 6.82909 6.23895 6.74749 5.82684 6.58196C5.41472 6.41642 5.03979 6.17029 4.72403 5.85799C4.40444 5.5633 4.15028 5.20479 3.97802 4.80566C3.80576 4.40653 3.71923 3.97568 3.72403 3.54099C3.71892 3.10625 3.80531 2.6753 3.97759 2.27612C4.14987 1.87695 4.40419 1.51847 4.72403 1.22399C5.03968 0.911454 5.41456 0.665108 5.82669 0.499398C6.23882 0.333688 6.67989 0.251952 7.12403 0.258986C7.56811 0.251765 8.00915 0.333317 8.42128 0.498857C8.83342 0.664397 9.20833 0.910589 9.52403 1.22299C9.84387 1.51747 10.0982 1.87595 10.2705 2.27512C10.4428 2.6743 10.5291 3.10525 10.524 3.53999C10.5288 3.97468 10.4423 4.40553 10.27 4.80466C10.0978 5.20379 9.84362 5.5623 9.52403 5.85699C9.2083 6.16934 8.83338 6.4155 8.42125 6.58104C8.00913 6.74657 7.5681 6.82815 7.12403 6.82099V6.82199ZM15.759 3.54099C15.7638 3.97568 15.6773 4.40653 15.505 4.80566C15.3328 5.20479 15.0786 5.5633 14.759 5.85799C14.4433 6.17034 14.0684 6.4165 13.6563 6.58204C13.2441 6.74757 12.8031 6.82915 12.359 6.82199C12.2095 6.81829 12.0603 6.8066 11.912 6.78699C11.7597 6.77359 11.6096 6.74169 11.465 6.69199C11.8029 6.24368 12.0613 5.74071 12.229 5.20499C12.397 4.66566 12.4816 4.10386 12.48 3.53899C12.4822 2.97707 12.3934 2.41851 12.217 1.88499C12.0397 1.35147 11.7864 0.846288 11.465 0.384986C11.6105 0.337436 11.7602 0.303949 11.912 0.284986C12.06 0.266959 12.209 0.258275 12.358 0.258986C12.8021 0.251765 13.2432 0.333317 13.6553 0.498857C14.0674 0.664397 14.4423 0.910589 14.758 1.22299C15.0779 1.51747 15.3322 1.87595 15.5045 2.27512C15.6768 2.6743 15.7631 3.10525 15.758 3.53999L15.759 3.54099ZM1.51703 13.278H12.754V12.594C12.7618 12.4198 12.7217 12.2469 12.638 12.094C12.5186 11.9341 12.3573 11.8102 12.172 11.736C11.4356 11.3693 10.6623 11.082 9.86503 10.879C8.97264 10.6543 8.05523 10.5444 7.13503 10.552C6.21483 10.5445 5.29742 10.6543 4.40503 10.879C3.6078 11.082 2.83444 11.3693 2.09803 11.736C1.91272 11.8102 1.75147 11.9341 1.63203 12.094C1.54841 12.2469 1.50829 12.4199 1.51603 12.594L1.51703 13.278ZM7.12703 5.35899C7.37322 5.36323 7.61777 5.31807 7.84621 5.22618C8.07465 5.13429 8.28235 4.99753 8.45703 4.82399C8.63368 4.66002 8.77406 4.46089 8.86913 4.2394C8.9642 4.01792 9.01185 3.77899 9.00903 3.53799C9.0113 3.29781 8.96306 3.05984 8.86745 2.8395C8.77184 2.61917 8.63099 2.42139 8.45403 2.25899C8.09535 1.91648 7.61847 1.72536 7.12253 1.72536C6.62658 1.72536 6.14971 1.91648 5.79103 2.25899C5.61481 2.42282 5.47476 2.62166 5.37988 2.84277C5.28499 3.06389 5.23736 3.30239 5.24003 3.54299C5.23707 3.78376 5.28488 4.02245 5.38033 4.24351C5.47578 4.46457 5.61675 4.66304 5.79403 4.82599C5.96969 4.99889 6.17804 5.13507 6.40691 5.22659C6.63578 5.3181 6.88058 5.36311 7.12703 5.35899Z" fill="white"/>
</svg>
