<svg width="20" height="20" viewBox="0 0 20 20" fill="none" xmlns="http://www.w3.org/2000/svg">
<path d="M10 19.75C8.6515 19.75 7.38425 19.4937 6.19825 18.981C5.01242 18.4682 3.98083 17.7723 3.1035 16.8935C2.22617 16.0145 1.53125 14.9826 1.01875 13.7978C0.50625 12.6131 0.25 11.3472 0.25 10C0.25 8.6515 0.506333 7.38425 1.019 6.19825C1.53183 5.01242 2.22767 3.98083 3.1065 3.1035C3.9855 2.22617 5.01742 1.53125 6.20225 1.01875C7.38692 0.50625 8.65283 0.25 10 0.25C11.3485 0.25 12.6158 0.506334 13.8018 1.019C14.9876 1.53183 16.0192 2.22767 16.8965 3.1065C17.7738 3.9855 18.4688 5.01742 18.9813 6.20225C19.4937 7.38692 19.75 8.65283 19.75 10C19.75 11.3485 19.4937 12.6158 18.981 13.8018C18.4682 14.9876 17.7723 16.0192 16.8935 16.8965C16.0145 17.7738 14.9826 18.4688 13.7977 18.9813C12.6131 19.4937 11.3472 19.75 10 19.75ZM9.025 17.85V15.9C8.48333 15.9 8.02292 15.7104 7.64375 15.3313C7.26458 14.9521 7.075 14.4932 7.075 13.9545V12.975L2.325 8.225C2.275 8.52083 2.22917 8.81667 2.1875 9.1125C2.14583 9.40833 2.125 9.70417 2.125 10C2.125 11.99 2.77708 13.7333 4.08125 15.23C5.38542 16.7267 7.03333 17.6 9.025 17.85ZM15.8 15.325C16.475 14.5917 16.9896 13.7679 17.3438 12.8538C17.6979 11.9396 17.875 10.9883 17.875 10C17.875 8.38333 17.4271 6.9125 16.5312 5.5875C15.6354 4.2625 14.4417 3.3 12.95 2.7V3.1C12.95 3.64167 12.7566 4.10625 12.3698 4.49375C11.9831 4.88125 11.5182 5.075 10.975 5.075H9.025V7.025C9.025 7.30833 8.92917 7.54583 8.7375 7.7375C8.54583 7.92917 8.30833 8.025 8.025 8.025H6.05V10H11.95C12.2333 10 12.4708 10.0958 12.6625 10.2875C12.8542 10.4792 12.95 10.7167 12.95 11V13.95H13.95C14.372 13.95 14.7533 14.0768 15.094 14.3305C15.4348 14.5843 15.6702 14.9158 15.8 15.325Z" fill="#212529"/>
</svg>
