<svg width="20" height="16" viewBox="0 0 20 16" fill="none" xmlns="http://www.w3.org/2000/svg">
<path d="M3.08873 0.150391H16.9137C17.1721 0.150391 17.3929 0.242057 17.5762 0.425391C17.7596 0.608724 17.8512 0.829557 17.8512 1.08789C17.8512 1.34622 17.7596 1.56706 17.5762 1.75039C17.3929 1.93372 17.1721 2.02539 16.9137 2.02539H3.08873C2.8304 2.02539 2.60956 1.93372 2.42623 1.75039C2.2429 1.56706 2.15123 1.34622 2.15123 1.08789C2.15123 0.829557 2.2429 0.608724 2.42623 0.425391C2.60956 0.242057 2.8304 0.150391 3.08873 0.150391ZM3.11373 15.8254C2.8554 15.8254 2.63456 15.7337 2.45123 15.5504C2.2679 15.3671 2.17623 15.1462 2.17623 14.8879V9.90039H1.92623C1.62623 9.90039 1.38248 9.78789 1.19498 9.56289C1.00748 9.33789 0.942898 9.07539 1.00123 8.77539L2.00123 3.85039C2.0429 3.63372 2.15123 3.45456 2.32623 3.31289C2.50123 3.17122 2.70123 3.10039 2.92623 3.10039H17.0762C17.3012 3.10039 17.5012 3.17122 17.6762 3.31289C17.8512 3.45456 17.9596 3.63372 18.0012 3.85039L19.0012 8.77539C19.0596 9.07539 18.995 9.33789 18.8075 9.56289C18.62 9.78789 18.3762 9.90039 18.0762 9.90039H17.8262V14.8879C17.8262 15.1462 17.7346 15.3671 17.5512 15.5504C17.3679 15.7337 17.1471 15.8254 16.8887 15.8254C16.6304 15.8254 16.4096 15.7337 16.2262 15.5504C16.0429 15.3671 15.9512 15.1462 15.9512 14.8879V9.90039H11.9262V14.8879C11.9262 15.1462 11.8346 15.3671 11.6512 15.5504C11.4679 15.7337 11.2471 15.8254 10.9887 15.8254H3.11373ZM4.05123 13.9504H10.0512V9.90039H4.05123V13.9504ZM3.06373 8.02539H16.9387L16.3137 4.97539H3.68873L3.06373 8.02539Z" fill="black"/>
</svg>
