<svg width="18" height="18" viewBox="0 0 18 18" fill="none" xmlns="http://www.w3.org/2000/svg">
<path d="M16.725 17.5C14.725 17.5 12.7375 17.0562 10.7625 16.1688C8.7875 15.2812 6.9875 14.0208 5.3625 12.3875C3.72917 10.7625 2.46875 8.9625 1.58125 6.9875C0.69375 5.0125 0.25 3.02342 0.25 1.02025C0.25 0.73175 0.347583 0.489583 0.54275 0.29375C0.738084 0.0979167 0.982167 0 1.275 0H5.15C5.38333 0 5.58542 0.0729167 5.75625 0.21875C5.92708 0.364583 6.03333 0.55 6.075 0.775L6.725 4.175C6.75833 4.4 6.74792 4.60208 6.69375 4.78125C6.63958 4.96042 6.55 5.11667 6.425 5.25L4.0625 7.65C4.40417 8.26667 4.79767 8.85825 5.243 9.42475C5.68833 9.99125 6.17817 10.5372 6.7125 11.0625C7.2125 11.5625 7.74375 12.0333 8.30625 12.475C8.86875 12.9167 9.46667 13.325 10.1 13.7L12.475 11.35C12.6167 11.2083 12.7833 11.1083 12.975 11.05C13.1667 10.9917 13.3667 10.975 13.575 11L16.95 11.675C17.1833 11.7333 17.375 11.8512 17.525 12.0288C17.675 12.2064 17.75 12.4052 17.75 12.625V16.475C17.75 16.7678 17.6524 17.0119 17.4573 17.2073C17.2619 17.4024 17.0178 17.5 16.725 17.5ZM3.1625 5.875L4.8125 4.225L4.375 1.875H2.1625C2.22917 2.54167 2.34167 3.2125 2.5 3.8875C2.65833 4.5625 2.87917 5.225 3.1625 5.875ZM11.8625 14.575C12.5042 14.8583 13.1625 15.0833 13.8375 15.25C14.5125 15.4167 15.1917 15.525 15.875 15.575V13.375L13.575 12.8875L11.8625 14.575Z" fill="black"/>
</svg>
