<svg width="20" height="20" viewBox="0 0 20 20" fill="none" xmlns="http://www.w3.org/2000/svg">
<path d="M3.9875 15.0875C4.85417 14.4458 5.78958 13.9458 6.79375 13.5875C7.79792 13.2292 8.86667 13.05 10 13.05C11.1333 13.05 12.2021 13.2292 13.2063 13.5875C14.2104 13.9458 15.1458 14.4458 16.0125 15.0875C16.6208 14.3792 17.0833 13.5968 17.4 12.7402C17.7167 11.8839 17.875 10.9699 17.875 9.99825C17.875 7.80775 17.1104 5.94792 15.5813 4.41875C14.0521 2.88958 12.1917 2.125 10 2.125C7.80833 2.125 5.94792 2.88958 4.41875 4.41875C2.88958 5.94792 2.125 7.80775 2.125 9.99825C2.125 10.9699 2.28333 11.8839 2.6 12.7402C2.91667 13.5968 3.37917 14.3792 3.9875 15.0875ZM10.0027 10.95C9.03425 10.95 8.21667 10.6176 7.55 9.95275C6.88333 9.28792 6.55 8.47125 6.55 7.50275C6.55 6.53425 6.88242 5.71667 7.54725 5.05C8.21208 4.38333 9.02875 4.05 9.99725 4.05C10.9658 4.05 11.7833 4.38242 12.45 5.04725C13.1167 5.71208 13.45 6.52875 13.45 7.49725C13.45 8.46575 13.1176 9.28333 12.4528 9.95C11.7879 10.6167 10.9712 10.95 10.0027 10.95ZM10 19.75C8.6515 19.75 7.38425 19.4937 6.19825 18.981C5.01242 18.4682 3.98083 17.7723 3.1035 16.8935C2.22617 16.0145 1.53125 14.9826 1.01875 13.7978C0.50625 12.6131 0.25 11.3472 0.25 10C0.25 8.6515 0.506333 7.38425 1.019 6.19825C1.53183 5.01242 2.22767 3.98083 3.1065 3.1035C3.9855 2.22617 5.01742 1.53125 6.20225 1.01875C7.38692 0.50625 8.65283 0.25 10 0.25C11.3485 0.25 12.6158 0.506334 13.8018 1.019C14.9876 1.53183 16.0192 2.22767 16.8965 3.1065C17.7738 3.9855 18.4688 5.01742 18.9813 6.20225C19.4937 7.38692 19.75 8.65283 19.75 10C19.75 11.3485 19.4937 12.6158 18.981 13.8018C18.4682 14.9876 17.7723 16.0192 16.8935 16.8965C16.0145 17.7738 14.9826 18.4688 13.7977 18.9813C12.6131 19.4937 11.3472 19.75 10 19.75ZM10 17.875C10.8667 17.875 11.6813 17.75 12.4438 17.5C13.2063 17.25 13.925 16.8833 14.6 16.4C13.925 15.925 13.2063 15.5604 12.4438 15.3063C11.6813 15.0521 10.8672 14.925 10.0015 14.925C9.13583 14.925 8.31917 15.05 7.5515 15.3C6.78383 15.55 6.06667 15.9167 5.4 16.4C6.075 16.8833 6.79375 17.25 7.55625 17.5C8.31875 17.75 9.13333 17.875 10 17.875ZM10 9.075C10.4417 9.075 10.8146 8.92292 11.1188 8.61875C11.4229 8.31458 11.575 7.94167 11.575 7.5C11.575 7.05833 11.4229 6.68542 11.1188 6.38125C10.8146 6.07708 10.4417 5.925 10 5.925C9.55833 5.925 9.18542 6.07708 8.88125 6.38125C8.57708 6.68542 8.425 7.05833 8.425 7.5C8.425 7.94167 8.57708 8.31458 8.88125 8.61875C9.18542 8.92292 9.55833 9.075 10 9.075Z" fill="black"/>
</svg>
