<svg width="18" height="20" viewBox="0 0 18 20" fill="none" xmlns="http://www.w3.org/2000/svg">
<path d="M11.4996 15.9002C10.8206 15.9002 10.2467 15.6658 9.77786 15.1969C9.30903 14.7281 9.07461 14.1542 9.07461 13.4752C9.07461 12.7962 9.30903 12.2223 9.77786 11.7534C10.2467 11.2846 10.8206 11.0502 11.4996 11.0502C12.1786 11.0502 12.7525 11.2846 13.2214 11.7534C13.6902 12.2223 13.9246 12.7962 13.9246 13.4752C13.9246 14.1542 13.6902 14.7281 13.2214 15.1969C12.7525 15.6658 12.1786 15.9002 11.4996 15.9002ZM2.09961 19.7502C1.58394 19.7502 1.14253 19.5666 0.775359 19.1994C0.408193 18.8323 0.224609 18.3909 0.224609 17.8752V4.0752C0.224609 3.55953 0.408193 3.11811 0.775359 2.75095C1.14253 2.38378 1.58394 2.2002 2.09961 2.2002H3.22461V1.1377C3.22461 0.879362 3.31628 0.658529 3.49961 0.475195C3.68294 0.291862 3.90378 0.200195 4.16211 0.200195C4.42044 0.200195 4.64128 0.291862 4.82461 0.475195C5.00794 0.658529 5.09961 0.879362 5.09961 1.1377V2.2002H12.8996V1.1377C12.8996 0.879362 12.9913 0.658529 13.1746 0.475195C13.3579 0.291862 13.5788 0.200195 13.8371 0.200195C14.0954 0.200195 14.3163 0.291862 14.4996 0.475195C14.6829 0.658529 14.7746 0.879362 14.7746 1.1377V2.2002H15.8996C16.4153 2.2002 16.8567 2.38378 17.2239 2.75095C17.591 3.11811 17.7746 3.55953 17.7746 4.0752V17.8752C17.7746 18.3909 17.591 18.8323 17.2239 19.1994C16.8567 19.5666 16.4153 19.7502 15.8996 19.7502H2.09961ZM2.09961 17.8752H15.8996V8.0502H2.09961V17.8752ZM2.09961 6.1752H15.8996V4.0752H2.09961V6.1752Z" fill="black"/>
</svg>
