<svg width="19" height="19" viewBox="0 0 19 19" fill="none" xmlns="http://www.w3.org/2000/svg">
<path d="M4.65039 6.5749L8.27539 0.662402C8.36972 0.512402 8.48764 0.399902 8.62914 0.324902C8.77081 0.249902 8.92022 0.212402 9.07739 0.212402C9.23472 0.212402 9.38414 0.249902 9.52564 0.324902C9.66714 0.399902 9.78372 0.512402 9.87539 0.662402L13.4879 6.5749C13.5796 6.7294 13.6254 6.89157 13.6254 7.0614C13.6254 7.2314 13.5837 7.3859 13.5004 7.5249C13.4171 7.66657 13.3087 7.78115 13.1754 7.86865C13.0421 7.95615 12.8783 7.9999 12.6841 7.9999H5.45414C5.25997 7.9999 5.09414 7.95615 4.95664 7.86865C4.81914 7.78115 4.70872 7.66657 4.62539 7.5249C4.54206 7.38324 4.50247 7.22907 4.50664 7.0624C4.51081 6.89574 4.55872 6.73324 4.65039 6.5749ZM14.4989 18.8499C13.2832 18.8499 12.2504 18.4244 11.4004 17.5734C10.5504 16.7224 10.1254 15.6891 10.1254 14.4734C10.1254 13.2577 10.5509 12.2249 11.4019 11.3749C12.2529 10.5249 13.2862 10.0999 14.5019 10.0999C15.7176 10.0999 16.7504 10.5254 17.6004 11.3764C18.4504 12.2274 18.8754 13.2607 18.8754 14.4764C18.8754 15.6921 18.4499 16.7249 17.5989 17.5749C16.7479 18.4249 15.7146 18.8499 14.4989 18.8499ZM0.275391 17.4124V11.5624C0.275391 11.3041 0.367057 11.0832 0.550391 10.8999C0.733724 10.7166 0.954557 10.6249 1.21289 10.6249H7.06289C7.32122 10.6249 7.54206 10.7166 7.72539 10.8999C7.90872 11.0832 8.00039 11.3041 8.00039 11.5624V17.4124C8.00039 17.6707 7.90872 17.8916 7.72539 18.0749C7.54206 18.2582 7.32122 18.3499 7.06289 18.3499H1.21289C0.954557 18.3499 0.733724 18.2582 0.550391 18.0749C0.367057 17.8916 0.275391 17.6707 0.275391 17.4124ZM14.5004 16.9749C15.2004 16.9749 15.7921 16.7332 16.2754 16.2499C16.7587 15.7666 17.0004 15.1749 17.0004 14.4749C17.0004 13.7749 16.7587 13.1832 16.2754 12.6999C15.7921 12.2166 15.2004 11.9749 14.5004 11.9749C13.8004 11.9749 13.2087 12.2166 12.7254 12.6999C12.2421 13.1832 12.0004 13.7749 12.0004 14.4749C12.0004 15.1749 12.2421 15.7666 12.7254 16.2499C13.2087 16.7332 13.8004 16.9749 14.5004 16.9749ZM2.15039 16.4749H6.12539V12.4999H2.15039V16.4749ZM7.10039 6.1249H11.0254L9.07539 2.9749L7.10039 6.1249Z" fill="#212529"/>
</svg>
