<svg width="18" height="18" viewBox="0 0 18 18" fill="none" xmlns="http://www.w3.org/2000/svg">
<path d="M11.9752 17.8002C10.0585 17.8002 8.3502 17.2523 6.8502 16.1564C5.3502 15.0606 4.29186 13.6419 3.6752 11.9002H1.1377C0.879362 11.9002 0.658529 11.8085 0.475195 11.6252C0.291862 11.4419 0.200195 11.221 0.200195 10.9627C0.200195 10.7044 0.291862 10.4835 0.475195 10.3002C0.658529 10.1169 0.879362 10.0252 1.1377 10.0252H3.2502C3.21686 9.84186 3.19603 9.67103 3.1877 9.5127C3.17936 9.35436 3.1752 9.18353 3.1752 9.0002C3.1752 8.81686 3.17936 8.64603 3.1877 8.4877C3.19603 8.32936 3.21686 8.15853 3.2502 7.9752H1.1377C0.879362 7.9752 0.658529 7.88353 0.475195 7.7002C0.291862 7.51686 0.200195 7.29603 0.200195 7.0377C0.200195 6.77936 0.291862 6.55853 0.475195 6.3752C0.658529 6.19186 0.879362 6.1002 1.1377 6.1002H3.6752C4.29186 4.35853 5.34811 2.93978 6.84395 1.84395C8.33978 0.748112 10.0502 0.200195 11.9752 0.200195C12.9002 0.200195 13.7731 0.331445 14.5939 0.593945C15.4148 0.856445 16.1835 1.22936 16.9002 1.7127C17.1585 1.87936 17.2919 2.11686 17.3002 2.4252C17.3085 2.73353 17.2002 2.99603 16.9752 3.2127C16.7502 3.4377 16.4752 3.56686 16.1502 3.6002C15.8252 3.63353 15.521 3.56686 15.2377 3.4002C14.7544 3.11686 14.2356 2.9002 13.6814 2.7502C13.1273 2.6002 12.5585 2.5252 11.9752 2.5252C10.7085 2.5252 9.5627 2.85436 8.5377 3.5127C7.5127 4.17103 6.74186 5.03353 6.2252 6.1002H10.9877C11.246 6.1002 11.4669 6.19186 11.6502 6.3752C11.8335 6.55853 11.9252 6.77936 11.9252 7.0377C11.9252 7.29603 11.8335 7.51686 11.6502 7.7002C11.4669 7.88353 11.246 7.9752 10.9877 7.9752H5.6252C5.58353 8.15853 5.55228 8.32936 5.53145 8.4877C5.51061 8.64603 5.5002 8.81686 5.5002 9.0002C5.5002 9.18353 5.51061 9.35436 5.53145 9.5127C5.55228 9.67103 5.58353 9.84186 5.6252 10.0252H10.9877C11.246 10.0252 11.4669 10.1169 11.6502 10.3002C11.8335 10.4835 11.9252 10.7044 11.9252 10.9627C11.9252 11.221 11.8335 11.4419 11.6502 11.6252C11.4669 11.8085 11.246 11.9002 10.9877 11.9002H6.2252C6.75853 12.9919 7.5377 13.8606 8.5627 14.5064C9.5877 15.1523 10.7252 15.4752 11.9752 15.4752C12.5585 15.4752 13.1273 15.4023 13.6814 15.2564C14.2356 15.1106 14.7544 14.896 15.2377 14.6127C15.521 14.446 15.8252 14.3773 16.1502 14.4064C16.4752 14.4356 16.7502 14.5627 16.9752 14.7877C17.2002 15.0044 17.3085 15.2669 17.3002 15.5752C17.2919 15.8835 17.1585 16.121 16.9002 16.2877C16.1835 16.771 15.4148 17.1439 14.5939 17.4064C13.7731 17.6689 12.9002 17.8002 11.9752 17.8002Z" fill="#212529"/>
</svg>
