<svg width="20" height="16" viewBox="0 0 20 16" fill="none" xmlns="http://www.w3.org/2000/svg">
<path d="M2.125 15.7751C1.60933 15.7751 1.16792 15.5915 0.80075 15.2243C0.433583 14.8572 0.25 14.4158 0.25 13.9001V2.1001C0.25 1.58443 0.433583 1.14302 0.80075 0.775848C1.16792 0.408682 1.60933 0.225098 2.125 0.225098H17.875C18.3907 0.225098 18.8321 0.408682 19.1992 0.775848C19.5664 1.14302 19.75 1.58443 19.75 2.1001V13.9001C19.75 14.4158 19.5664 14.8572 19.1992 15.2243C18.8321 15.5915 18.3907 15.7751 17.875 15.7751H2.125ZM2.125 13.9001H17.875V2.1001H2.125V13.9001ZM5.14875 10.9501C5.30792 10.9501 5.43958 10.8983 5.54375 10.7946C5.64792 10.6911 5.7 10.5596 5.7 10.4001V5.6841C5.7 5.5031 5.63867 5.35218 5.516 5.23135C5.3935 5.11051 5.24233 5.0501 5.0625 5.0501C4.98217 5.0501 4.90583 5.0626 4.8335 5.0876C4.76117 5.1126 4.69583 5.14593 4.6375 5.1876L3.52325 5.9876C3.40775 6.07093 3.3375 6.17718 3.3125 6.30635C3.2875 6.43551 3.31667 6.56468 3.4 6.69385C3.48333 6.82301 3.59583 6.9001 3.7375 6.9251C3.87917 6.9501 4.0125 6.92093 4.1375 6.8376L4.6 6.5001V10.4001C4.6 10.5596 4.65167 10.6911 4.755 10.7946C4.8585 10.8983 4.98975 10.9501 5.14875 10.9501ZM8.1375 10.9501H10.9908C11.1219 10.9501 11.2354 10.9013 11.3313 10.8038C11.4271 10.7063 11.475 10.5926 11.475 10.4626C11.475 10.3326 11.4263 10.2188 11.3288 10.1213C11.2313 10.0238 11.1175 9.9751 10.9875 9.9751H9.125L9.1 9.9251C9.46667 9.56676 9.75417 9.27926 9.9625 9.0626C10.1708 8.84593 10.3417 8.66676 10.475 8.5251C10.7833 8.19176 11.0104 7.88585 11.1562 7.60735C11.3021 7.32868 11.375 7.0346 11.375 6.7251C11.375 6.24176 11.1917 5.84176 10.825 5.5251C10.4583 5.20843 9.9995 5.0501 9.4485 5.0501C9.1245 5.0501 8.81875 5.12718 8.53125 5.28135C8.24375 5.43551 8.00833 5.65426 7.825 5.9376C7.74167 6.04926 7.73125 6.16885 7.79375 6.29635C7.85625 6.42385 7.95417 6.5126 8.0875 6.5626C8.22083 6.6126 8.35208 6.61468 8.48125 6.56885C8.61042 6.52301 8.72292 6.4501 8.81875 6.3501C8.89858 6.26676 8.99042 6.2001 9.09425 6.1501C9.19808 6.1001 9.31667 6.0751 9.45 6.0751C9.7 6.0751 9.90417 6.14176 10.0625 6.2751C10.2208 6.40843 10.3 6.5751 10.3 6.7751C10.3 6.95843 10.2625 7.12926 10.1875 7.2876C10.1125 7.44593 9.96667 7.63343 9.75 7.8501L9.4 8.2001C9.26667 8.33343 9.1125 8.49176 8.9375 8.6751L7.7875 9.8251C7.7625 9.8501 7.71667 9.96676 7.65 10.1751V10.4656C7.65 10.5948 7.69875 10.7078 7.79625 10.8048C7.89375 10.9017 8.0075 10.9501 8.1375 10.9501ZM14.925 10.9501C15.505 10.9501 15.975 10.7855 16.335 10.4563C16.695 10.1273 16.875 9.6996 16.875 9.1731C16.875 8.87677 16.7917 8.61343 16.625 8.3831C16.4583 8.15276 16.225 7.97426 15.925 7.8476V7.8001C16.1583 7.68343 16.3417 7.52093 16.475 7.3126C16.6083 7.10426 16.675 6.85843 16.675 6.5751C16.675 6.13243 16.5047 5.7676 16.164 5.4806C15.8233 5.1936 15.3934 5.0501 14.8742 5.0501C14.5497 5.0501 14.2458 5.12926 13.9625 5.2876C13.6792 5.44593 13.45 5.64176 13.275 5.8751C13.2 5.98343 13.1944 6.09318 13.2583 6.20435C13.3223 6.31535 13.4181 6.4026 13.5458 6.4661C13.6736 6.51376 13.8017 6.51743 13.93 6.4771C14.0585 6.43676 14.1709 6.3681 14.2673 6.2711C14.3474 6.19043 14.4383 6.12926 14.54 6.0876C14.6418 6.04593 14.7521 6.0251 14.8708 6.0251C15.0903 6.0251 15.2708 6.0876 15.4125 6.2126C15.5542 6.3376 15.625 6.49176 15.625 6.6751C15.625 6.90843 15.5417 7.09176 15.375 7.2251C15.2083 7.35843 14.9917 7.4251 14.725 7.4251C14.5917 7.4251 14.4792 7.47093 14.3875 7.5626C14.2958 7.65426 14.25 7.76676 14.25 7.9001C14.25 8.03343 14.2958 8.14593 14.3875 8.2376C14.4792 8.32926 14.5917 8.3751 14.725 8.3751C15.0583 8.3751 15.325 8.44176 15.525 8.5751C15.725 8.70843 15.825 8.89176 15.825 9.1251C15.825 9.34176 15.7333 9.52926 15.55 9.6876C15.3667 9.84593 15.1583 9.9251 14.925 9.9251C14.725 9.9251 14.5583 9.89385 14.425 9.83135C14.2917 9.76885 14.176 9.6626 14.078 9.5126C13.9962 9.39593 13.894 9.31676 13.7715 9.2751C13.6488 9.23343 13.5248 9.23643 13.3995 9.2841C13.2585 9.34776 13.1567 9.43926 13.094 9.5586C13.0313 9.67793 13.0292 9.8001 13.0875 9.9251C13.2652 10.2584 13.5075 10.5126 13.8145 10.6876C14.1215 10.8626 14.4917 10.9501 14.925 10.9501Z" fill="#212529"/>
</svg>
