<svg width="22" height="22" viewBox="0 0 22 22" fill="none" xmlns="http://www.w3.org/2000/svg">
<path d="M10.9956 9.45309e-07C14.0586 1.21309e-06 16.6584 1.06684 18.795 3.20052C20.9317 5.33419 22 7.93254 22 10.9956C22 14.0586 20.9332 16.6584 18.7995 18.795C16.6658 20.9317 14.0675 22 11.0044 22C7.94143 22 5.3416 20.9332 3.20496 18.7995C1.06832 16.6658 -1.21386e-06 14.0675 -9.46087e-07 11.0044C-6.7831e-07 7.94143 1.06684 5.3416 3.20052 3.20496C5.33419 1.06832 7.93254 6.77532e-07 10.9956 9.45309e-07ZM11 3.03309C8.79569 3.03309 6.91679 3.80983 5.36331 5.36331C3.80983 6.91679 3.03309 8.79569 3.03309 11C3.03309 13.2043 3.80983 15.0832 5.36331 16.6367C6.91679 18.1902 8.79569 18.9669 11 18.9669C13.2043 18.9669 15.0832 18.1902 16.6367 16.6367C18.1902 15.0832 18.9669 13.2043 18.9669 11C18.9669 8.79569 18.1902 6.91679 16.6367 5.36331C15.0832 3.80983 13.2043 3.03309 11 3.03309ZM14.1746 11.0809C13.7567 11.0809 13.3995 11.2292 13.1029 11.5257C12.8064 11.8223 12.6581 12.1795 12.6581 12.5974C12.6581 13.0153 12.8064 13.3725 13.1029 13.6691C13.3995 13.9657 13.7567 14.114 14.1746 14.114C14.5925 14.114 14.9498 13.9657 15.2463 13.6691C15.5429 13.3725 15.6912 13.0153 15.6912 12.5974C15.6912 12.1795 15.5429 11.8223 15.2463 11.5257C14.9498 11.2292 14.5925 11.0809 14.1746 11.0809ZM7.80515 11.0809C7.38725 11.0809 7.03002 11.2292 6.73346 11.5257C6.43689 11.8223 6.2886 12.1795 6.2886 12.5974C6.2886 13.0153 6.43689 13.3725 6.73346 13.6691C7.03002 13.9657 7.38725 14.114 7.80515 14.114C8.22304 14.114 8.58027 13.9657 8.87684 13.6691C9.17341 13.3725 9.32169 13.0153 9.32169 12.5974C9.32169 12.1795 9.17341 11.8223 8.87684 11.5257C8.58027 11.2292 8.22304 11.0809 7.80515 11.0809ZM10.9798 14.2757C10.5619 14.2757 10.2047 14.4198 9.90809 14.7081C9.61152 14.9965 9.46323 15.3538 9.46323 15.7797C9.46323 16.206 9.61152 16.5674 9.90809 16.864C10.2047 17.1605 10.5619 17.3088 10.9798 17.3088C11.3977 17.3088 11.7549 17.1616 12.0515 16.8672C12.348 16.5725 12.4963 16.2075 12.4963 15.7721C12.4963 15.3482 12.348 14.9929 12.0515 14.706C11.7549 14.4192 11.3977 14.2757 10.9798 14.2757Z" fill="#212529"/>
</svg>
