<svg width="20" height="20" viewBox="0 0 20 20" fill="none" xmlns="http://www.w3.org/2000/svg">
<path d="M10.95 9.625V6.0125C10.95 5.75417 10.8583 5.53333 10.675 5.35C10.4917 5.16667 10.2708 5.075 10.0125 5.075C9.75417 5.075 9.53333 5.16667 9.35 5.35C9.16667 5.53333 9.075 5.75417 9.075 6.0125V9.9875C9.075 10.1093 9.09792 10.2273 9.14375 10.3415C9.18958 10.4558 9.25833 10.5587 9.35 10.65L12.6155 13.9385C12.7968 14.1212 13.0167 14.2125 13.275 14.2125C13.5333 14.2125 13.7542 14.1208 13.9375 13.9375C14.1208 13.7542 14.2125 13.5333 14.2125 13.275C14.2125 13.0167 14.1212 12.7962 13.9385 12.6135L10.95 9.625ZM10 19.75C8.6515 19.75 7.38425 19.4937 6.19825 18.981C5.01242 18.4682 3.98083 17.7723 3.1035 16.8935C2.22617 16.0145 1.53125 14.9826 1.01875 13.7978C0.50625 12.6131 0.25 11.3472 0.25 10C0.25 8.6515 0.506333 7.38425 1.019 6.19825C1.53183 5.01242 2.22767 3.98083 3.1065 3.1035C3.9855 2.22617 5.01742 1.53125 6.20225 1.01875C7.38692 0.50625 8.65283 0.25 10 0.25C11.3485 0.25 12.6158 0.506334 13.8018 1.019C14.9876 1.53183 16.0192 2.22767 16.8965 3.1065C17.7738 3.9855 18.4688 5.01742 18.9813 6.20225C19.4937 7.38692 19.75 8.65283 19.75 10C19.75 11.3485 19.4937 12.6158 18.981 13.8018C18.4682 14.9876 17.7723 16.0192 16.8935 16.8965C16.0145 17.7738 14.9826 18.4688 13.7977 18.9813C12.6131 19.4937 11.3472 19.75 10 19.75ZM10 17.875C12.175 17.875 14.0312 17.1063 15.5688 15.5688C17.1063 14.0312 17.875 12.175 17.875 10C17.875 7.825 17.1063 5.96875 15.5688 4.43125C14.0312 2.89375 12.175 2.125 10 2.125C7.825 2.125 5.96875 2.89375 4.43125 4.43125C2.89375 5.96875 2.125 7.825 2.125 10C2.125 12.175 2.89375 14.0312 4.43125 15.5688C5.96875 17.1063 7.825 17.875 10 17.875Z" fill="#212529"/>
</svg>
