<svg width="20" height="18" viewBox="0 0 20 18" fill="none" xmlns="http://www.w3.org/2000/svg">
<path d="M0.9375 15.6H18.7625C19.0208 15.6 19.2417 15.6917 19.425 15.875C19.6083 16.0583 19.7 16.2792 19.7 16.5375C19.7 16.7958 19.6083 17.0167 19.425 17.2C19.2417 17.3833 19.0208 17.475 18.7625 17.475H0.9375C0.679167 17.475 0.458333 17.3833 0.275 17.2C0.0916667 17.0167 0 16.7958 0 16.5375C0 16.2792 0.0916667 16.0583 0.275 15.875C0.458333 15.6917 0.679167 15.6 0.9375 15.6ZM16.75 13.0375V0.6875C16.75 0.488833 16.8151 0.324583 16.9452 0.194749C17.0754 0.0649161 17.24 0 17.439 0C17.638 0 17.8021 0.0649161 17.9312 0.194749C18.0604 0.324583 18.125 0.488833 18.125 0.6875V13.0375C18.125 13.2362 18.0599 13.4004 17.9298 13.5302C17.7996 13.6601 17.635 13.725 17.436 13.725C17.237 13.725 17.0729 13.6601 16.9438 13.5302C16.8146 13.4004 16.75 13.2362 16.75 13.0375ZM5.575 10.15L4.525 13.05C4.45 13.2583 4.32442 13.4229 4.14825 13.5437C3.97208 13.6646 3.77683 13.725 3.5625 13.725C3.2065 13.725 2.92167 13.5745 2.708 13.2735C2.49433 12.9725 2.45417 12.6522 2.5875 12.3125L6.9625 0.6875C7.04583 0.479167 7.17908 0.3125 7.36225 0.1875C7.54542 0.0625 7.74383 0 7.9575 0H8.7815C9.0105 0 9.21458 0.0625 9.39375 0.1875C9.57292 0.3125 9.70417 0.479167 9.7875 0.6875L14.175 12.325C14.3083 12.6672 14.2682 12.9861 14.0545 13.2818C13.8408 13.5773 13.556 13.725 13.2 13.725C12.975 13.725 12.7729 13.6625 12.5938 13.5375C12.4146 13.4125 12.2833 13.2417 12.2 13.025L11.2 10.15H5.575ZM6.225 8.275H10.5L8.42625 2.475H8.325L6.225 8.275Z" fill="#212529"/>
</svg>
