<svg width="20" height="18" viewBox="0 0 20 18" fill="none" xmlns="http://www.w3.org/2000/svg">
<path d="M5.1 17.7746C4.84167 17.7746 4.62083 17.6829 4.4375 17.4996C4.25417 17.3163 4.1625 17.0954 4.1625 16.8371C4.1625 16.5788 4.25417 16.3579 4.4375 16.1746C4.62083 15.9913 4.84167 15.8996 5.1 15.8996H9.0625V12.9496H2.125C1.60933 12.9496 1.16792 12.766 0.80075 12.3989C0.433583 12.0317 0.25 11.5903 0.25 11.0746V2.09961C0.25 1.58394 0.433583 1.14253 0.80075 0.77536C1.16792 0.408193 1.60933 0.224609 2.125 0.224609H17.875C18.3907 0.224609 18.8321 0.408193 19.1992 0.77536C19.5664 1.14253 19.75 1.58394 19.75 2.09961V11.0746C19.75 11.5903 19.5664 12.0317 19.1992 12.3989C18.8321 12.766 18.3907 12.9496 17.875 12.9496H10.9375V15.8996H14.9C15.1583 15.8996 15.3792 15.9913 15.5625 16.1746C15.7458 16.3579 15.8375 16.5788 15.8375 16.8371C15.8375 17.0954 15.7458 17.3163 15.5625 17.4996C15.3792 17.6829 15.1583 17.7746 14.9 17.7746H5.1ZM2.125 11.0746H17.875V2.09961H2.125V11.0746Z" fill="black"/>
</svg>
