<svg width="16" height="20" viewBox="0 0 16 20" fill="none" xmlns="http://www.w3.org/2000/svg">
<path d="M7.775 17.4125C9.36667 16.9125 10.6938 15.9375 11.7563 14.4875C12.8188 13.0375 13.4417 11.4181 13.625 9.62925H7.775V1.875L1.875 4.08625V9.175C1.875 9.29167 1.89142 9.44167 1.92425 9.625H7.775V17.4125ZM7.775 19.275C7.66533 19.275 7.5635 19.2667 7.4695 19.25C7.3755 19.2333 7.2815 19.2083 7.1875 19.175C4.9875 18.4333 3.23958 17.0771 1.94375 15.1062C0.647917 13.1354 0 11.0064 0 8.71925V4.0875C0 3.69617 0.112667 3.344 0.338 3.031C0.5635 2.71783 0.855 2.49083 1.2125 2.35L7.1125 0.125C7.33333 0.0416667 7.55417 0 7.775 0C7.99583 0 8.21667 0.0416667 8.4375 0.125L14.3375 2.35C14.695 2.49083 14.9865 2.71783 15.212 3.031C15.4373 3.344 15.55 3.69617 15.55 4.0875V8.71925C15.55 11.0064 14.9021 13.1354 13.6062 15.1062C12.3104 17.0771 10.5625 18.4333 8.3625 19.175C8.2685 19.2083 8.1745 19.2333 8.0805 19.25C7.9865 19.2667 7.88467 19.275 7.775 19.275Z" fill="#212529"/>
</svg>
