<svg width="18" height="18" viewBox="0 0 18 18" fill="none" xmlns="http://www.w3.org/2000/svg">
<path d="M8.825 5.775V12.7125C8.825 12.9708 8.91667 13.1917 9.1 13.375C9.28333 13.5583 9.50417 13.65 9.7625 13.65C10.0208 13.65 10.2417 13.5583 10.425 13.375C10.6083 13.1917 10.7 12.9708 10.7 12.7125V4.8375C10.7 4.57917 10.6083 4.35833 10.425 4.175C10.2417 3.99167 10.0208 3.9 9.7625 3.9H7.7875C7.52917 3.9 7.30833 3.99167 7.125 4.175C6.94167 4.35833 6.85 4.57917 6.85 4.8375C6.85 5.09583 6.94167 5.31667 7.125 5.5C7.30833 5.68333 7.52917 5.775 7.7875 5.775H8.825ZM1.875 17.55C1.35933 17.55 0.917917 17.3664 0.55075 16.9993C0.183583 16.6321 0 16.1907 0 15.675V1.875C0 1.35933 0.183583 0.917917 0.55075 0.550751C0.917917 0.183584 1.35933 0 1.875 0H15.675C16.1907 0 16.6321 0.183584 16.9993 0.550751C17.3664 0.917917 17.55 1.35933 17.55 1.875V15.675C17.55 16.1907 17.3664 16.6321 16.9993 16.9993C16.6321 17.3664 16.1907 17.55 15.675 17.55H1.875ZM1.875 15.675H15.675V1.875H1.875V15.675Z" fill="#212529"/>
</svg>
