<svg width="22" height="19" viewBox="0 0 22 19" fill="none" xmlns="http://www.w3.org/2000/svg">
<path d="M20.0625 17.9375V1.9375H1.9375V9C1.9375 9.25833 1.84583 9.47917 1.6625 9.6625C1.47917 9.84583 1.25833 9.9375 1 9.9375C0.741667 9.9375 0.520833 9.84583 0.3375 9.6625C0.154167 9.47917 0.0625 9.25833 0.0625 9V1.9375C0.0625 1.42183 0.246083 0.980417 0.61325 0.613251C0.980417 0.246084 1.42183 0.0625 1.9375 0.0625H20.0625C20.5782 0.0625 21.0196 0.246084 21.3867 0.613251C21.7539 0.980417 21.9375 1.42183 21.9375 1.9375V16C21.9375 16.526 21.7542 16.9763 21.3875 17.3508C21.0208 17.7253 20.5792 17.9208 20.0625 17.9375ZM7.8375 11.2875C6.7625 11.2875 5.84792 10.9104 5.09375 10.1562C4.33958 9.40208 3.9625 8.4875 3.9625 7.4125C3.9625 6.3375 4.33958 5.42292 5.09375 4.66875C5.84792 3.91458 6.7625 3.5375 7.8375 3.5375C8.9125 3.5375 9.82708 3.91458 10.5813 4.66875C11.3354 5.42292 11.7125 6.3375 11.7125 7.4125C11.7125 8.4875 11.3354 9.40208 10.5813 10.1562C9.82708 10.9104 8.9125 11.2875 7.8375 11.2875ZM7.8375 9.4125C8.3875 9.4125 8.85833 9.21667 9.25 8.825C9.64167 8.43333 9.8375 7.9625 9.8375 7.4125C9.8375 6.8625 9.64167 6.39167 9.25 6C8.85833 5.60833 8.3875 5.4125 7.8375 5.4125C7.2875 5.4125 6.81667 5.60833 6.425 6C6.03333 6.39167 5.8375 6.8625 5.8375 7.4125C5.8375 7.9625 6.03333 8.43333 6.425 8.825C6.81667 9.21667 7.2875 9.4125 7.8375 9.4125ZM1.9375 18.9375C1.42183 18.9375 0.980417 18.7539 0.61325 18.3867C0.246083 18.0196 0.0625 17.5782 0.0625 17.0625V16.2867C0.0625 15.7372 0.202083 15.2354 0.48125 14.7812C0.760417 14.3271 1.13767 13.9791 1.613 13.7373C2.62933 13.2374 3.65625 12.8604 4.69375 12.6062C5.73125 12.3521 6.77917 12.225 7.8375 12.225C8.89583 12.225 9.94375 12.3521 10.9812 12.6062C12.0188 12.8604 13.0457 13.2374 14.062 13.7373C14.5373 13.9791 14.9146 14.3271 15.1938 14.7812C15.4729 15.2354 15.6125 15.7372 15.6125 16.2867V17.0625C15.6125 17.5782 15.4289 18.0196 15.0617 18.3867C14.6946 18.7539 14.2532 18.9375 13.7375 18.9375H1.9375ZM1.9375 17.0625H13.7375V16.2875C13.7375 16.101 13.6917 15.9315 13.6 15.779C13.5083 15.6263 13.3833 15.5083 13.225 15.425C12.3333 14.9833 11.4402 14.6521 10.5457 14.4313C9.65108 14.2104 8.74833 14.1 7.8375 14.1C6.92083 14.1 6.01667 14.2104 5.125 14.4313C4.23333 14.6521 3.34167 14.9833 2.45 15.425C2.29167 15.5083 2.16667 15.6263 2.075 15.779C1.98333 15.9315 1.9375 16.101 1.9375 16.2875V17.0625Z" fill="black"/>
</svg>
