<svg width="20" height="16" viewBox="0 0 20 16" fill="none" xmlns="http://www.w3.org/2000/svg">
<path d="M16 8.74961C16.2583 8.74961 16.4792 8.65794 16.6625 8.47461C16.8458 8.29128 16.9375 8.07044 16.9375 7.81211C16.9375 7.55378 16.8458 7.33294 16.6625 7.14961C16.4792 6.96628 16.2583 6.87461 16 6.87461H12.7375C12.4792 6.87461 12.2583 6.96628 12.075 7.14961C11.8917 7.33294 11.8 7.55378 11.8 7.81211C11.8 8.07044 11.8917 8.29128 12.075 8.47461C12.2583 8.65794 12.4792 8.74961 12.7375 8.74961H16ZM16 5.93711C16.2583 5.93711 16.4792 5.84544 16.6625 5.66211C16.8458 5.47878 16.9375 5.25794 16.9375 4.99961C16.9375 4.74128 16.8458 4.52044 16.6625 4.33711C16.4792 4.15378 16.2583 4.06211 16 4.06211H12.7375C12.4792 4.06211 12.2583 4.15378 12.075 4.33711C11.8917 4.52044 11.8 4.74128 11.8 4.99961C11.8 5.25794 11.8917 5.47878 12.075 5.66211C12.2583 5.84544 12.4792 5.93711 12.7375 5.93711H16ZM6.96875 8.92461C6.36458 8.92461 5.82917 8.97669 5.3625 9.08086C4.89583 9.18503 4.4875 9.34544 4.1375 9.56211C3.79583 9.77044 3.53333 10.02 3.35 10.3109C3.16667 10.6017 3.075 10.9146 3.075 11.2496C3.075 11.4424 3.14517 11.6032 3.2855 11.7319C3.42583 11.8604 3.59733 11.9246 3.8 11.9246H10.125C10.3277 11.9246 10.4992 11.8585 10.6395 11.7264C10.7798 11.594 10.85 11.4268 10.85 11.2246C10.85 10.8996 10.7583 10.5934 10.575 10.3059C10.3917 10.0184 10.1333 9.77044 9.8 9.56211C9.45 9.33711 9.04167 9.17461 8.575 9.07461C8.10833 8.97461 7.57292 8.92461 6.96875 8.92461ZM6.9625 7.92461C7.49183 7.92461 7.945 7.73611 8.322 7.35911C8.699 6.98211 8.8875 6.52894 8.8875 5.99961C8.8875 5.47028 8.699 5.01711 8.322 4.64011C7.945 4.26311 7.49183 4.07461 6.9625 4.07461C6.43317 4.07461 5.98 4.26311 5.603 4.64011C5.226 5.01711 5.0375 5.47028 5.0375 5.99961C5.0375 6.52894 5.226 6.98211 5.603 7.35911C5.98 7.73611 6.43317 7.92461 6.9625 7.92461ZM2.125 15.7746C1.60933 15.7746 1.16792 15.591 0.80075 15.2239C0.433583 14.8567 0.25 14.4153 0.25 13.8996V2.09961C0.25 1.58394 0.433583 1.14253 0.80075 0.77536C1.16792 0.408193 1.60933 0.224609 2.125 0.224609H17.875C18.3907 0.224609 18.8321 0.408193 19.1992 0.77536C19.5664 1.14253 19.75 1.58394 19.75 2.09961V13.8996C19.75 14.4153 19.5664 14.8567 19.1992 15.2239C18.8321 15.591 18.3907 15.7746 17.875 15.7746H2.125ZM2.125 13.8996H17.875V2.09961H2.125V13.8996Z" fill="black"/>
</svg>
