<svg width="16" height="20" viewBox="0 0 16 20" fill="none" xmlns="http://www.w3.org/2000/svg">
<path d="M8 17.2752C9.99167 15.4169 11.4688 13.7356 12.4313 12.2314C13.3938 10.7273 13.875 9.39603 13.875 8.2377C13.875 6.44603 13.3077 4.98145 12.1733 3.84395C11.0386 2.70645 9.64692 2.1377 7.99825 2.1377C6.34942 2.1377 4.95833 2.70645 3.825 3.84395C2.69167 4.98145 2.125 6.44603 2.125 8.2377C2.125 9.39603 2.60625 10.7273 3.56875 12.2314C4.53125 13.7356 6.00833 15.4169 8 17.2752ZM8 19.1002C7.775 19.1002 7.55333 19.0606 7.335 18.9814C7.1165 18.9023 6.9215 18.7835 6.75 18.6252C5.88333 17.8335 5.05833 17.0064 4.275 16.1439C3.49167 15.2814 2.80208 14.4064 2.20625 13.5189C1.61042 12.6314 1.13542 11.7419 0.78125 10.8502C0.427083 9.95853 0.25 9.0877 0.25 8.2377C0.25 5.80636 1.03125 3.86936 2.59375 2.4267C4.15625 0.984029 5.95833 0.262695 8 0.262695C10.0417 0.262695 11.8438 0.984029 13.4062 2.4267C14.9688 3.86936 15.75 5.80636 15.75 8.2377C15.75 9.0877 15.5729 9.95853 15.2188 10.8502C14.8646 11.7419 14.3896 12.6314 13.7937 13.5189C13.1979 14.4064 12.5083 15.2814 11.725 16.1439C10.9417 17.0064 10.1167 17.8335 9.25 18.6252C9.0785 18.7835 8.8835 18.9023 8.665 18.9814C8.44667 19.0606 8.225 19.1002 8 19.1002ZM8.0005 9.9377C8.5335 9.9377 8.98958 9.74795 9.36875 9.36845C9.74792 8.98895 9.9375 8.53269 9.9375 7.99969C9.9375 7.46669 9.74775 7.01061 9.36825 6.63145C8.98875 6.25228 8.5325 6.0627 7.9995 6.0627C7.4665 6.0627 7.01042 6.25245 6.63125 6.63195C6.25208 7.01145 6.0625 7.4677 6.0625 8.0007C6.0625 8.5337 6.25225 8.98978 6.63175 9.36895C7.01125 9.74811 7.4675 9.9377 8.0005 9.9377Z" fill="black"/>
</svg>
