<svg width="20" height="20" viewBox="0 0 20 20" fill="none" xmlns="http://www.w3.org/2000/svg">
<path d="M0.25 10C0.25 8.6515 0.506333 7.38425 1.019 6.19825C1.53183 5.01242 2.22767 3.98083 3.1065 3.1035C3.9855 2.22617 5.01742 1.53125 6.20225 1.01875C7.38692 0.50625 8.65283 0.25 10 0.25C12.0777 0.25 13.9304 0.827083 15.5583 1.98125C17.1861 3.13542 18.3625 4.625 19.0875 6.45C19.1958 6.71667 19.1958 6.98125 19.0875 7.24375C18.9792 7.50625 18.7919 7.68525 18.5258 7.78075C18.2753 7.86025 18.0354 7.83333 17.8063 7.7C17.5771 7.56667 17.4167 7.375 17.325 7.125C16.9333 6.125 16.3646 5.24167 15.6188 4.475C14.8729 3.70833 13.9823 3.11667 12.947 2.7V3.1C12.947 3.64433 12.7539 4.10958 12.3678 4.49575C11.9816 4.88192 11.5173 5.075 10.975 5.075H9.025V7.025C9.025 7.30833 8.92917 7.54583 8.7375 7.7375C8.54583 7.92917 8.30833 8.025 8.025 8.025H6.05V10H7.1875C7.44583 10 7.66667 10.0917 7.85 10.275C8.03333 10.4583 8.125 10.6792 8.125 10.9375V12.975H7.075L2.325 8.225C2.275 8.52083 2.22917 8.81667 2.1875 9.1125C2.14583 9.40833 2.125 9.70417 2.125 10C2.125 12.025 2.78958 13.7792 4.11875 15.2625C5.44792 16.7458 7.125 17.6 9.15 17.825C9.4 17.8583 9.60417 17.9667 9.7625 18.15C9.92083 18.3333 10 18.5542 10 18.8125C10 19.0708 9.91667 19.2917 9.75 19.475C9.58333 19.6583 9.375 19.7375 9.125 19.7125C6.625 19.4875 4.52083 18.453 2.8125 16.609C1.10417 14.765 0.25 12.562 0.25 10ZM18.3888 18.7138L15.9 16.225C15.5417 16.4417 15.1625 16.6146 14.7625 16.7438C14.3625 16.8729 13.9408 16.9375 13.4973 16.9375C12.2654 16.9375 11.2183 16.506 10.356 15.643C9.49367 14.78 9.0625 13.7321 9.0625 12.4993C9.0625 11.2664 9.494 10.2188 10.357 9.35625C11.22 8.49375 12.2679 8.0625 13.5008 8.0625C14.7336 8.0625 15.7813 8.49367 16.6438 9.356C17.5063 10.2183 17.9375 11.2654 17.9375 12.4973C17.9375 12.9408 17.8729 13.3646 17.7438 13.7688C17.6146 14.1729 17.4417 14.5542 17.225 14.9125L19.7138 17.39C19.8963 17.5717 19.9875 17.7917 19.9875 18.05C19.9875 18.3083 19.8958 18.5292 19.7125 18.7125C19.5292 18.8958 19.3083 18.9875 19.05 18.9875C18.7917 18.9875 18.5713 18.8963 18.3888 18.7138ZM13.499 15.0625C14.2163 15.0625 14.8229 14.8149 15.3188 14.3198C15.8146 13.8244 16.0625 13.2182 16.0625 12.501C16.0625 11.7837 15.8149 11.1771 15.3198 10.6813C14.8244 10.1854 14.2182 9.9375 13.501 9.9375C12.7837 9.9375 12.1771 10.1851 11.6813 10.6803C11.1854 11.1756 10.9375 11.7818 10.9375 12.499C10.9375 13.2163 11.1851 13.8229 11.6803 14.3188C12.1756 14.8146 12.7818 15.0625 13.499 15.0625Z" fill="black"/>
</svg>
