<svg width="20" height="20" viewBox="0 0 20 20" fill="none" xmlns="http://www.w3.org/2000/svg">
<path d="M1.2 19.6746C0.930833 19.6746 0.70525 19.5835 0.52325 19.4014C0.341083 19.2194 0.25 18.9938 0.25 18.7246V11.0246C0.25 10.7554 0.341083 10.5298 0.52325 10.3476C0.70525 10.1656 0.930833 10.0746 1.2 10.0746H4.175V6.02461C4.175 4.40794 4.74133 3.03711 5.874 1.91211C7.00667 0.787109 8.382 0.224609 10 0.224609H13.95C15.5667 0.224609 16.9375 0.787109 18.0625 1.91211C19.1875 3.03711 19.75 4.40794 19.75 6.02461V18.7371C19.75 18.9954 19.6583 19.2163 19.475 19.3996C19.2917 19.5829 19.0708 19.6746 18.8125 19.6746C18.5542 19.6746 18.3333 19.5829 18.15 19.3996C17.9667 19.2163 17.875 18.9954 17.875 18.7371V16.7746H13.85V18.7246C13.85 18.9938 13.7568 19.2194 13.5703 19.4014C13.3837 19.5835 13.1527 19.6746 12.877 19.6746H1.2ZM13.85 14.8996H17.875V6.02636C17.875 4.94186 17.4907 4.01628 16.722 3.24961C15.9533 2.48294 15.0293 2.09961 13.95 2.09961H9.99425C8.90642 2.09961 7.97708 2.48394 7.20625 3.25261C6.43542 4.02128 6.05 4.94528 6.05 6.02461V10.0746H12.8733C13.1494 10.0746 13.3813 10.1656 13.5688 10.3476C13.7563 10.5298 13.85 10.7554 13.85 11.0246V14.8996ZM7.05 14.7496L11.975 11.9496H2.125L7.05 14.7496ZM2.125 17.7996H11.975V13.5996L7.9875 15.8621C7.84533 15.9416 7.69517 16.0053 7.537 16.0531C7.379 16.1008 7.21667 16.1246 7.05 16.1246C6.88333 16.1246 6.721 16.1008 6.563 16.0531C6.40483 16.0053 6.25467 15.9416 6.1125 15.8621L2.125 13.5996V17.7996ZM8.9875 7.94961C8.72917 7.94961 8.50833 7.85794 8.325 7.67461C8.14167 7.49128 8.05 7.27044 8.05 7.01211C8.05 6.75378 8.14167 6.53294 8.325 6.34961C8.50833 6.16628 8.72917 6.07461 8.9875 6.07461H14.9375C15.1958 6.07461 15.4167 6.16628 15.6 6.34961C15.7833 6.53294 15.875 6.75378 15.875 7.01211C15.875 7.27044 15.7833 7.49128 15.6 7.67461C15.4167 7.85794 15.1958 7.94961 14.9375 7.94961H8.9875Z" fill="black"/>
</svg>
