<svg width="20" height="16" viewBox="0 0 20 16" fill="none" xmlns="http://www.w3.org/2000/svg">
<path d="M2.125 15.7746C1.60933 15.7746 1.16792 15.591 0.80075 15.2239C0.433583 14.8567 0.25 14.4153 0.25 13.8996V2.09961C0.25 1.58394 0.433583 1.14253 0.80075 0.77536C1.16792 0.408193 1.60933 0.224609 2.125 0.224609H17.875C18.3907 0.224609 18.8321 0.408193 19.1992 0.77536C19.5664 1.14253 19.75 1.58394 19.75 2.09961V13.8996C19.75 14.4153 19.5664 14.8567 19.1992 15.2239C18.8321 15.591 18.3907 15.7746 17.875 15.7746H2.125ZM17.875 3.97461L10.4875 8.61211C10.4042 8.65378 10.3229 8.68711 10.2438 8.71211C10.1646 8.73711 10.0833 8.74961 10 8.74961C9.91667 8.74961 9.83542 8.73711 9.75625 8.71211C9.67708 8.68711 9.59583 8.65378 9.5125 8.61211L2.125 3.97461V13.8996H17.875V3.97461ZM10 7.02461L17.85 2.09961H2.15L10 7.02461ZM2.125 4.21211V2.83086V2.84961V2.83711V4.21211Z" fill="black"/>
</svg>
