<svg width="25" height="22" viewBox="0 0 25 22" fill="none" xmlns="http://www.w3.org/2000/svg">
<path d="M2.90822 0H22.0918C22.3914 0 22.6495 0.108445 22.8659 0.325334C23.0823 0.542223 23.1905 0.800779 23.1905 1.101C23.1905 1.40122 23.0823 1.65945 22.8659 1.87567C22.6495 2.09189 22.3914 2.2 22.0918 2.2H2.90822C2.60856 2.2 2.35052 2.09156 2.1341 1.87467C1.91768 1.65778 1.80946 1.39922 1.80946 1.099C1.80946 0.798777 1.91768 0.540555 2.1341 0.324333C2.35052 0.10811 2.60856 0 2.90822 0ZM3.42064 22C3.00489 22 2.64951 21.8523 2.35451 21.557C2.05951 21.2617 1.91201 20.9059 1.91201 20.4897V13.8667H1.52013C1.02846 13.8667 0.631912 13.6757 0.330476 13.2937C0.0290404 12.9117 -0.0661849 12.4856 0.0448002 12.0153L1.5098 6.036C1.58683 5.70333 1.76463 5.42522 2.0432 5.20167C2.32177 4.97833 2.64429 4.86667 3.01077 4.86667H21.9892C22.3557 4.86667 22.6782 4.97833 22.9568 5.20167C23.2354 5.42522 23.4132 5.70333 23.4902 6.036L24.9552 12.0153C25.0662 12.4856 24.971 12.9117 24.6695 13.2937C24.3681 13.6757 23.9715 13.8667 23.4799 13.8667H23.088V20.9C23.088 21.2 22.9797 21.4583 22.763 21.675C22.5464 21.8917 22.2881 22 21.9882 22C21.6883 22 21.4304 21.8917 21.2144 21.675C20.9985 21.4583 20.8905 21.2 20.8905 20.9V13.8667H14.9639V20.4897C14.9639 20.9059 14.8164 21.2617 14.5214 21.557C14.2264 21.8523 13.871 22 13.4552 22H3.42064ZM4.10952 19.8H12.7664V13.8667H4.10952V19.8ZM2.35251 11.6667H22.6475L21.5128 7.06667H3.48723L2.35251 11.6667Z" fill="#212529"/>
</svg>
