<svg width="20" height="22" viewBox="0 0 20 22" fill="none" xmlns="http://www.w3.org/2000/svg">
<path d="M4.95726 3.46739C4.4982 3.46739 4.10807 3.63299 3.7869 3.96418C3.46553 4.29558 3.30484 4.69792 3.30484 5.1712C3.30484 5.65284 3.46515 6.06216 3.78576 6.39913C4.10636 6.7363 4.49573 6.90489 4.95385 6.90489C5.41197 6.90489 5.79772 6.7367 6.11111 6.40033C6.4245 6.06395 6.5812 5.65543 6.5812 5.17478C6.5812 4.69413 6.42336 4.2894 6.10769 3.9606C5.79183 3.63179 5.40836 3.46739 4.95726 3.46739ZM4.95726 15.0951C4.4982 15.0951 4.10807 15.2633 3.7869 15.5997C3.46553 15.9361 3.30484 16.3446 3.30484 16.8252C3.30484 17.3059 3.46515 17.7106 3.78576 18.0394C4.10636 18.3682 4.49573 18.5326 4.95385 18.5326C5.41197 18.5326 5.79772 18.3669 6.11111 18.0355C6.4245 17.7043 6.5812 17.3021 6.5812 16.8288C6.5812 16.3472 6.42336 15.9378 6.10769 15.6009C5.79183 15.2637 5.40836 15.0951 4.95726 15.0951ZM1.11111 0H18.8889C19.1928 0 19.4539 0.108804 19.6724 0.326413C19.8908 0.544221 20 0.81404 20 1.13587V9.20652C20 9.54529 19.8908 9.82428 19.6724 10.0435C19.4539 10.2627 19.1928 10.3723 18.8889 10.3723H1.11111C0.807218 10.3723 0.546059 10.2627 0.327635 10.0435C0.109212 9.82428 0 9.54529 0 9.20652V1.13587C0 0.81404 0.109212 0.544221 0.327635 0.326413C0.546059 0.108804 0.807218 0 1.11111 0ZM2.13675 2.24185V8.13043H17.8632V2.24185H2.13675ZM1.11111 11.6277H18.8889C19.1928 11.6277 19.4539 11.7423 19.6724 11.9715C19.8908 12.2006 20 12.4746 20 12.7935V20.8342C20 21.173 19.8908 21.452 19.6724 21.6712C19.4539 21.8904 19.1928 22 18.8889 22H1.11111C0.807218 22 0.546059 21.8904 0.327635 21.6712C0.109212 21.452 0 21.173 0 20.8342V12.7935C0 12.4746 0.109212 12.2006 0.327635 11.9715C0.546059 11.7423 0.807218 11.6277 1.11111 11.6277ZM2.13675 13.8696V19.7582H17.8632V13.8696H2.13675Z" fill="#212529"/>
</svg>
