<svg width="72" height="72" viewBox="0 0 72 72" fill="none" xmlns="http://www.w3.org/2000/svg">
<path d="M36 72C31.0154 72 26.3385 71.0538 21.9692 69.1615C17.6 67.2692 13.7923 64.7 10.5462 61.4538C7.3 58.2077 4.73077 54.4 2.83846 50.0308C0.946154 45.6615 0 40.9846 0 36C0 31.0154 0.946154 26.3385 2.83846 21.9692C4.73077 17.6 7.3 13.7923 10.5462 10.5462C13.7923 7.3 17.6 4.73077 21.9692 2.83846C26.3385 0.946154 31.0154 0 36 0C40.9846 0 45.6615 0.946154 50.0308 2.83846C54.4 4.73077 58.2077 7.3 61.4538 10.5462C64.7 13.7923 67.2692 17.6 69.1615 21.9692C71.0538 26.3385 72 31.0154 72 36C72 40.9846 71.0538 45.6615 69.1615 50.0308C67.2692 54.4 64.7 58.2077 61.4538 61.4538C58.2077 64.7 54.4 67.2692 50.0308 69.1615C45.6615 71.0538 40.9846 72 36 72ZM36 65.0769C39.3231 65.0769 42.5077 64.5385 45.5538 63.4615C48.6 62.3846 51.4154 60.8308 54 58.8L13.2 18C11.1692 20.5846 9.61538 23.4 8.53846 26.4462C7.46154 29.4923 6.92308 32.6769 6.92308 36C6.92308 44.0923 9.74615 50.9615 15.3923 56.6077C21.0385 62.2538 27.9077 65.0769 36 65.0769ZM58.8 54C60.8308 51.4154 62.3846 48.6 63.4615 45.5538C64.5385 42.5077 65.0769 39.3231 65.0769 36C65.0769 27.9077 62.2538 21.0385 56.6077 15.3923C50.9615 9.74615 44.0923 6.92308 36 6.92308C32.6769 6.92308 29.4923 7.46154 26.4462 8.53846C23.4 9.61538 20.5846 11.1692 18 13.2L58.8 54Z" fill="#FF0000"/>
</svg>
