<svg width="16" height="16" viewBox="0 0 16 16" fill="none" xmlns="http://www.w3.org/2000/svg">
<path d="M8 14.5C7.10556 14.5 6.26361 14.3297 5.47417 13.989C4.68472 13.6483 3.99533 13.1833 3.406 12.594C2.81667 12.0047 2.35167 11.3153 2.011 10.5258C1.67033 9.73639 1.5 8.89439 1.5 7.99983C1.5 7.09439 1.675 6.24722 2.025 5.45833C2.375 4.66944 2.85 3.98194 3.45 3.39583C4.05 2.80972 4.75278 2.34722 5.55833 2.00833C6.36389 1.66944 7.22111 1.5 8.13 1.5C8.99567 1.5 9.81267 1.65 10.581 1.95C11.3492 2.25 12.0236 2.66183 12.604 3.1855C13.1844 3.70917 13.6456 4.33 13.9873 5.048C14.3291 5.766 14.5 6.53889 14.5 7.36667C14.5 8.61111 14.1236 9.56389 13.3708 10.225C12.6181 10.8861 11.7005 11.2167 10.6182 11.2167H9.41667C9.3 11.2167 9.21528 11.2486 9.1625 11.3125C9.10972 11.3764 9.08333 11.45 9.08333 11.5333C9.08333 11.6772 9.16667 11.884 9.33333 12.1537C9.5 12.4234 9.58333 12.7222 9.58333 13.05C9.58333 13.5222 9.44722 13.8819 9.175 14.1292C8.90278 14.3764 8.51111 14.5 8 14.5ZM4.38333 8.61667C4.65778 8.61667 4.88472 8.52695 5.06417 8.3475C5.24361 8.16806 5.33333 7.94111 5.33333 7.66667C5.33333 7.39222 5.24361 7.16528 5.06417 6.98583C4.88472 6.80639 4.65778 6.71667 4.38333 6.71667C4.10889 6.71667 3.88194 6.80639 3.7025 6.98583C3.52306 7.16528 3.43333 7.39222 3.43333 7.66667C3.43333 7.94111 3.52306 8.16806 3.7025 8.3475C3.88194 8.52695 4.10889 8.61667 4.38333 8.61667ZM6.36667 5.98333C6.64111 5.98333 6.86806 5.89361 7.0475 5.71417C7.22694 5.53472 7.31667 5.30778 7.31667 5.03333C7.31667 4.75889 7.22694 4.53194 7.0475 4.3525C6.86806 4.17306 6.64111 4.08333 6.36667 4.08333C6.09222 4.08333 5.86528 4.17306 5.68583 4.3525C5.50639 4.53194 5.41667 4.75889 5.41667 5.03333C5.41667 5.30778 5.50639 5.53472 5.68583 5.71417C5.86528 5.89361 6.09222 5.98333 6.36667 5.98333ZM9.65 5.98333C9.92445 5.98333 10.1514 5.89361 10.3308 5.71417C10.5103 5.53472 10.6 5.30778 10.6 5.03333C10.6 4.75889 10.5103 4.53194 10.3308 4.3525C10.1514 4.17306 9.92445 4.08333 9.65 4.08333C9.37556 4.08333 9.14861 4.17306 8.96917 4.3525C8.78972 4.53194 8.7 4.75889 8.7 5.03333C8.7 5.30778 8.78972 5.53472 8.96917 5.71417C9.14861 5.89361 9.37556 5.98333 9.65 5.98333ZM11.6167 8.61667C11.8911 8.61667 12.1181 8.52695 12.2975 8.3475C12.4769 8.16806 12.5667 7.94111 12.5667 7.66667C12.5667 7.39222 12.4769 7.16528 12.2975 6.98583C12.1181 6.80639 11.8911 6.71667 11.6167 6.71667C11.3422 6.71667 11.1153 6.80639 10.9358 6.98583C10.7564 7.16528 10.6667 7.39222 10.6667 7.66667C10.6667 7.94111 10.7564 8.16806 10.9358 8.3475C11.1153 8.52695 11.3422 8.61667 11.6167 8.61667ZM8.00267 13.25C8.10089 13.25 8.18056 13.2222 8.24167 13.1667C8.30278 13.1111 8.33333 13.0389 8.33333 12.95C8.33333 12.7944 8.25278 12.6083 8.09167 12.3917C7.93056 12.175 7.85 11.8611 7.85 11.45C7.85 10.9889 8.00694 10.6264 8.32083 10.3625C8.63472 10.0986 9.02222 9.96667 9.48333 9.96667H10.6167C11.35 9.96667 11.9722 9.75694 12.4833 9.3375C12.9944 8.91806 13.25 8.26111 13.25 7.36667C13.25 6.05 12.7431 4.95139 11.7292 4.07083C10.7153 3.19028 9.51617 2.75 8.13183 2.75C6.6495 2.75 5.38194 3.25861 4.32917 4.27583C3.27639 5.29294 2.75 6.53433 2.75 8C2.75 9.45 3.2625 10.6875 4.2875 11.7125C5.3125 12.7375 6.55089 13.25 8.00267 13.25Z" fill="#212529"/>
</svg>
