<svg width="26" height="22" viewBox="0 0 26 22" fill="none" xmlns="http://www.w3.org/2000/svg">
<path d="M26 2.82385V19.1761C26 19.9793 25.74 20.6507 25.22 21.1904C24.7 21.7301 24.0531 22 23.2793 22H18.9446C18.6744 22 18.4417 21.8986 18.2465 21.6959C18.0514 21.4931 17.9538 21.2514 17.9538 20.9707C17.9538 20.6901 18.0514 20.4487 18.2465 20.2465C18.4417 20.0444 18.6744 19.9433 18.9446 19.9433H23.2793C23.4949 19.9433 23.672 19.8715 23.8107 19.7277C23.9492 19.5837 24.0185 19.3999 24.0185 19.1761V2.82385C24.0185 2.60011 23.9492 2.41626 23.8107 2.27229C23.672 2.12854 23.4949 2.05666 23.2793 2.05666H13.4503C13.2348 2.05666 13.0577 2.12854 12.9192 2.27229C12.7805 2.41626 12.7112 2.60011 12.7112 2.82385V3.66272C12.471 3.48614 12.2633 3.33812 12.0882 3.21867C11.9129 3.09922 11.7901 3.03949 11.7198 3.03949C11.4494 3.03949 11.2168 2.94341 11.0221 2.75125C10.8271 2.55908 10.7297 2.34355 10.7297 2.10465V1.31346C10.7297 0.829 10.884 0.489027 11.1926 0.293541C11.5012 0.0978465 11.999 0 12.686 0H23.2793C24.0531 0 24.7 0.269858 25.22 0.809574C25.74 1.34929 26 2.02072 26 2.82385ZM0 11.4771C0 11.0267 0.0958738 10.5973 0.287621 10.1889C0.479169 9.78044 0.75438 9.44442 1.11326 9.18079L6.4988 5.20646C6.73818 5.03279 6.99158 4.90149 7.25898 4.81258C7.52659 4.72346 7.80821 4.6789 8.10383 4.6789C8.39946 4.6789 8.68158 4.72346 8.95018 4.81258C9.21879 4.90149 9.47329 5.03279 9.71367 5.20646L15.0992 9.18079C15.4521 9.43736 15.7259 9.77317 15.9206 10.1882C16.1152 10.6031 16.2125 11.0327 16.2125 11.4771V20.8277C16.2125 21.1501 16.1019 21.4261 15.8807 21.6557C15.6595 21.8852 15.3936 22 15.083 22H10.9098C10.5994 22 10.3335 21.8852 10.1124 21.6557C9.89121 21.4261 9.78062 21.1501 9.78062 20.8277V15.3938H6.43185V20.8277C6.43185 21.1501 6.32126 21.4261 6.10009 21.6557C5.87892 21.8852 5.61312 22 5.30268 22H1.12947C0.81883 22 0.552925 21.8852 0.331755 21.6557C0.110585 21.4261 0 21.1501 0 20.8277V11.4771ZM1.98152 11.5017V19.1761C1.98152 19.3999 2.05078 19.5837 2.18928 19.7277C2.32799 19.8715 2.50513 19.9433 2.72069 19.9433H4.19182C4.40719 19.9433 4.58423 19.8715 4.72293 19.7277C4.86144 19.5837 4.93069 19.3999 4.93069 19.1761V14.2888C4.93069 14.1542 4.97102 14.045 5.05169 13.9613C5.13235 13.8776 5.23753 13.8357 5.36723 13.8357H10.8452C10.9749 13.8357 11.0801 13.8776 11.1608 13.9613C11.2414 14.045 11.2818 14.1542 11.2818 14.2888V19.1761C11.2818 19.3999 11.351 19.5837 11.4895 19.7277C11.6282 19.8715 11.8053 19.9433 12.0206 19.9433H13.4918C13.7073 19.9433 13.8845 19.8715 14.0232 19.7277C14.1617 19.5837 14.2309 19.3999 14.2309 19.1761V11.5017C14.2309 11.3737 14.204 11.2539 14.1502 11.1421C14.0963 11.0301 14.0155 10.9342 13.9076 10.8545L8.52206 6.96583C8.39876 6.86986 8.26015 6.82187 8.10624 6.82187C7.95232 6.82187 7.81371 6.86986 7.69042 6.96583L2.30487 10.8545C2.19699 10.9342 2.11613 11.0301 2.06229 11.1421C2.00845 11.2539 1.98152 11.3737 1.98152 11.5017ZM20.12 7.06649H21.4038C21.5873 7.06649 21.7425 6.99502 21.8694 6.8521C21.9965 6.70938 22.0601 6.54277 22.0601 6.35227V5.0198C22.0601 4.8293 21.9965 4.6682 21.8694 4.53649C21.7425 4.40457 21.5873 4.33861 21.4038 4.33861H20.12C19.9364 4.33861 19.7759 4.40457 19.6384 4.53649C19.5007 4.6682 19.4318 4.8293 19.4318 5.0198V6.35227C19.4318 6.54277 19.5007 6.70938 19.6384 6.8521C19.7759 6.99502 19.9364 7.06649 20.12 7.06649ZM20.12 12.3639H21.4038C21.5873 12.3639 21.7425 12.2925 21.8694 12.1495C21.9965 12.0068 22.0601 11.8402 22.0601 11.6497V10.3173C22.0601 10.1268 21.9965 9.96565 21.8694 9.83394C21.7425 9.70202 21.5873 9.63606 21.4038 9.63606H20.12C19.9364 9.63606 19.7759 9.70202 19.6384 9.83394C19.5007 9.96565 19.4318 10.1268 19.4318 10.3173V11.6497C19.4318 11.8402 19.5007 12.0068 19.6384 12.1495C19.7759 12.2925 19.9364 12.3639 20.12 12.3639ZM20.12 17.6614H21.4038C21.5873 17.6614 21.7425 17.5899 21.8694 17.447C21.9965 17.3043 22.0601 17.1377 22.0601 16.9472V15.6147C22.0601 15.4242 21.9965 15.2631 21.8694 15.1314C21.7425 14.9995 21.5873 14.9335 21.4038 14.9335H20.12C19.9364 14.9335 19.7759 14.9995 19.6384 15.1314C19.5007 15.2631 19.4318 15.4242 19.4318 15.6147V16.9472C19.4318 17.1377 19.5007 17.3043 19.6384 17.447C19.7759 17.5899 19.9364 17.6614 20.12 17.6614Z" fill="#212529"/>
</svg>
