<svg width="28" height="28" viewBox="0 0 28 28" fill="none" xmlns="http://www.w3.org/2000/svg">
<path d="M1.16602 20.9274C0.864627 20.9274 0.606988 20.8205 0.393099 20.6066C0.17921 20.3927 0.0722656 20.135 0.0722656 19.8337V19.1678C0.0722656 18.3381 0.495182 17.6705 1.34102 17.1649C2.18685 16.6594 3.29518 16.4066 4.66602 16.4066C4.95768 16.4066 5.22747 16.4139 5.47539 16.4285C5.72331 16.443 5.95421 16.4694 6.1681 16.5075C5.9056 16.9069 5.71115 17.3219 5.58477 17.7526C5.45838 18.1835 5.39518 18.6331 5.39518 19.1013V20.9274H1.16602ZM8.16602 20.9274C7.86463 20.9274 7.60699 20.8205 7.3931 20.6066C7.17921 20.3927 7.07227 20.135 7.07227 19.8337V19.1045C7.07227 18.5017 7.23754 17.9451 7.5681 17.4347C7.89865 16.9243 8.37504 16.4795 8.99727 16.1003C9.61949 15.7212 10.3579 15.4344 11.2125 15.2399C12.0671 15.0455 12.9937 14.9482 13.9923 14.9482C15.0101 14.9482 15.9462 15.0455 16.8008 15.2399C17.6554 15.4344 18.3938 15.7212 19.016 16.1003C19.6382 16.4795 20.1122 16.9221 20.4379 17.4283C20.7636 17.9344 20.9264 18.4932 20.9264 19.1045V19.8337C20.9264 20.135 20.8195 20.3927 20.6056 20.6066C20.3917 20.8205 20.1341 20.9274 19.8327 20.9274H8.16602ZM22.6035 20.9274V19.1045C22.6035 18.6281 22.5428 18.1736 22.4212 17.741C22.2997 17.3083 22.1174 16.8975 21.8743 16.5087C22.0882 16.4698 22.3143 16.443 22.5525 16.4285C22.7907 16.4139 23.0507 16.4066 23.3327 16.4066C24.7035 16.4066 25.8118 16.6576 26.6577 17.1597C27.5035 17.6615 27.9264 18.3292 27.9264 19.1628V19.8337C27.9264 20.135 27.8195 20.3927 27.6056 20.6066C27.3917 20.8205 27.1341 20.9274 26.8327 20.9274H22.6035ZM9.37643 18.7399H18.6514C18.4764 18.2927 17.9417 17.9135 17.0473 17.6024C16.1528 17.2913 15.1393 17.1357 14.0066 17.1357C12.874 17.1357 11.8605 17.2913 10.966 17.6024C10.0716 17.9135 9.54171 18.2927 9.37643 18.7399ZM4.66543 15.0941C4.0436 15.0941 3.5115 14.8726 3.06914 14.4297C2.62678 13.9867 2.4056 13.4543 2.4056 12.8325C2.4056 12.1916 2.62707 11.6548 3.07002 11.2222C3.51296 10.7896 4.04535 10.5732 4.66718 10.5732C5.30807 10.5732 5.84484 10.7899 6.27747 11.2234C6.71011 11.6568 6.92643 12.1937 6.92643 12.8342C6.92643 13.4561 6.70972 13.9882 6.27631 14.4305C5.84289 14.8729 5.30593 15.0941 4.66543 15.0941ZM23.3321 15.0941C22.7103 15.0941 22.1782 14.8726 21.7358 14.4297C21.2934 13.9867 21.0723 13.4543 21.0723 12.8325C21.0723 12.1916 21.2937 11.6548 21.7367 11.2222C22.1796 10.7896 22.712 10.5732 23.3338 10.5732C23.9747 10.5732 24.5115 10.7899 24.9441 11.2234C25.3768 11.6568 25.5931 12.1937 25.5931 12.8342C25.5931 13.4561 25.3764 13.9882 24.943 14.4305C24.5096 14.8729 23.9726 15.0941 23.3321 15.0941ZM13.9923 13.9274C13.0442 13.9274 12.2372 13.5942 11.5712 12.9279C10.9053 12.2615 10.5723 11.4523 10.5723 10.5003C10.5723 9.53783 10.9054 8.72602 11.5718 8.06491C12.2382 7.4038 13.0473 7.07324 13.9993 7.07324C14.9618 7.07324 15.7737 7.4038 16.4348 8.06491C17.0959 8.72602 17.4264 9.54016 17.4264 10.5073C17.4264 11.4554 17.0959 12.2625 16.4348 12.9285C15.7737 13.5944 14.9595 13.9274 13.9923 13.9274ZM14.0066 11.7399C14.3518 11.7399 14.6434 11.6184 14.8816 11.3753C15.1198 11.1323 15.2389 10.8382 15.2389 10.493C15.2389 10.1479 15.1201 9.85623 14.8825 9.61803C14.6449 9.37984 14.3505 9.26074 13.9993 9.26074C13.6591 9.26074 13.3674 9.37955 13.1243 9.61716C12.8813 9.85477 12.7598 10.1492 12.7598 10.5003C12.7598 10.8406 12.8813 11.1323 13.1243 11.3753C13.3674 11.6184 13.6615 11.7399 14.0066 11.7399Z" fill="#212529"/>
</svg>
