<svg width="26" height="26" viewBox="0 0 26 26" fill="none" xmlns="http://www.w3.org/2000/svg">
<path d="M5.48438 19.3594C6.56771 18.5573 7.73698 17.9323 8.99219 17.4844C10.2474 17.0365 11.5833 16.8125 13 16.8125C14.4167 16.8125 15.7526 17.0365 17.0078 17.4844C18.263 17.9323 19.4323 18.5573 20.5156 19.3594C21.276 18.474 21.8542 17.4959 22.25 16.4253C22.6458 15.3549 22.8438 14.2124 22.8438 12.9978C22.8438 10.2597 21.888 7.9349 19.9766 6.02344C18.0651 4.11198 15.7396 3.15625 13 3.15625C10.2604 3.15625 7.9349 4.11198 6.02344 6.02344C4.11198 7.9349 3.15625 10.2597 3.15625 12.9978C3.15625 14.2124 3.35417 15.3549 3.75 16.4253C4.14583 17.4959 4.72396 18.474 5.48438 19.3594ZM13.0034 14.1875C11.7928 14.1875 10.7708 13.772 9.9375 12.9409C9.10417 12.1099 8.6875 11.0891 8.6875 9.87844C8.6875 8.66781 9.10302 7.64583 9.93406 6.8125C10.7651 5.97917 11.7859 5.5625 12.9966 5.5625C14.2072 5.5625 15.2292 5.97802 16.0625 6.80906C16.8958 7.6401 17.3125 8.66094 17.3125 9.87156C17.3125 11.0822 16.897 12.1042 16.0659 12.9375C15.2349 13.7708 14.2141 14.1875 13.0034 14.1875ZM13 25.1875C11.3144 25.1875 9.73031 24.8671 8.24781 24.2262C6.76552 23.5852 5.47604 22.7154 4.37937 21.6169C3.28271 20.5181 2.41406 19.2282 1.77344 17.7472C1.13281 16.2664 0.8125 14.684 0.8125 13C0.8125 11.3144 1.13292 9.73031 1.77375 8.24781C2.41479 6.76552 3.28458 5.47604 4.38312 4.37938C5.48187 3.28271 6.77177 2.41406 8.25281 1.77344C9.73365 1.13281 11.316 0.8125 13 0.8125C14.6856 0.8125 16.2697 1.13292 17.7522 1.77375C19.2345 2.41479 20.524 3.28458 21.6206 4.38313C22.7173 5.48188 23.5859 6.77177 24.2266 8.25281C24.8672 9.73365 25.1875 11.316 25.1875 13C25.1875 14.6856 24.8671 16.2697 24.2262 17.7522C23.5852 19.2345 22.7154 20.524 21.6169 21.6206C20.5181 22.7173 19.2282 23.5859 17.7472 24.2266C16.2664 24.8672 14.684 25.1875 13 25.1875ZM13 22.8438C14.0833 22.8438 15.1016 22.6875 16.0547 22.375C17.0078 22.0625 17.9062 21.6042 18.75 21C17.9062 20.4062 17.0078 19.9505 16.0547 19.6328C15.1016 19.3151 14.084 19.1562 13.0019 19.1562C11.9198 19.1562 10.899 19.3125 9.93937 19.625C8.97979 19.9375 8.08333 20.3958 7.25 21C8.09375 21.6042 8.99219 22.0625 9.94531 22.375C10.8984 22.6875 11.9167 22.8438 13 22.8438ZM13 11.8438C13.5521 11.8438 14.0182 11.6536 14.3984 11.2734C14.7786 10.8932 14.9688 10.4271 14.9688 9.875C14.9688 9.32292 14.7786 8.85677 14.3984 8.47656C14.0182 8.09635 13.5521 7.90625 13 7.90625C12.4479 7.90625 11.9818 8.09635 11.6016 8.47656C11.2214 8.85677 11.0312 9.32292 11.0312 9.875C11.0312 10.4271 11.2214 10.8932 11.6016 11.2734C11.9818 11.6536 12.4479 11.8438 13 11.8438Z" fill="#212529"/>
</svg>
