<svg width="36" height="38" viewBox="0 0 36 38" fill="none" xmlns="http://www.w3.org/2000/svg">
<path d="M0.81903 25.976C0.26391 25.5551 -0.0090245 25.0152 0.000227508 24.3564C0.00947951 23.6975 0.290556 23.154 0.843455 22.7257C1.2239 22.4402 1.63876 22.2975 2.08803 22.2975C2.53731 22.2975 2.95624 22.4439 3.34483 22.7367L18 33.8547L32.6552 22.7367C33.0253 22.4622 33.4416 22.3204 33.9042 22.3112C34.3668 22.3021 34.7831 22.4439 35.1532 22.7367C35.7083 23.1576 35.9905 23.6975 35.9998 24.3564C36.009 25.0152 35.7361 25.5551 35.181 25.976L20.5258 37.1489C19.7705 37.7162 18.9295 37.9999 18.0028 37.9999C17.0757 37.9999 16.2329 37.7162 15.4742 37.1489L0.81903 25.976ZM15.4742 26.7996L2.95624 17.2738C1.86451 16.4426 1.31864 15.3518 1.31864 14.0016C1.31864 12.6509 1.86451 11.5638 2.95624 10.7403L15.4742 1.21453C16.2295 0.647194 17.0705 0.363525 17.9972 0.363525C18.9243 0.363525 19.7671 0.647194 20.5258 1.21453L33.0438 10.7403C34.1355 11.5715 34.6814 12.6623 34.6814 14.0125C34.6814 15.3632 34.1355 16.4503 33.0438 17.2738L20.5258 26.7996C19.7705 27.3669 18.9295 27.6506 18.0028 27.6506C17.0757 27.6506 16.2329 27.3669 15.4742 26.7996ZM18 23.5054L30.518 14.0071L18 4.50874L5.48204 14.0071L18 23.5054Z" fill="white"/>
</svg>
