<svg width="37" height="38" viewBox="0 0 37 38" fill="none" xmlns="http://www.w3.org/2000/svg">
<path d="M4.22559 37.9531C3.25871 37.9531 2.43105 37.6089 1.74262 36.9205C1.05418 36.232 0.709961 35.4044 0.709961 34.4375V8.5625C0.709961 7.59562 1.05418 6.76797 1.74262 6.07953C2.43105 5.3911 3.25871 5.04688 4.22559 5.04688H16.6006C17.1865 5.04688 17.6261 5.22656 17.9192 5.58594C18.212 5.94531 18.3584 6.34766 18.3584 6.79297C18.3584 7.23828 18.2064 7.64453 17.9023 8.01172C17.5982 8.37891 17.1565 8.5625 16.5771 8.5625H4.22559V34.4375H30.1006V22.0156C30.1006 21.4297 30.2837 20.9902 30.65 20.697C31.0162 20.4042 31.419 20.2578 31.8584 20.2578C32.3115 20.2578 32.7178 20.4042 33.0771 20.697C33.4365 20.9902 33.6162 21.4297 33.6162 22.0156V34.4375C33.6162 35.4044 33.272 36.232 32.5836 36.9205C31.8951 37.6089 31.0675 37.9531 30.1006 37.9531H4.22559ZM11.6553 25.25V20.6562C11.6553 20.1831 11.745 19.732 11.9243 19.303C12.1037 18.8742 12.3578 18.4972 12.6865 18.1719L28.9287 1.92969C29.2881 1.57031 29.6787 1.30859 30.1006 1.14453C30.5225 0.980469 30.9564 0.898438 31.4023 0.898438C31.8782 0.898438 32.3271 0.980469 32.749 1.14453C33.1709 1.30859 33.5615 1.57031 33.9209 1.92969L36.71 4.76562C37.0381 5.125 37.2881 5.51562 37.46 5.9375C37.6318 6.35938 37.7178 6.79688 37.7178 7.25C37.7178 7.70312 37.6396 8.13672 37.4834 8.55078C37.3271 8.96484 37.0693 9.35156 36.71 9.71094L20.4912 25.9531C20.1659 26.2753 19.7889 26.5317 19.3601 26.7223C18.9311 26.9127 18.48 27.0078 18.0068 27.0078H13.4131C12.9287 27.0078 12.5146 26.8359 12.1709 26.4922C11.8271 26.1484 11.6553 25.7344 11.6553 25.25ZM15.1709 23.4922H17.9834L28.9756 12.4766L27.5693 11.0703L26.1396 9.6875L15.1709 20.6328V23.4922Z" fill="#212529"/>
</svg>
