<svg width="38" height="30" viewBox="0 0 38 30" fill="none" xmlns="http://www.w3.org/2000/svg">
<path d="M19.0005 24.3075C19.4258 24.3075 19.782 24.1637 20.069 23.876C20.3563 23.5887 20.5 23.2323 20.5 22.807C20.5 22.3817 20.3562 22.0255 20.0685 21.7385C19.7808 21.4512 19.4245 21.3075 18.9995 21.3075C18.5742 21.3075 18.218 21.4513 17.931 21.739C17.6437 22.0267 17.5 22.3832 17.5 22.8085C17.5 23.2335 17.6438 23.5897 17.9315 23.877C18.2192 24.164 18.5755 24.3075 19.0005 24.3075ZM19.0005 16.5C19.4258 16.5 19.782 16.3562 20.069 16.0685C20.3563 15.7808 20.5 15.4245 20.5 14.9995C20.5 14.5742 20.3562 14.218 20.0685 13.931C19.7808 13.6437 19.4245 13.5 18.9995 13.5C18.5742 13.5 18.218 13.6438 17.931 13.9315C17.6437 14.2192 17.5 14.5755 17.5 15.0005C17.5 15.4258 17.6438 15.782 17.9315 16.069C18.2192 16.3563 18.5755 16.5 19.0005 16.5ZM19.0005 8.6925C19.4258 8.6925 19.782 8.54867 20.069 8.261C20.3563 7.97333 20.5 7.61683 20.5 7.1915C20.5 6.7665 20.3562 6.41033 20.0685 6.123C19.7808 5.836 19.4245 5.6925 18.9995 5.6925C18.5742 5.6925 18.218 5.83633 17.931 6.124C17.6437 6.41133 17.5 6.76767 17.5 7.193C17.5 7.61833 17.6438 7.9745 17.9315 8.2615C18.2192 8.54883 18.5755 8.6925 19.0005 8.6925ZM34.3845 30H3.6155C2.62117 30 1.77 29.646 1.062 28.938C0.354 28.23 0 27.3788 0 26.3845V19.808C1.13867 19.59 2.09 19.0315 2.854 18.1325C3.618 17.2338 4 16.1897 4 15C4 13.8103 3.618 12.7662 2.854 11.8675C2.09 10.9685 1.13867 10.41 0 10.192V3.6155C0 2.62117 0.354 1.77 1.062 1.062C1.77 0.354 2.62117 0 3.6155 0H34.3845C35.3788 0 36.23 0.354 36.938 1.062C37.646 1.77 38 2.62117 38 3.6155V10.192C36.8613 10.41 35.91 10.9685 35.146 11.8675C34.382 12.7662 34 13.8103 34 15C34 16.1897 34.382 17.2338 35.146 18.1325C35.91 19.0315 36.8613 19.59 38 19.808V26.3845C38 27.3788 37.646 28.23 36.938 28.938C36.23 29.646 35.3788 30 34.3845 30ZM34.3845 27C34.5642 27 34.7117 26.9423 34.827 26.827C34.9423 26.7117 35 26.5642 35 26.3845V21.9C33.7667 21.1667 32.7917 20.1917 32.075 18.975C31.3583 17.7583 31 16.4333 31 15C31 13.5667 31.3583 12.2417 32.075 11.025C32.7917 9.80833 33.7667 8.83333 35 8.1V3.6155C35 3.43583 34.9423 3.28833 34.827 3.173C34.7117 3.05767 34.5642 3 34.3845 3H3.6155C3.43583 3 3.28833 3.05767 3.173 3.173C3.05767 3.28833 3 3.43583 3 3.6155V8.1C4.23333 8.83333 5.20833 9.80833 5.925 11.025C6.64167 12.2417 7 13.5667 7 15C7 16.4333 6.64167 17.7583 5.925 18.975C5.20833 20.1917 4.23333 21.1667 3 21.9V26.3845C3 26.5642 3.05767 26.7117 3.173 26.827C3.28833 26.9423 3.43583 27 3.6155 27H34.3845Z" fill="white"/>
</svg>
