<svg width="158" height="24" viewBox="0 0 158 24" fill="none" xmlns="http://www.w3.org/2000/svg">
<path d="M45 2V24H9.644V8.28516H12.856V20.8555H41.784V5.14063H3.21599V20.8555H6.428V24H0V2H45Z" fill="#212529"/>
<path d="M64.5659 10.7C64.5659 11.5933 64.3593 12.4067 63.9459 13.14C63.5326 13.86 62.9193 14.4333 62.1059 14.86C61.3059 15.2867 60.3326 15.5 59.1859 15.5H57.4259V20H52.9859V5.84H59.1859C60.9193 5.84 62.2459 6.28 63.1659 7.16C64.0993 8.04 64.5659 9.22 64.5659 10.7ZM58.6859 12C59.6059 12 60.0659 11.5667 60.0659 10.7C60.0659 9.83333 59.6059 9.4 58.6859 9.4H57.4259V12H58.6859ZM75.6542 17.86H70.9342L70.2342 20H65.5742L70.7542 5.84H75.8742L81.0342 20H76.3542L75.6542 17.86ZM74.5742 14.52L73.2942 10.58L72.0142 14.52H74.5742ZM89.763 20L87.103 14.92H87.083V20H82.643V5.84H89.243C90.3896 5.84 91.3696 6.04667 92.183 6.46C92.9963 6.86 93.603 7.41333 94.003 8.12C94.4163 8.81333 94.623 9.6 94.623 10.48C94.623 11.4267 94.3563 12.2667 93.823 13C93.303 13.7333 92.5496 14.26 91.563 14.58L94.643 20H89.763ZM87.083 11.96H88.843C89.2696 11.96 89.5896 11.8667 89.803 11.68C90.0163 11.48 90.123 11.1733 90.123 10.76C90.123 10.3867 90.0096 10.0933 89.783 9.88C89.5696 9.66667 89.2563 9.56 88.843 9.56H87.083V11.96ZM107.761 5.84V9.36H104.001V20H99.5614V9.36H95.8414V5.84H107.761ZM114.006 5.84V20H109.566V5.84H114.006Z" fill="#202124"/>
<path d="M121.051 16.64H125.331V20H116.611V5.84H121.051V16.64ZM134.228 20.14C132.895 20.14 131.668 19.8267 130.548 19.2C129.441 18.5733 128.561 17.7067 127.908 16.6C127.255 15.4933 126.928 14.2467 126.928 12.86C126.928 11.4733 127.255 10.2267 127.908 9.12C128.561 8.01333 129.441 7.15333 130.548 6.54C131.668 5.91333 132.895 5.6 134.228 5.6C135.561 5.6 136.781 5.91333 137.888 6.54C138.995 7.15333 139.868 8.01333 140.508 9.12C141.161 10.2267 141.488 11.4733 141.488 12.86C141.488 14.2467 141.161 15.4933 140.508 16.6C139.868 17.7067 138.988 18.5733 137.868 19.2C136.761 19.8267 135.548 20.14 134.228 20.14ZM134.228 16C135.108 16 135.788 15.72 136.268 15.16C136.748 14.5867 136.988 13.82 136.988 12.86C136.988 11.8867 136.748 11.12 136.268 10.56C135.788 9.98667 135.108 9.7 134.228 9.7C133.335 9.7 132.648 9.98667 132.168 10.56C131.688 11.12 131.448 11.8867 131.448 12.86C131.448 13.82 131.688 14.5867 132.168 15.16C132.648 15.72 133.335 16 134.228 16ZM154.81 5.84V9.36H151.05V20H146.61V9.36H142.89V5.84H154.81Z" fill="#F49200"/>
</svg>
