<svg width="25" height="26" viewBox="0 0 25 26" fill="none" xmlns="http://www.w3.org/2000/svg">
<path d="M2.42188 25.8342C1.75581 25.8342 1.18564 25.5971 0.711385 25.1228C0.237128 24.6485 0 24.0784 0 23.4123V5.58731C0 4.92124 0.237128 4.35107 0.711385 3.87682C1.18564 3.40256 1.75581 3.16543 2.42188 3.16543H10.9469C11.3505 3.16543 11.6533 3.28921 11.8552 3.53678C12.057 3.78435 12.1578 4.06152 12.1578 4.36829C12.1578 4.67507 12.0531 4.95493 11.8436 5.20788C11.6341 5.46083 11.3299 5.58731 10.9307 5.58731H2.42188V23.4123H20.2469V14.855C20.2469 14.4514 20.373 14.1486 20.6253 13.9466C20.8776 13.7449 21.1551 13.6441 21.4578 13.6441C21.77 13.6441 22.0498 13.7449 22.2974 13.9466C22.545 14.1486 22.6688 14.4514 22.6688 14.855V23.4123C22.6688 24.0784 22.4316 24.6485 21.9574 25.1228C21.4831 25.5971 20.9129 25.8342 20.2469 25.8342H2.42188ZM7.5401 17.0831V13.9186C7.5401 13.5926 7.60189 13.2819 7.72546 12.9863C7.84903 12.6909 8.02405 12.4312 8.25052 12.2071L19.4396 1.01803C19.6872 0.770464 19.9563 0.590169 20.2469 0.477148C20.5375 0.364128 20.8364 0.307617 21.1436 0.307617C21.4715 0.307617 21.7807 0.364128 22.0714 0.477148C22.362 0.590169 22.6311 0.770464 22.8786 1.01803L24.8 2.97168C25.026 3.21925 25.1983 3.48835 25.3167 3.77897C25.4351 4.0696 25.4943 4.37099 25.4943 4.68314C25.4943 4.99529 25.4405 5.29399 25.3328 5.57923C25.2252 5.86448 25.0476 6.13088 24.8 6.37845L13.6271 17.5675C13.403 17.7895 13.1432 17.9661 12.8479 18.0974C12.5523 18.2285 12.2416 18.2941 11.9156 18.2941H8.75104C8.41736 18.2941 8.13212 18.1757 7.89531 17.9389C7.65851 17.7021 7.5401 17.4168 7.5401 17.0831ZM9.96198 15.8722H11.8995L19.4719 8.28366L18.5031 7.31491L17.5182 6.36231L9.96198 13.9024V15.8722Z" fill="#212529"/>
</svg>
