<svg width="16" height="15" viewBox="0 0 16 15" fill="none" xmlns="http://www.w3.org/2000/svg">
<path d="M12 12.7286L14.2514 10.6179C14.4114 10.4679 14.6076 10.3929 14.84 10.3929C15.0724 10.3929 15.2724 10.4714 15.44 10.6286C15.6076 10.7857 15.6914 10.9732 15.6914 11.1911C15.6914 11.4089 15.6076 11.5964 15.44 11.7536L12.5943 14.4214C12.419 14.5857 12.2171 14.6679 11.9886 14.6679C11.76 14.6679 11.5581 14.5857 11.3829 14.4214L10.1143 13.2321C9.94667 13.075 9.86286 12.8857 9.86286 12.6643C9.86286 12.4429 9.94667 12.2536 10.1143 12.0964C10.2819 11.9393 10.4838 11.8607 10.72 11.8607C10.9562 11.8607 11.1581 11.9393 11.3257 12.0964L12 12.7286ZM0.857143 15C0.620952 15 0.419048 14.9214 0.251429 14.7643C0.0838095 14.6071 0 14.4179 0 14.1964C0 13.975 0.0838095 13.7857 0.251429 13.6286C0.419048 13.4714 0.620952 13.3929 0.857143 13.3929H7.14286C7.37905 13.3929 7.58095 13.4714 7.74857 13.6286C7.91619 13.7857 8 13.975 8 14.1964C8 14.4179 7.91619 14.6071 7.74857 14.7643C7.58095 14.9214 7.37905 15 7.14286 15H0.857143ZM0.857143 11.6571C0.620952 11.6571 0.419048 11.5786 0.251429 11.4214C0.0838095 11.2643 0 11.075 0 10.8536C0 10.6321 0.0838095 10.4429 0.251429 10.2857C0.419048 10.1286 0.620952 10.05 0.857143 10.05H7.14286C7.37905 10.05 7.58095 10.1286 7.74857 10.2857C7.91619 10.4429 8 10.6321 8 10.8536C8 11.075 7.91619 11.2643 7.74857 11.4214C7.58095 11.5786 7.37905 11.6571 7.14286 11.6571H0.857143ZM0.857143 8.30357C0.620952 8.30357 0.419048 8.225 0.251429 8.06786C0.0838095 7.91071 0 7.72143 0 7.5C0 7.27857 0.0838095 7.08929 0.251429 6.93214C0.419048 6.775 0.620952 6.69643 0.857143 6.69643H15.1429C15.379 6.69643 15.581 6.775 15.7486 6.93214C15.9162 7.08929 16 7.27857 16 7.5C16 7.72143 15.9162 7.91071 15.7486 8.06786C15.581 8.225 15.379 8.30357 15.1429 8.30357H0.857143ZM0.857143 4.96071C0.620952 4.96071 0.419048 4.88214 0.251429 4.725C0.0838095 4.56786 0 4.37857 0 4.15714C0 3.93571 0.0838095 3.74643 0.251429 3.58929C0.419048 3.43214 0.620952 3.35357 0.857143 3.35357H15.1429C15.379 3.35357 15.581 3.43214 15.7486 3.58929C15.9162 3.74643 16 3.93571 16 4.15714C16 4.37857 15.9162 4.56786 15.7486 4.725C15.581 4.88214 15.379 4.96071 15.1429 4.96071H0.857143ZM0.857143 1.60714C0.620952 1.60714 0.419048 1.52857 0.251429 1.37143C0.0838095 1.21429 0 1.025 0 0.803571C0 0.582143 0.0838095 0.392857 0.251429 0.235714C0.419048 0.0785714 0.620952 0 0.857143 0H15.1429C15.379 0 15.581 0.0785714 15.7486 0.235714C15.9162 0.392857 16 0.582143 16 0.803571C16 1.025 15.9162 1.21429 15.7486 1.37143C15.581 1.52857 15.379 1.60714 15.1429 1.60714H0.857143Z" fill="#212529"/>
</svg>
