<svg width="16" height="12" viewBox="0 0 16 12" fill="none" xmlns="http://www.w3.org/2000/svg">
<path d="M8.46289 9.57745C9.32908 9.57745 10.0653 9.25881 10.6717 8.62154C11.278 7.98427 11.5812 7.21044 11.5812 6.30005C11.5812 5.38966 11.278 4.61583 10.6717 3.97856C10.0653 3.34129 9.32908 3.02265 8.46289 3.02265C7.5967 3.02265 6.86044 3.34129 6.25411 3.97856C5.64778 4.61583 5.34461 5.38966 5.34461 6.30005C5.34461 7.21044 5.64778 7.98427 6.25411 8.62154C6.86044 9.25881 7.5967 9.57745 8.46289 9.57745ZM8.46504 8.29662C7.93792 8.29662 7.48918 8.10274 7.1188 7.71498C6.74843 7.32722 6.56325 6.85633 6.56325 6.30231C6.56325 5.74829 6.74772 5.27665 7.11665 4.88738C7.48559 4.49811 7.93362 4.30347 8.46074 4.30347C8.98786 4.30347 9.43661 4.49735 9.80698 4.88512C10.1773 5.27288 10.3625 5.74377 10.3625 6.29779C10.3625 6.85181 10.1781 7.32345 9.80913 7.71272C9.44019 8.10199 8.99216 8.29662 8.46504 8.29662ZM8.46415 11.8C6.90417 11.8 5.48051 11.3574 4.19318 10.4721C2.90584 9.58686 1.88583 8.4222 1.13314 6.97813C1.0734 6.8714 1.03009 6.76146 1.00321 6.64832C0.976331 6.53505 0.962891 6.4189 0.962891 6.29986C0.962891 6.18069 0.976331 6.0646 1.00321 5.95159C1.03009 5.83858 1.0734 5.7287 1.13314 5.62197C1.88583 4.1779 2.90542 3.01323 4.19192 2.12796C5.4783 1.24269 6.90154 0.800049 8.46164 0.800049C10.0216 0.800049 11.4453 1.24269 12.7326 2.12796C14.0199 3.01323 15.04 4.1779 15.7926 5.62197C15.8524 5.7287 15.8957 5.83864 15.9226 5.95178C15.9495 6.06504 15.9629 6.1812 15.9629 6.30024C15.9629 6.4194 15.9495 6.53549 15.9226 6.64851C15.8957 6.76152 15.8524 6.8714 15.7926 6.97813C15.04 8.4222 14.0204 9.58686 12.7339 10.4721C11.4475 11.3574 10.0242 11.8 8.46415 11.8ZM8.46289 10.3874C9.79503 10.3874 11.0181 10.0201 12.1322 9.28549C13.2463 8.55091 14.0961 7.55576 14.6815 6.30005C14.0961 5.04434 13.2463 4.04919 12.1322 3.3146C11.0181 2.58001 9.79503 2.21272 8.46289 2.21272C7.13075 2.21272 5.90763 2.58001 4.79354 3.3146C3.67944 4.04919 2.82968 5.04434 2.24425 6.30005C2.82968 7.55576 3.67944 8.55091 4.79354 9.28549C5.90763 10.0201 7.13075 10.3874 8.46289 10.3874Z" fill="#212529"/>
</svg>
