<svg width="16" height="15" viewBox="0 0 16 15" fill="none" xmlns="http://www.w3.org/2000/svg">
<path d="M1.87082 15C1.44479 15 1.08219 14.8503 0.782997 14.551C0.483655 14.2518 0.333984 13.8892 0.333984 13.4632V1.53683C0.333984 1.11081 0.483655 0.748204 0.782997 0.449012C1.08219 0.149671 1.44547 0 1.87284 0H7.98839C8.15985 0 8.30742 0.0619118 8.43109 0.185736C8.55491 0.30956 8.61683 0.457277 8.61683 0.628887C8.61683 0.803804 8.55491 0.95295 8.43109 1.07632C8.30742 1.1997 8.15985 1.26138 7.98839 1.26138H1.87284C1.79185 1.26138 1.72535 1.28738 1.67336 1.33937C1.62136 1.39137 1.59537 1.45786 1.59537 1.53886V13.4611C1.59537 13.5421 1.62136 13.6086 1.67336 13.6606C1.72535 13.7126 1.79185 13.7386 1.87284 13.7386H13.7951C13.8761 13.7386 13.9426 13.7126 13.9946 13.6606C14.0466 13.6086 14.0726 13.5421 14.0726 13.4611V7.3456C14.0726 7.17414 14.1344 7.02657 14.2579 6.90289C14.3816 6.77907 14.5301 6.71716 14.7035 6.71716C14.8771 6.71716 15.0256 6.77907 15.1489 6.90289C15.2723 7.02657 15.334 7.17414 15.334 7.3456V13.4611C15.334 13.8885 15.1843 14.2518 14.885 14.551C14.5858 14.8503 14.2232 15 13.7972 15H1.87082ZM2.90972 11.6761H12.7625L9.70667 7.60752L7.03807 11.0642L5.15862 8.70075L2.90972 11.6761ZM12.2876 3.04639H11.1353C10.9605 3.04639 10.8114 2.98463 10.6879 2.8611C10.5642 2.73743 10.5024 2.58889 10.5024 2.41547C10.5024 2.24206 10.5642 2.09359 10.6879 1.97007C10.8114 1.84669 10.9605 1.78501 11.1353 1.78501H12.2876V0.628438C12.2876 0.456977 12.3494 0.30941 12.4729 0.185736C12.5966 0.0619118 12.7451 0 12.9185 0C13.0919 0 13.2404 0.0619118 13.3639 0.185736C13.4873 0.30941 13.549 0.456977 13.549 0.628438V1.78501H14.7055C14.877 1.78501 15.0246 1.84692 15.1482 1.97074C15.2721 2.09457 15.334 2.24228 15.334 2.41389C15.334 2.58881 15.2721 2.73796 15.1482 2.86133C15.0246 2.9847 14.877 3.04639 14.7055 3.04639H13.549V4.19867C13.549 4.37344 13.4871 4.52259 13.3632 4.64611C13.2394 4.76978 13.0917 4.83162 12.9201 4.83162C12.7452 4.83162 12.596 4.76978 12.4727 4.64611C12.3493 4.52259 12.2876 4.37344 12.2876 4.19867V3.04639Z" fill="white"/>
</svg>
