<svg width="17" height="16" viewBox="0 0 17 16" fill="none" xmlns="http://www.w3.org/2000/svg">
<path d="M14.9322 9.16094C15.4047 9.16094 15.8069 9.32694 16.1387 9.65894C16.4707 9.99077 16.6367 10.3933 16.6367 10.8664L16.6367 14.1929C16.6367 14.6661 16.4707 15.0686 16.1387 15.4004C15.8069 15.7324 15.4047 15.8984 14.9322 15.8984L1.70472 15.8984C1.23222 15.8984 0.830052 15.7324 0.498219 15.4004C0.16622 15.0686 0.000219453 14.6661 0.000219494 14.1929L0.000219785 10.8664C0.000219826 10.3933 0.16622 9.99077 0.498219 9.65894C0.830053 9.32694 1.23222 9.16094 1.70472 9.16094L14.9322 9.16094ZM14.9322 -0.00156322C15.4047 -0.00156318 15.8069 0.164437 16.1387 0.496437C16.4707 0.82827 16.6367 1.23077 16.6367 1.70394L16.6367 5.03044C16.6367 5.5036 16.4707 5.9061 16.1387 6.23794C15.8069 6.56994 15.4047 6.73594 14.9322 6.73594L1.70472 6.73594C1.23222 6.73594 0.830053 6.56994 0.498219 6.23794C0.166221 5.9061 0.000220254 5.5036 0.000220295 5.03044L0.000220586 1.70394C0.000220627 1.23077 0.166221 0.828269 0.49822 0.496436C0.830054 0.164436 1.23222 -0.00156442 1.70472 -0.00156438L14.9322 -0.00156322ZM14.93 1.39744L1.70697 1.39744C1.62997 1.39744 1.55947 1.42952 1.49547 1.49369C1.4313 1.55785 1.39922 1.62835 1.39922 1.70519L1.39922 5.02919C1.39922 5.10619 1.4313 5.17669 1.49547 5.24069C1.55947 5.30485 1.62997 5.33694 1.70697 5.33694L14.93 5.33694C15.007 5.33694 15.0775 5.30485 15.1415 5.24069C15.2056 5.17669 15.2377 5.10619 15.2377 5.02919L15.2377 1.70519C15.2377 1.62835 15.2056 1.55785 15.1415 1.49369C15.0775 1.42952 15.007 1.39744 14.93 1.39744Z" fill="white"/>
</svg>
