<svg width="17" height="17" viewBox="0 0 17 17" fill="none" xmlns="http://www.w3.org/2000/svg">
<path d="M1.70675 16.6365C1.23275 16.6365 0.829833 16.4705 0.498 16.1385C0.166 15.8067 0 15.4038 0 14.9298V9.96725C0 9.77308 0.0684165 9.60758 0.20525 9.47075C0.342083 9.33375 0.506833 9.26525 0.6995 9.26525C0.892167 9.26525 1.05692 9.33375 1.19375 9.47075C1.33058 9.60758 1.399 9.77308 1.399 9.96725V14.9298C1.399 15.0068 1.43108 15.0772 1.49525 15.1412C1.55925 15.2054 1.62975 15.2375 1.70675 15.2375H6.66925C6.86342 15.2375 7.02892 15.3061 7.16575 15.4432C7.30275 15.5802 7.37125 15.744 7.37125 15.9345C7.37125 16.1288 7.30275 16.2944 7.16575 16.4312C7.02892 16.5681 6.86342 16.6365 6.66925 16.6365H1.70675ZM14.9298 16.6365H9.96725C9.77308 16.6365 9.60833 16.5677 9.473 16.4303C9.33783 16.2926 9.27025 16.1282 9.27025 15.937C9.27025 15.7458 9.33783 15.5814 9.473 15.4438C9.60833 15.3063 9.77308 15.2375 9.96725 15.2375H14.9298C15.0068 15.2375 15.0772 15.2054 15.1412 15.1412C15.2054 15.0772 15.2375 15.0068 15.2375 14.9298V9.96725C15.2375 9.77308 15.3059 9.60758 15.4427 9.47075C15.5796 9.33375 15.7443 9.26525 15.937 9.26525C16.1297 9.26525 16.2944 9.33375 16.4312 9.47075C16.5681 9.60758 16.6365 9.77308 16.6365 9.96725V14.9298C16.6365 15.4038 16.4705 15.8067 16.1385 16.1385C15.8067 16.4705 15.4038 16.6365 14.9298 16.6365ZM7.549 12.3172L9.97475 9.17175C10.0627 9.05925 10.1769 9.003 10.3173 9.003C10.4574 9.003 10.5709 9.05908 10.6578 9.17125L12.9932 12.2832C13.0996 12.4296 13.1119 12.5802 13.0302 12.735C12.9486 12.8898 12.8228 12.9672 12.6528 12.9672H4.0905C3.91167 12.9672 3.782 12.8898 3.7015 12.735C3.621 12.5802 3.63958 12.4294 3.75725 12.2827L5.25675 10.2767C5.34525 10.1634 5.458 10.1067 5.595 10.1067C5.73217 10.1067 5.84408 10.1597 5.93075 10.2655L7.549 12.3172ZM0 1.70675C0 1.23275 0.166 0.829833 0.498 0.498C0.829833 0.166 1.23275 0 1.70675 0H6.66925C6.86342 0 7.02892 0.0685828 7.16575 0.20575C7.30275 0.34275 7.37125 0.5065 7.37125 0.697C7.37125 0.891333 7.30275 1.05692 7.16575 1.19375C7.02892 1.33058 6.86342 1.399 6.66925 1.399H1.70675C1.62975 1.399 1.55925 1.43108 1.49525 1.49525C1.43108 1.55925 1.399 1.62975 1.399 1.70675V6.66925C1.399 6.86342 1.33025 7.02817 1.19275 7.1635C1.05508 7.29867 0.890667 7.36625 0.6995 7.36625C0.508333 7.36625 0.343917 7.29867 0.20625 7.1635C0.06875 7.02817 0 6.86342 0 6.66925V1.70675ZM16.6365 1.70675V6.66925C16.6365 6.86342 16.5677 7.02817 16.4303 7.1635C16.2926 7.29867 16.1282 7.36625 15.937 7.36625C15.7458 7.36625 15.5814 7.29867 15.4438 7.1635C15.3063 7.02817 15.2375 6.86342 15.2375 6.66925V1.70675C15.2375 1.62975 15.2054 1.55925 15.1412 1.49525C15.0772 1.43108 15.0068 1.399 14.9298 1.399H9.96725C9.77308 1.399 9.60833 1.33025 9.473 1.19275C9.33783 1.05508 9.27025 0.890666 9.27025 0.6995C9.27025 0.508333 9.33783 0.343917 9.473 0.20625C9.60833 0.06875 9.77308 0 9.96725 0H14.9298C15.4038 0 15.8067 0.166 16.1385 0.498C16.4705 0.829833 16.6365 1.23275 16.6365 1.70675ZM11.6625 6.222C11.2997 6.222 11.0009 6.10508 10.7662 5.87125C10.5317 5.63725 10.4145 5.33883 10.4145 4.976C10.4145 4.61317 10.5314 4.31442 10.7653 4.07975C10.9992 3.84525 11.2977 3.728 11.6605 3.728C12.0233 3.728 12.3221 3.84492 12.5567 4.07875C12.7912 4.31275 12.9085 4.61117 12.9085 4.974C12.9085 5.33683 12.7916 5.63558 12.5577 5.87025C12.3238 6.10475 12.0253 6.222 11.6625 6.222Z" fill="white"/>
</svg>
