<svg width="17" height="16" viewBox="0 0 17 16" fill="none" xmlns="http://www.w3.org/2000/svg">
<path d="M2.03848 6.7375C1.56598 6.7375 1.16382 6.5715 0.831984 6.2395C0.499984 5.90767 0.333984 5.50517 0.333984 5.032V1.7055C0.333984 1.23233 0.499984 0.829833 0.831984 0.498C1.16382 0.166 1.56598 0 2.03848 0H15.266C15.7385 0 16.1407 0.166 16.4725 0.498C16.8045 0.829833 16.9705 1.23233 16.9705 1.7055V5.032C16.9705 5.50517 16.8045 5.90767 16.4725 6.2395C16.1407 6.5715 15.7385 6.7375 15.266 6.7375H2.03848ZM2.03848 15.9C1.56598 15.9 1.16382 15.734 0.831984 15.402C0.499984 15.0702 0.333984 14.6677 0.333984 14.1945V10.868C0.333984 10.3948 0.499984 9.99233 0.831984 9.6605C1.16382 9.3285 1.56598 9.1625 2.03848 9.1625H15.266C15.7385 9.1625 16.1407 9.3285 16.4725 9.6605C16.8045 9.99233 16.9705 10.3948 16.9705 10.868V14.1945C16.9705 14.6677 16.8045 15.0702 16.4725 15.402C16.1407 15.734 15.7385 15.9 15.266 15.9H2.03848ZM2.04073 14.501H15.2637C15.3407 14.501 15.4112 14.4689 15.4752 14.4047C15.5394 14.3406 15.5715 14.2701 15.5715 14.1932V10.8693C15.5715 10.7922 15.5394 10.7218 15.4752 10.6578C15.4112 10.5936 15.3407 10.5615 15.2637 10.5615H2.04073C1.96373 10.5615 1.89323 10.5936 1.82923 10.6578C1.76507 10.7218 1.73298 10.7922 1.73298 10.8693V14.1932C1.73298 14.2701 1.76507 14.3406 1.82923 14.4047C1.89323 14.4689 1.96373 14.501 2.04073 14.501Z" fill="white"/>
</svg>
